<?xml version="1.0"?>
<svg viewBox="0 0 500 500" xmlns="http://www.w3.org/2000/svg" xmlns:svg="http://www.w3.org/2000/svg" clip-rule="evenodd" fill-rule="evenodd" version="1.1">
 <g class="layer">
  <title>Layer 1</title>
  <g id="svg_1">
   <path d="m-0.5,-0.5c166.67,0 333.33,0 500,0c0,166.67 0,333.33 0,500c-166.67,0 -333.33,0 -500,0c0,-166.67 0,-333.33 0,-500z" fill="#fea401" id="svg_2"/>
  </g>
  <g id="svg_3">
   <path d="m229.5,1.5c4,0 8,0 12,0c0,3.33 0,6.67 0,10c-4,0 -8,0 -12,0c0,-3.33 0,-6.67 0,-10z" fill="#f6f0e8" id="svg_4"/>
  </g>
  <g id="svg_5">
   <path d="m206.5,2.5c-10.33,0 -20.67,0 -31,0c0,19 0,38 0,57c-1,-19.16 -1.33,-38.49 -1,-58c10.85,-0.33 21.51,0.01 32,1z" fill="#f9d79b" id="svg_6"/>
  </g>
  <g id="svg_7">
   <path d="m206.5,2.5c9.58,0.75 14.58,5.91 15,15.5c0.69,6.6 -1.98,11.27 -8,14c2.12,1.12 3.96,2.62 5.5,4.5c1.21,6.59 1.88,13.25 2,20c0.69,0.53 1.19,1.19 1.5,2c-4.28,0.99 -8.62,1.33 -13,1c-0.64,-5.98 -1.14,-11.98 -1.5,-18c-0.47,-1.43 -1.3,-2.6 -2.5,-3.5c-6.32,-0.5 -12.66,-0.67 -19,-0.5c0,7.33 0,14.67 0,22c-3.67,0 -7.33,0 -11,0c0,-19 0,-38 0,-57c10.33,0 20.67,0 31,0z" fill="#f5f4f2" id="svg_8"/>
  </g>
  <g id="svg_9">
   <path d="m294.5,2.5c3.67,0 7.33,0 11,0c-0.17,10.01 0,20.01 0.5,30c4.5,-5.17 9,-10.33 13.5,-15.5c4.37,-0.83 8.7,-0.66 13,0.5c-4.67,5.33 -9.33,10.67 -14,16c4.87,8.58 9.87,17.08 15,25.5c-4.7,0.83 -9.37,0.66 -14,-0.5c-3.17,-5.67 -6.33,-11.33 -9.5,-17c-1.33,1.33 -2.67,2.67 -4,4c-0.5,4.65 -0.67,9.32 -0.5,14c-3.67,0 -7.33,0 -11,0c0,-19 0,-38 0,-57z" fill="#f5f3f1" id="svg_10"/>
  </g>
  <g id="svg_11">
   <path d="m186.5,11.5c6.76,-0.38 13.42,0.12 20,1.5c2.89,2.91 3.73,6.41 2.5,10.5c-0.5,1.17 -1.33,2 -2.5,2.5c-6.58,1.38 -13.24,1.88 -20,1.5c0,-5.33 0,-10.67 0,-16z" fill="#fea813" id="svg_12"/>
  </g>
  <g id="svg_13">
   <path d="m251.5,55.5c-1.99,-2.62 -2.99,-5.62 -3,-9c3.73,-0.32 7.39,0.01 11,1c0.53,2.24 1.87,3.74 4,4.5c4.07,0.96 7.9,0.46 11.5,-1.5c0.72,-1.61 0.55,-3.11 -0.5,-4.5c-7.16,-1.87 -14.16,-4.21 -21,-7c-6.52,-9.21 -4.85,-16.55 5,-22c9.05,-2.97 17.21,-1.47 24.5,4.5c1.71,2.41 2.54,5.08 2.5,8c-3.73,0.32 -7.39,-0.01 -11,-1c-1.39,-3.28 -3.89,-4.62 -7.5,-4c-3.22,-0.59 -5.39,0.57 -6.5,3.5c0.65,1.99 1.99,3.32 4,4c5.04,1.18 10.04,2.51 15,4c8.23,4.12 10.06,10.29 5.5,18.5c-2.12,2.93 -4.95,4.76 -8.5,5.5c-6,0.67 -12,0.67 -18,0c-2.7,-1.01 -5.03,-2.51 -7,-4.5z" fill="#f5f3ef" id="svg_14"/>
  </g>
  <g id="svg_15">
   <path d="m240.5,59.5c0,-14 0,-28 0,-42c-3.33,0 -6.67,0 -10,0c0,14 0,28 0,42c-1,-14.16 -1.33,-28.49 -1,-43c4,0 8,0 12,0c0.33,14.51 0,28.84 -1,43z" fill="#f8dba7" id="svg_16"/>
  </g>
  <g id="svg_17">
   <path d="m240.5,59.5c-3.33,0 -6.67,0 -10,0c0,-14 0,-28 0,-42c3.33,0 6.67,0 10,0c0,14 0,28 0,42z" fill="#f4f5f4" id="svg_18"/>
  </g>
  <g id="svg_19">
   <path d="m251.5,55.5c-0.33,4.67 -0.67,9.33 -1,14c-0.97,-2.11 -1.3,-4.44 -1,-7c-0.51,-2.89 0.16,-5.22 2,-7z" fill="#724b38" id="svg_20"/>
  </g>
  <g id="svg_21">
   <path d="m251.5,76.5c1.26,-0.04 2.26,0.46 3,1.5c-2.11,1.26 -3.11,3.1 -3,5.5c-1.22,-0.65 -1.89,-1.82 -2,-3.5c0.11,-1.68 0.78,-2.85 2,-3.5z" fill="#c6c6c3" id="svg_22"/>
  </g>
  <g id="svg_23">
   <path d="m251.5,72.5c1.43,1.94 3.1,3.77 5,5.5c-1.17,1.17 -2.33,2.33 -3.5,3.5c-0.54,12.01 -0.37,24.01 0.5,36c-0.95,-4.16 -1.62,-8.49 -2,-13c0,-7 0,-14 0,-21c-0.11,-2.4 0.89,-4.24 3,-5.5c-0.74,-1.04 -1.74,-1.54 -3,-1.5c0,-1.33 0,-2.67 0,-4z" fill="#8d6223" id="svg_24"/>
  </g>
  <g id="svg_25">
   <path d="m249.5,62.5c-0.3,2.56 0.03,4.89 1,7c0.9,0.71 1.24,1.71 1,3c0,1.33 0,2.67 0,4c-1.22,0.65 -1.89,1.82 -2,3.5c0.11,1.68 0.78,2.85 2,3.5c0,7 0,14 0,21c-1.22,0.65 -1.89,1.82 -2,3.5c0.67,2.33 1.33,4.67 2,7c-0.67,2.33 -1.33,4.67 -2,7c1.31,3.39 1.97,6.9 2,10.5c-1.22,0.65 -1.89,1.82 -2,3.5c2.58,4.51 2.58,9.01 0,13.5c0.3,1.61 0.97,2.95 2,4c-0.47,2.03 -1.47,3.7 -3,5c0.33,-28.84 0,-57.5 -1,-86c0.51,-3.48 1.18,-6.82 2,-10z" fill="#3e3c54" id="svg_26"/>
  </g>
  <g id="svg_27">
   <path d="m360.5,124.5c-0.67,0 -1,0.33 -1,1c-28.23,-23.58 -60.89,-36.08 -98,-37.5c37.72,-0.15 70.72,12.01 99,36.5z" fill="#3d2d5a" id="svg_28"/>
  </g>
  <g id="svg_29">
   <path d="m225.5,97.5c3.19,-1.31 6.52,-1.31 10,0c-0.12,0.61 -0.46,0.94 -1,1c-2.79,-0.98 -5.79,-1.31 -9,-1z" fill="#79553d" id="svg_30"/>
  </g>
  <g id="svg_31">
   <path d="m79.5,106.5c2.15,1.25 4.15,2.75 6,4.5c-3.23,0.29 -5.23,-1.21 -6,-4.5z" fill="#493454" id="svg_32"/>
  </g>
  <g id="svg_33">
   <path d="m187.5,106.5c1.91,0.99 2.91,2.65 3,5c1.61,7.15 3.61,14.15 6,21c0.3,2.3 1.3,2.63 3,1c3.1,4.54 5.43,9.54 7,15c2.73,6.51 5.06,13.18 7,20c-0.67,0.33 -1.33,0.67 -2,1c-3.04,-6.77 -5.71,-13.77 -8,-21c0.13,-0.88 -0.2,-1.54 -1,-2c-10.64,5.9 -20.47,12.9 -29.5,21c-12.59,-9.76 -24.43,-20.42 -35.5,-32c14.49,-13.25 31.16,-22.92 50,-29z" fill="#faa202" id="svg_34"/>
  </g>
  <g id="svg_35">
   <path d="m247.5,72.5c1,28.5 1.33,57.16 1,86c-0.33,0 -0.67,0 -1,0c0,-12 0,-24 0,-36c-0.34,-0.84 -1.01,-1.17 -2,-1c0.69,-13.01 1.19,-26.01 1.5,-39c-1.54,-1.88 -3.38,-3.38 -5.5,-4.5c2.52,-1.36 4.52,-3.19 6,-5.5z" fill="#060236" id="svg_36"/>
  </g>
  <g id="svg_37">
   <path d="m251.5,104.5c0.38,4.51 1.05,8.84 2,13c0,1 0,2 0,3c0,3.67 0,7.33 0,11c-0.67,0.33 -1.33,0.67 -2,1c-0.03,-3.6 -0.69,-7.11 -2,-10.5c0.67,-2.33 1.33,-4.67 2,-7c-0.67,-2.33 -1.33,-4.67 -2,-7c0.11,-1.68 0.78,-2.85 2,-3.5z" fill="#b6b5b9" id="svg_38"/>
  </g>
  <g id="svg_39">
   <path d="m90.5,115.5c1.65,1.31 3.31,2.64 5,4c-2.65,0.39 -4.31,-0.94 -5,-4z" fill="#382b5b" id="svg_40"/>
  </g>
  <g id="svg_41">
   <path d="m187.5,106.5c0.71,-0.9 1.71,-1.24 3,-1c3.35,8.71 7.68,16.71 13,24c-1.17,0.84 -2.5,1.51 -4,2c-3.65,-5.76 -6.65,-12.43 -9,-20c-0.09,-2.35 -1.09,-4.01 -3,-5z" fill="#352305" id="svg_42"/>
  </g>
  <g id="svg_43">
   <path d="m247.5,122.5c0,12 0,24 0,36c-1.33,0 -2.67,0 -4,0c0,-1.33 0,-2.67 0,-4c0.33,-6.67 0.67,-13.33 1,-20c0,-1 0,-2 0,-3c0.39,-3.3 1.39,-6.3 3,-9z" fill="#00004d" id="svg_44"/>
  </g>
  <g id="svg_45">
   <path d="m239.5,123.5c1.33,0 2.67,0 4,0c0,3.67 0,7.33 0,11c-0.64,6.65 -0.97,13.31 -1,20c0,1.67 0,3.33 0,5c-7.62,0.43 -14.96,2.1 -22,5c-4.35,-8.03 -8.68,-16.03 -13,-24c-1.06,-3.12 -2.4,-6.12 -4,-9c11.41,-5.08 23.41,-7.75 36,-8z" fill="#fba201" id="svg_46"/>
  </g>
  <g id="svg_47">
   <path d="m239.5,123.5c1.42,-0.95 3.09,-1.28 5,-1c0,3 0,6 0,9c0,1 0,2 0,3c-0.33,0 -0.67,0 -1,0c0,-3.67 0,-7.33 0,-11c-1.33,0 -2.67,0 -4,0z" fill="#946117" id="svg_48"/>
  </g>
  <g id="svg_49">
   <path d="m119.5,121.5c4.63,4.13 9.13,8.46 13.5,13c0.69,0.94 0.53,1.6 -0.5,2c-8.2,-1.28 -12.53,-6.28 -13,-15z" fill="#e3e0db" id="svg_50"/>
  </g>
  <g id="svg_51">
   <path d="m100.5,124.5c2.39,0.87 4.39,2.37 6,4.5c-0.67,0.67 -1.33,0.67 -2,0c-1.69,-1.31 -3.03,-2.81 -4,-4.5z" fill="#382c5a" id="svg_52"/>
  </g>
  <g id="svg_53">
   <path d="m190.5,111.5c2.35,7.57 5.35,14.24 9,20c-1.11,0.06 -2.11,0.39 -3,1c-2.39,-6.85 -4.39,-13.85 -6,-21z" fill="#a06800" id="svg_54"/>
  </g>
  <g id="svg_55">
   <path d="m378.5,127.5c-1.76,2.52 -3.76,4.85 -6,7c-4.33,-3.5 -3.67,-5.67 2,-6.5c1.18,-3.06 2.51,-3.23 4,-0.5z" fill="#ded9d5" id="svg_56"/>
  </g>
  <g id="svg_57">
   <path d="m245.5,121.5c0.99,-0.17 1.66,0.16 2,1c-1.61,2.7 -2.61,5.7 -3,9c0,-3 0,-6 0,-9c-1.91,-0.28 -3.58,0.05 -5,1c-12.59,0.25 -24.59,2.92 -36,8c-1.5,0.49 -2.83,1.16 -4,2c-1.7,1.63 -2.7,1.3 -3,-1c0.89,-0.61 1.89,-0.94 3,-1c1.5,-0.49 2.83,-1.16 4,-2c13.47,-5.27 27.47,-7.94 42,-8z" fill="#332757" id="svg_58"/>
  </g>
  <g id="svg_59">
   <path d="m303.5,117.5c-2.11,6.89 -4.78,13.55 -8,20c-1.6,0.27 -2.93,-0.07 -4,-1c3.81,-5.62 7.15,-11.61 10,-18c0.46,-0.8 1.12,-1.13 2,-1z" fill="#946002" id="svg_60"/>
  </g>
  <g id="svg_61">
   <path d="m299.5,138.5c-1.46,0.07 -2.79,-0.27 -4,-1c3.22,-6.45 5.89,-13.11 8,-20c1.6,-3.96 3.26,-7.96 5,-12c0.33,0.5 0.67,1 1,1.5c-4.43,10.13 -7.76,20.63 -10,31.5z" fill="#402a03" id="svg_62"/>
  </g>
  <g id="svg_63">
   <path d="m111.5,133.5c2.39,0.87 4.39,2.37 6,4.5c-3.22,0.21 -5.22,-1.29 -6,-4.5z" fill="#4d3752" id="svg_64"/>
  </g>
  <g id="svg_65">
   <path d="m203.5,131.5c1.6,2.88 2.94,5.88 4,9c0.09,1 -0.25,1.83 -1,2.5c1,1 2,2 3,3c-0.87,1.04 -1.87,1.88 -3,2.5c-1.57,-5.46 -3.9,-10.46 -7,-15c1.17,-0.84 2.5,-1.51 4,-2z" fill="#5c3c02" id="svg_66"/>
  </g>
  <g id="svg_67">
   <path d="m134.5,137.5c10.69,12.35 21.36,24.69 32,37c-8.29,9.97 -14.95,20.97 -20,33c-4,-1.67 -8,-3.33 -12,-5c2.14,-0.44 4.47,-0.6 7,-0.5c-9.19,-3.34 -18.52,-6.18 -28,-8.5c-2.89,-1.46 -5.89,-2.29 -9,-2.5c6.36,3.18 12.69,6.35 19,9.5c7.16,3.75 14.16,7.75 21,12c-3.02,9.1 -5.02,18.44 -6,28c0,1.33 0,2.67 0,4c-6.84,0.39 -13.51,1.06 -20,2c-0.67,0 -1.33,0 -2,0c-7.99,0.52 -15.99,0.86 -24,1c-2.67,0 -5.33,0 -8,0c0,-3 0,-6 0,-9c4.11,-41.22 20.78,-74.88 50,-101z" fill="#fba202" id="svg_68"/>
  </g>
  <g id="svg_69">
   <path d="m253.5,120.5c1.5,12.48 2.5,25.15 3,38c-0.33,0 -0.67,0 -1,0c-0.94,-8.98 -1.61,-17.98 -2,-27c0,-3.67 0,-7.33 0,-11z" fill="#846c4b" id="svg_70"/>
  </g>
  <g id="svg_71">
   <path d="m378.5,127.5c-1.49,-2.73 -2.82,-2.56 -4,0.5c-5.67,0.83 -6.33,3 -2,6.5c0.36,1.87 1.36,3.37 3,4.5c-0.33,0.17 -0.67,0.33 -1,0.5c-1.75,-1.76 -3.75,-3.09 -6,-4c-1.92,0.59 -3.59,1.59 -5,3c-1.75,0.57 -3.42,1.41 -5,2.5c-1.27,0.98 -1.27,1.81 0,2.5c-1.33,1.67 -2.67,3.33 -4,5c-4.56,0.05 -7.06,2.39 -7.5,7c-2.9,1.16 -5.4,2.83 -7.5,5c-1.53,0.07 -2.53,-0.59 -3,-2c9.27,-8.1 18.44,-16.43 27.5,-25c0.51,-3.69 -0.99,-6.36 -4.5,-8c0,-0.67 0.33,-1 1,-1c1.31,0.98 2.65,1.98 4,3c1.92,-2.96 4.59,-4.96 8,-6c-0.21,-0.59 -0.54,-1.09 -1,-1.5c4.39,-1.69 8.72,-2.53 13,-2.5c-1.54,3.94 -2.87,7.94 -4,12c-0.68,-0.74 -1.35,-1.41 -2,-2z" fill="#251c54" id="svg_72"/>
  </g>
  <g id="svg_73">
   <path d="m363.5,138.5c-1.33,2 -3,3.67 -5,5c-1.27,-0.69 -1.27,-1.52 0,-2.5c1.58,-1.09 3.25,-1.93 5,-2.5z" fill="#ccc3b7" id="svg_74"/>
  </g>
  <g id="svg_75">
   <path d="m298.5,140.5c13.55,4.1 25.55,10.77 36,20c-8.67,7.67 -17.33,15.33 -26,23c-5.64,-5.15 -11.64,-9.82 -18,-14c2.26,-9.78 4.93,-19.44 8,-29z" fill="#faa202" id="svg_76"/>
  </g>
  <g id="svg_77">
   <path d="m290.5,138.5c2.83,0.08 5.49,0.75 8,2c-3.07,9.56 -5.74,19.22 -8,29c-2.91,-1.95 -5.91,-3.62 -9,-5c1,0.09 1.83,-0.25 2.5,-1c0.88,-2.5 2.05,-4.83 3.5,-7c2.17,-5.67 4,-11.33 5.5,-17c-4.7,8.08 -8.87,16.41 -12.5,25c-0.67,0 -1,-0.33 -1,-1c3.41,-8.48 7.08,-16.81 11,-25z" fill="#7f5201" id="svg_78"/>
  </g>
  <g id="svg_79">
   <path d="m281.5,164.5c-0.33,0 -0.67,0 -1,0c3.63,-8.59 7.8,-16.92 12.5,-25c-1.5,5.67 -3.33,11.33 -5.5,17c-1.45,2.17 -2.62,4.5 -3.5,7c-0.67,0.75 -1.5,1.09 -2.5,1z" fill="#f7a000" id="svg_80"/>
  </g>
  <g id="svg_81">
   <path d="m225.5,97.5c3.21,-0.31 6.21,0.02 9,1c-15.09,-0.04 -29.76,2.29 -44,7c-1.29,-0.24 -2.29,0.1 -3,1c-18.84,6.08 -35.51,15.75 -50,29c11.07,11.58 22.91,22.24 35.5,32c9.03,-8.1 18.86,-15.1 29.5,-21c0.8,0.46 1.13,1.12 1,2c-0.99,-0.17 -1.66,0.16 -2,1c-10.26,4.96 -19.26,11.63 -27,20c-3.33,-1.33 -4.33,-0.33 -3,3c-1.33,0.67 -2.33,1.67 -3,3c-1.19,0.37 -1.86,1.2 -2,2.5c1.07,1.71 2.4,3.21 4,4.5c-0.5,1.02 -1.17,1.19 -2,0.5c-1.17,-1.17 -2.33,-2.33 -3.5,-3.5c-6.11,7.22 -10.95,15.22 -14.5,24c-0.9,0.79 -1.57,1.79 -2,3c0,0.67 0,1.33 0,2c-0.84,1.17 -1.51,2.5 -2,4c-3.37,9.86 -5.7,19.86 -7,30c0.17,-0.99 -0.16,-1.66 -1,-2c0.98,-9.56 2.98,-18.9 6,-28c0.81,-1.53 1.48,-3.19 2,-5c5.05,-12.03 11.71,-23.03 20,-33c1.95,-0.75 2.78,-2.09 2.5,-4c-11.37,-11.88 -22.87,-22.88 -34.5,-33c-29.22,26.12 -45.89,59.78 -50,101c-0.98,3.13 -1.31,6.46 -1,10c0,0.67 0,1.33 0,2c-0.33,0 -0.67,0 -1,0c0,-1 0,-2 0,-3c1.25,-41.87 15.91,-76.7 44,-104.5c1.9,-2.34 3.9,-4.5 6,-6.5c1.03,-0.4 1.19,-1.06 0.5,-2c-4.37,-4.54 -8.87,-8.87 -13.5,-13c8.78,-0.92 14.12,3.08 16,12c26.07,-21.58 56.07,-33.58 90,-36z" fill="#332555" id="svg_82"/>
  </g>
  <g id="svg_83">
   <path d="m253.5,131.5c0.39,9.02 1.06,18.02 2,27c-1.33,0 -2.67,0 -4,0c0,-1.67 0,-3.33 0,-5c-1.03,-1.05 -1.7,-2.39 -2,-4c2.58,-4.49 2.58,-8.99 0,-13.5c0.11,-1.68 0.78,-2.85 2,-3.5c0.67,-0.33 1.33,-0.67 2,-1z" fill="#e4e4e5" id="svg_84"/>
  </g>
  <g id="svg_85">
   <path d="m201.5,149.5c0.34,-0.84 1.01,-1.17 2,-1c2.29,7.23 4.96,14.23 8,21c-0.79,0.9 -1.79,1.57 -3,2c-0.98,-6.1 -2.48,-12.1 -4.5,-18c-0.2,-1.82 -1.03,-3.15 -2.5,-4z" fill="#8d5b05" id="svg_86"/>
  </g>
  <g id="svg_87">
   <path d="m207.5,140.5c4.32,7.97 8.65,15.97 13,24c-2.17,1.59 -4.5,2.92 -7,4c-1.94,-6.82 -4.27,-13.49 -7,-20c1.13,-0.62 2.13,-1.46 3,-2.5c-1,-1 -2,-2 -3,-3c0.75,-0.67 1.09,-1.5 1,-2.5z" fill="#895901" id="svg_88"/>
  </g>
  <g id="svg_89">
   <path d="m201.5,149.5c1.47,0.85 2.3,2.18 2.5,4c2.02,5.9 3.52,11.9 4.5,18c-5.85,4.43 -11.52,9.09 -17,14c-5.67,-5.33 -11.33,-10.67 -17,-16c7.74,-8.37 16.74,-15.04 27,-20z" fill="#f9a102" id="svg_90"/>
  </g>
  <g id="svg_91">
   <path d="m243.5,134.5c0.33,0 0.67,0 1,0c-0.33,6.67 -0.67,13.33 -1,20c-0.33,0 -0.67,0 -1,0c0.03,-6.69 0.36,-13.35 1,-20z" fill="#24171b" id="svg_92"/>
  </g>
  <g id="svg_93">
   <path d="m132.5,152.5c0.06,-0.54 0.39,-0.88 1,-1c1.89,1.1 3.56,2.44 5,4c-0.33,0.33 -0.67,0.67 -1,1c-1.69,-1.36 -3.35,-2.69 -5,-4z" fill="#403058" id="svg_94"/>
  </g>
  <g id="svg_95">
   <path d="m354.5,148.5c-4.12,5.27 -8.45,10.27 -13,15c-1.41,-0.47 -2.07,-1.47 -2,-3c2.1,-2.17 4.6,-3.84 7.5,-5c0.44,-4.61 2.94,-6.95 7.5,-7z" fill="#cac0b7" id="svg_96"/>
  </g>
  <g id="svg_97">
   <path d="m166.5,174.5c-10.64,-12.31 -21.31,-24.65 -32,-37c11.63,10.12 23.13,21.12 34.5,33c0.28,1.91 -0.55,3.25 -2.5,4z" fill="#e1ddd7" id="svg_98"/>
  </g>
  <g id="svg_99">
   <path d="m248.5,160.5c0.33,0 0.67,0 1,0c0.24,3.4 0.91,6.73 2,10c-0.51,2.38 -1.18,4.71 -2,7c2.58,4.49 2.58,8.99 0,13.5c0.67,2.33 1.33,4.67 2,7c-0.67,2.33 -1.33,4.67 -2,7c0.67,2.33 1.33,4.67 2,7c-1.04,2.77 -1.71,5.6 -2,8.5c-1,-19.83 -1.33,-39.83 -1,-60z" fill="#3c3b54" id="svg_100"/>
  </g>
  <g id="svg_101">
   <path d="m249.5,160.5c2.33,0 4.67,0 7,0c-0.32,4.2 0.02,8.2 1,12c0,1 0,2 0,3c0.4,13.69 1.07,27.35 2,41c-1.05,-0.15 -2.05,0.02 -3,0.5c1.4,0.41 2.73,0.91 4,1.5c-0.31,2.88 0.03,5.55 1,8c0,4 0,8 0,12c-3.67,3 -7,6.33 -10,10c-1.15,-0.29 -1.82,-1.12 -2,-2.5c2.49,-4.3 2.49,-8.63 0,-13c1.86,-3.79 2.19,-7.62 1,-11.5c1.06,-0.71 0.72,-1.04 -1,-1c0.29,-2.9 0.96,-5.73 2,-8.5c-0.67,-2.33 -1.33,-4.67 -2,-7c0.67,-2.33 1.33,-4.67 2,-7c-0.67,-2.33 -1.33,-4.67 -2,-7c2.58,-4.51 2.58,-9.01 0,-13.5c0.82,-2.29 1.49,-4.62 2,-7c-1.09,-3.27 -1.76,-6.6 -2,-10z" fill="#e4e4e5" id="svg_102"/>
  </g>
  <g id="svg_103">
   <path d="m261.5,161.5c5.13,0.38 10.13,1.38 15,3c-4.68,11.7 -10.18,23.03 -16.5,34c-0.66,-7.84 -1.5,-15.5 -2.5,-23c0,-1 0,-2 0,-3c0,-3.67 0,-7.33 0,-11c1.33,0 2.67,0 4,0z" fill="#fba201" id="svg_104"/>
  </g>
  <g id="svg_105">
   <path d="m143.5,160.5c2.82,0.65 4.32,2.31 4.5,5c-1.76,-1.58 -3.26,-3.25 -4.5,-5z" fill="#34295c" id="svg_106"/>
  </g>
  <g id="svg_107">
   <path d="m241.5,168.5c-0.77,0.76 -1.27,1.76 -1.5,3c-0.5,5.99 -0.67,11.99 -0.5,18c-0.82,2.81 -1.32,5.81 -1.5,9c-2.02,-4.72 -4.52,-9.06 -7.5,-13c-2.73,-6.46 -5.73,-12.79 -9,-19c6.18,-3.18 12.85,-4.84 20,-5c0,2.33 0,4.67 0,7z" fill="#faa201" id="svg_108"/>
  </g>
  <g id="svg_109">
   <path d="m339.5,164.5c11.92,9.85 20.92,21.85 27,36c-13.94,6.76 -28.28,12.76 -43,18c-0.61,-0.89 -0.94,-1.89 -1,-3c-0.03,-1 0.47,-1.66 1.5,-2c2.72,-0.73 5.22,-1.73 7.5,-3c-3.67,0.67 -7.33,1.33 -11,2c-2.24,-4.14 -4.74,-8.14 -7.5,-12c-0.67,1 -0.67,2 0,3c2.36,2.72 4.19,5.72 5.5,9c0.03,1 -0.47,1.66 -1.5,2c-3.72,1.07 -7.22,2.4 -10.5,4c-5.95,1.15 -11.79,2.82 -17.5,5c-0.76,-0.07 -1.26,-0.4 -1.5,-1c16.96,-19.63 34.3,-38.97 52,-58z" fill="#f9a104" id="svg_110"/>
  </g>
  <g id="svg_111">
   <path d="m280.5,166.5c0.99,-0.17 1.66,0.16 2,1c-4.59,10.61 -9.09,21.28 -13.5,32c-0.98,2.24 -1.48,4.57 -1.5,7c-2.7,2.74 -4.37,6.07 -5,10c-0.67,0 -1.33,0 -2,0c-0.17,-5.34 0,-10.68 0.5,-16c5.92,-10.84 11.59,-21.84 17,-33c0.67,-0.75 1.5,-1.09 2.5,-1z" fill="#f9a100" id="svg_112"/>
  </g>
  <g id="svg_113">
   <path d="m396.5,221.5c-2.37,-9.11 -5.37,-18.11 -9,-27c-0.33,-0.67 -0.67,-1.33 -1,-2c-6.44,-15.26 -15.1,-29.1 -26,-41.5c0.67,-0.67 1.33,-0.67 2,0c10.75,12.01 19.09,25.51 25,40.5c2.07,-0.2 4.07,-0.37 6,-0.5c-1.83,0.9 -3.16,2.23 -4,4c3.88,8.45 6.21,17.29 7,26.5z" fill="#3d2c56" id="svg_114"/>
  </g>
  <g id="svg_115">
   <path d="m221.5,166.5c3.27,6.21 6.27,12.54 9,19c-0.86,-0.96 -1.53,-0.96 -2,0c1.43,1.83 1.93,3.83 1.5,6c-1.67,-3.33 -3.33,-6.67 -5,-10c-0.33,1 -0.67,2 -1,3c-0.67,-1.33 -1.33,-2.67 -2,-4c-0.48,0.95 -0.65,1.95 -0.5,3c-2.55,-3.6 -4.55,-7.6 -6,-12c-0.46,-0.8 -1.12,-1.13 -2,-1c2.35,-1.84 5.01,-3.17 8,-4z" fill="#9e6601" id="svg_116"/>
  </g>
  <g id="svg_117">
   <path d="m174.5,169.5c5.67,5.33 11.33,10.67 17,16c-0.24,1.9 -1.24,3.24 -3,4c-6,-5.33 -11.67,-11 -17,-17c-1.33,-3.33 -0.33,-4.33 3,-3z" fill="#190e4b" id="svg_118"/>
  </g>
  <g id="svg_119">
   <path d="m251.5,153.5c0,1.67 0,3.33 0,5c1.33,0 2.67,0 4,0c0.33,0 0.67,0 1,0c7.62,1.33 15.29,3 23,5c0,0.67 0.33,1 1,1c0.33,0 0.67,0 1,0c3.09,1.38 6.09,3.05 9,5c6.36,4.18 12.36,8.85 18,14c-0.33,1 -1,1.67 -2,2c-1.04,-2.56 -2.71,-4.72 -5,-6.5c-3.35,-3 -7.02,-5.5 -11,-7.5c-2.35,-1.84 -5.01,-3.17 -8,-4c-0.34,-0.84 -1.01,-1.17 -2,-1c-1.17,-0.84 -2.5,-1.51 -4,-2c-4.87,-1.62 -9.87,-2.62 -15,-3c-1.42,-0.95 -3.08,-1.28 -5,-1c-2.33,0 -4.67,0 -7,0c-0.33,0 -0.67,0 -1,0c-2,0 -4,0 -6,0c0.32,4.2 -0.02,8.2 -1,12c0,-1.33 0,-2.67 0,-4c0,-2.33 0,-4.67 0,-7c-7.15,0.16 -13.82,1.82 -20,5c-2.99,0.83 -5.65,2.16 -8,4c-0.67,0.33 -1.33,0.67 -2,1c-1.21,0.43 -2.21,1.1 -3,2c-3.46,2.28 -6.79,4.78 -10,7.5c-2.04,1.93 -3.71,4.09 -5,6.5c-1.76,0.76 -2.76,2.1 -3,4c-4.08,3.09 -3.75,5.93 1,8.5c-0.23,0.4 -0.56,0.56 -1,0.5c-1.31,-0.98 -2.65,-1.98 -4,-3c-0.59,0.21 -1.09,0.54 -1.5,1c-3.32,6.47 -6.16,13.14 -8.5,20c-0.33,-0.5 -0.67,-1 -1,-1.5c2.86,-8.09 6.19,-15.92 10,-23.5c1.76,-0.76 2.76,-2.1 3,-4c1.76,-0.76 2.76,-2.1 3,-4c5.48,-4.91 11.15,-9.57 17,-14c1.21,-0.43 2.21,-1.1 3,-2c0.67,-0.33 1.33,-0.67 2,-1c2.5,-1.08 4.83,-2.41 7,-4c7.04,-2.9 14.38,-4.57 22,-5c0,-1.67 0,-3.33 0,-5c0.33,0 0.67,0 1,0c0,1.33 0,2.67 0,4c1.33,0 2.67,0 4,0c0.33,0 0.67,0 1,0c1.53,-1.3 2.53,-2.97 3,-5z" fill="#34295b" id="svg_120"/>
  </g>
  <g id="svg_121">
   <path d="m256.5,160.5c1.92,-0.28 3.58,0.05 5,1c-1.33,0 -2.67,0 -4,0c0,3.67 0,7.33 0,11c-0.98,-3.8 -1.32,-7.8 -1,-12z" fill="#8c5e17" id="svg_122"/>
  </g>
  <g id="svg_123">
   <path d="m213.5,170.5c0.88,-0.13 1.54,0.2 2,1c1.45,4.4 3.45,8.4 6,12c1.76,6.75 4.43,13.08 8,19c2.5,7 4.83,14 7,21c-1.22,0.97 -2.55,0.8 -4,-0.5c-2.87,-2.7 -5.54,-5.54 -8,-8.5c-4.13,-14.39 -8.46,-28.73 -13,-43c0.67,-0.33 1.33,-0.67 2,-1z" fill="#f59f01" id="svg_124"/>
  </g>
  <g id="svg_125">
   <path d="m154.5,169.5c2.82,0.65 4.32,2.31 4.5,5c-2.2,-1.15 -3.7,-2.82 -4.5,-5z" fill="#3b2d5a" id="svg_126"/>
  </g>
  <g id="svg_127">
   <path d="m290.5,171.5c3.98,2 7.65,4.5 11,7.5c2.29,1.78 3.96,3.94 5,6.5c-9.64,8.64 -19.31,17.31 -29,26c-0.6,-0.24 -0.93,-0.74 -1,-1.5c3.8,-12.4 7.8,-24.73 12,-37c0.34,-1.03 1,-1.53 2,-1.5z" fill="#f7a002" id="svg_128"/>
  </g>
  <g id="svg_129">
   <path d="m171.5,172.5c5.33,6 11,11.67 17,17c-0.24,1.9 -1.24,3.24 -3,4c-1.33,-1 -2.67,-2 -4,-3c-3.99,-5.32 -8.32,-10.32 -13,-15c0.67,-1.33 1.67,-2.33 3,-3z" fill="#e8e6e3" id="svg_130"/>
  </g>
  <g id="svg_131">
   <path d="m208.5,173.5c1.25,0.08 2.08,0.74 2.5,2c3.81,11.23 7.31,22.56 10.5,34c-0.04,0.92 -0.38,1.58 -1,2c-9,-8 -18,-16 -27,-24c1.29,-2.41 2.96,-4.57 5,-6.5c3.21,-2.72 6.54,-5.22 10,-7.5z" fill="#f59e03" id="svg_132"/>
  </g>
  <g id="svg_133">
   <path d="m241.5,168.5c0,1.33 0,2.67 0,4c-0.53,5.82 -1.19,11.48 -2,17c-0.17,-6.01 0,-12.01 0.5,-18c0.23,-1.24 0.73,-2.24 1.5,-3z" fill="#a56a07" id="svg_134"/>
  </g>
  <g id="svg_135">
   <path d="m276.5,164.5c1.5,0.49 2.83,1.16 4,2c-1,-0.09 -1.83,0.25 -2.5,1c-5.41,11.16 -11.08,22.16 -17,33c-0.5,5.32 -0.67,10.66 -0.5,16c-0.33,0 -0.67,0 -1,0c-0.93,-13.65 -1.6,-27.31 -2,-41c1,7.5 1.84,15.16 2.5,23c6.32,-10.97 11.82,-22.3 16.5,-34z" fill="#8c5d10" id="svg_136"/>
  </g>
  <g id="svg_137">
   <path d="m282.5,167.5c2.99,0.83 5.65,2.16 8,4c-1,-0.03 -1.66,0.47 -2,1.5c-4.2,12.27 -8.2,24.6 -12,37c0.07,0.76 0.4,1.26 1,1.5c-0.47,1.41 -1.47,2.07 -3,2c1.96,-7.37 3.8,-14.71 5.5,-22c-2.83,7.83 -5.67,15.67 -8.5,23.5c0.07,0.76 0.4,1.26 1,1.5c0,0.67 -0.33,1 -1,1c-0.67,0 -1.33,0 -2,0c1.89,-6.17 3.89,-12.34 6,-18.5c-0.17,-0.5 -0.33,-1 -0.5,-1.5c-0.9,2.57 -2.06,4.9 -3.5,7c0.35,-2.37 0.52,-4.7 0.5,-7c-1.04,3.32 -2.54,6.32 -4.5,9c0.02,-2.43 0.52,-4.76 1.5,-7c4.41,-10.72 8.91,-21.39 13.5,-32z" fill="#9c6500" id="svg_138"/>
  </g>
  <g id="svg_139">
   <path d="m291.5,136.5c1.07,0.93 2.4,1.27 4,1c1.21,0.73 2.54,1.07 4,1c13.06,5.36 25.39,12.03 37,20c0.47,1.41 1.47,2.07 3,2c-0.07,1.53 0.59,2.53 2,3c10.88,10.22 19.88,21.88 27,35c-0.17,0.99 0.16,1.66 1,2c-0.27,1.6 0.07,2.93 1,4c4.38,9.86 7.05,20.2 8,31c0.28,1.91 -0.05,3.58 -1,5c-0.66,-12.63 -3.66,-24.63 -9,-36c-0.49,-1.5 -1.15,-2.83 -2,-4c-6.08,-14.15 -15.08,-26.15 -27,-36c0.06,-0.44 -0.1,-0.77 -0.5,-1c-1.57,2.42 -3.74,3.76 -6.5,4c1.31,-1.65 2.64,-3.31 4,-5c-0.36,-1.02 -1.02,-1.69 -2,-2c-10.45,-9.23 -22.45,-15.9 -36,-20c-2.51,-1.25 -5.17,-1.92 -8,-2c-8.75,-2.18 -17.75,-3.68 -27,-4.5c4.67,-0.67 9.33,-0.67 14,0c4.62,1.16 9.28,1.99 14,2.5z" fill="#3b2c5a" id="svg_140"/>
  </g>
  <g id="svg_141">
   <path d="m339.5,164.5c-17.7,19.03 -35.04,38.37 -52,58c-1.67,1 -3,2.33 -4,4c-0.67,1 -1.33,2 -2,3c-1.1,-1.6 -2.43,-3.1 -4,-4.5c1.54,-1.11 2.2,-2.61 2,-4.5c1.16,-2.74 3,-3.74 5.5,-3c2.93,-1.92 4.59,-4.59 5,-8c3.83,-1.1 7,-3.27 9.5,-6.5c-1,-2.09 -0.33,-3.76 2,-5c4.76,-0.75 7.26,-3.25 7.5,-7.5c1,-1.33 2,-1.33 3,0c0.48,-0.95 0.65,-1.95 0.5,-3c4.02,-0.53 6.19,-2.86 6.5,-7c1.56,-2.27 3.72,-3.43 6.5,-3.5c2.27,-1.56 3.43,-3.72 3.5,-6.5c1.04,-1.21 2.21,-2.21 3.5,-3c2.76,-0.24 4.93,-1.58 6.5,-4c0.4,0.23 0.56,0.56 0.5,1z" fill="#e7e5e3" id="svg_142"/>
  </g>
  <g id="svg_143">
   <path d="m230.5,185.5c2.98,3.94 5.48,8.28 7.5,13c0.18,-3.19 0.68,-6.19 1.5,-9c0,3.67 0,7.33 0,11c-0.78,1.84 -1.45,3.84 -2,6c0.9,3.96 0.9,7.96 0,12c-2.67,-5.33 -5.33,-10.67 -8,-16c-3.57,-5.92 -6.24,-12.25 -8,-19c-0.15,-1.05 0.02,-2.05 0.5,-3c0.67,1.33 1.33,2.67 2,4c0.33,-1 0.67,-2 1,-3c1.67,3.33 3.33,6.67 5,10c0.43,-2.17 -0.07,-4.17 -1.5,-6c0.47,-0.96 1.14,-0.96 2,0z" fill="#bc7900" id="svg_144"/>
  </g>
  <g id="svg_145">
   <path d="m334.5,160.5c0.98,0.31 1.64,0.98 2,2c-1.36,1.69 -2.69,3.35 -4,5c-1.29,0.79 -2.46,1.79 -3.5,3c-0.07,2.78 -1.23,4.94 -3.5,6.5c-2.78,0.07 -4.94,1.23 -6.5,3.5c-0.31,4.14 -2.48,6.47 -6.5,7c0.15,1.05 -0.02,2.05 -0.5,3c-1,-1.33 -2,-1.33 -3,0c-0.24,4.25 -2.74,6.75 -7.5,7.5c-2.33,1.24 -3,2.91 -2,5c-2.5,3.23 -5.67,5.4 -9.5,6.5c-0.41,3.41 -2.07,6.08 -5,8c-2.5,-0.74 -4.34,0.26 -5.5,3c-1.29,0.79 -2.46,1.79 -3.5,3c-1.97,-1.14 -3.81,-2.47 -5.5,-4c0.36,-0.68 0.7,-1.35 1,-2c0.67,0 1,-0.33 1,-1c0.9,-0.79 1.57,-1.79 2,-3c1.53,0.07 2.53,-0.59 3,-2c9.69,-8.69 19.36,-17.36 29,-26c1,-0.33 1.67,-1 2,-2c8.67,-7.67 17.33,-15.33 26,-23z" fill="#120c4d" id="svg_146"/>
  </g>
  <g id="svg_147">
   <path d="m248.5,160.5c-0.33,20.17 0,40.17 1,60c1.72,-0.04 2.06,0.29 1,1c-1.97,9.28 -2.64,18.94 -2,29c-1.67,0 -3.33,0 -5,0c-6.81,-0.99 -13.81,-1.32 -21,-1c-0.73,-5.97 1.6,-9.63 7,-11c3.6,-0.18 6.94,0.32 10,1.5c-0.5,-0.5 -1,-1 -1.5,-1.5c-0.34,-4.5 -0.51,-8.84 -0.5,-13c-0.67,3.81 -1.33,7.48 -2,11c-2,-2.67 -4.33,-5 -7,-7c-1.67,-1.33 -3.33,-2.67 -5,-4c-11,-11.33 -22,-22.67 -33,-34c0.24,-1.9 1.24,-3.24 3,-4c9,8 18,16 27,24c0.94,1.47 2.27,2.47 4,3c2.46,2.96 5.13,5.8 8,8.5c1.45,1.3 2.78,1.47 4,0.5c0.67,0 1,-0.33 1,-1c0.79,-1.11 1.29,-2.44 1.5,-4c0.5,-5.99 0.67,-11.99 0.5,-18c0,-3.67 0,-7.33 0,-11c0.81,-5.52 1.47,-11.18 2,-17c0.98,-3.8 1.32,-7.8 1,-12c2,0 4,0 6,0z" fill="#08064b" id="svg_148"/>
  </g>
  <g id="svg_149">
   <path d="m211.5,171.5c4.54,14.27 8.87,28.61 13,43c-1.73,-0.53 -3.06,-1.53 -4,-3c0.62,-0.42 0.96,-1.08 1,-2c-3.19,-11.44 -6.69,-22.77 -10.5,-34c-0.42,-1.26 -1.25,-1.92 -2.5,-2c0.79,-0.9 1.79,-1.57 3,-2z" fill="#8e5c01" id="svg_150"/>
  </g>
  <g id="svg_151">
   <path d="m113.5,193.5c4.34,2.56 9.01,4.56 14,6c0.13,0.74 -0.04,1.41 -0.5,2c-1.01,-0.84 -2.18,-1.17 -3.5,-1c-6.31,-3.15 -12.64,-6.32 -19,-9.5c3.11,0.21 6.11,1.04 9,2.5z" fill="#1c1200" id="svg_152"/>
  </g>
  <g id="svg_153">
   <path d="m387.5,194.5c3.63,8.89 6.63,17.89 9,27c1.32,8.61 1.99,17.28 2,26c-2,0 -4,0 -6,0c-4.13,-0.99 -8.47,-1.32 -13,-1c0.31,-3.87 -0.02,-7.54 -1,-11c-0.95,-10.8 -3.62,-21.14 -8,-31c5.07,-4.05 10.74,-7.38 17,-10z" fill="#f9a104" id="svg_154"/>
  </g>
  <g id="svg_155">
   <path d="m382.5,193.5c0.13,0.88 -0.2,1.54 -1,2c-4.03,1.67 -8.03,3.34 -12,5c-0.84,-0.34 -1.17,-1.01 -1,-2c4.46,-2.04 9.12,-3.71 14,-5z" fill="#7e5101" id="svg_156"/>
  </g>
  <g id="svg_157">
   <path d="m386.5,192.5c0.33,0.67 0.67,1.33 1,2c-6.26,2.62 -11.93,5.95 -17,10c-0.93,-1.07 -1.27,-2.4 -1,-4c3.97,-1.66 7.97,-3.33 12,-5c0.8,-0.46 1.13,-1.12 1,-2c1.33,-0.33 2.67,-0.67 4,-1z" fill="#312005" id="svg_158"/>
  </g>
  <g id="svg_159">
   <path d="m113.5,193.5c9.48,2.32 18.81,5.16 28,8.5c-2.53,-0.1 -4.86,0.06 -7,0.5c-2.41,-0.81 -4.75,-1.81 -7,-3c-4.99,-1.44 -9.66,-3.44 -14,-6z" fill="#956001" id="svg_160"/>
  </g>
  <g id="svg_161">
   <path d="m331.5,210.5c7.98,-3.6 16.31,-6.1 25,-7.5c-8.21,3.01 -16.54,5.51 -25,7.5z" fill="#784e01" id="svg_162"/>
  </g>
  <g id="svg_163">
   <path d="m368.5,204.5c5.34,11.37 8.34,23.37 9,36c0,1.67 0,3.33 0,5c-3,0 -6,0 -9,0c-1.33,0 -2.67,0 -4,0c-11.81,-1.47 -23.81,-2.47 -36,-3c-0.28,-5.39 -0.94,-10.72 -2,-16c13.68,-7.84 27.68,-15.17 42,-22z" fill="#fba201" id="svg_164"/>
  </g>
  <g id="svg_165">
   <path d="m59.5,204.5c1.17,-0.22 2.17,0.11 3,1c-0.9,3.31 -1.73,6.64 -2.5,10c-0.41,0.46 -0.91,0.79 -1.5,1c-3,-2.33 -5.67,-5 -8,-8c3.09,-1.35 6.09,-2.69 9,-4z" fill="#30265e" id="svg_166"/>
  </g>
  <g id="svg_167">
   <path d="m150.5,203.5c0.11,0.62 0.44,1.12 1,1.5c6.01,2 12.01,4 18,6c-6.97,-1.37 -13.97,-2.87 -21,-4.5c0.43,-1.21 1.1,-2.21 2,-3z" fill="#7c5004" id="svg_168"/>
  </g>
  <g id="svg_169">
   <path d="m197.5,207.5c-0.33,-0.67 -0.67,-1.33 -1,-2c0.4,-1.03 1.06,-1.19 2,-0.5c5.62,4.5 5.28,5.33 -1,2.5z" fill="#424079" id="svg_170"/>
  </g>
  <g id="svg_171">
   <path d="m127.5,199.5c2.25,1.19 4.59,2.19 7,3c4,1.67 8,3.33 12,5c-0.52,1.81 -1.19,3.47 -2,5c-6.84,-4.25 -13.84,-8.25 -21,-12c1.32,-0.17 2.49,0.16 3.5,1c0.46,-0.59 0.63,-1.26 0.5,-2z" fill="#563803" id="svg_172"/>
  </g>
  <g id="svg_173">
   <path d="m229.5,202.5c2.67,5.33 5.33,10.67 8,16c0,1.33 0,2.67 0,4c0,0.67 -0.33,1 -1,1c-2.17,-7 -4.5,-14 -7,-21z" fill="#895800" id="svg_174"/>
  </g>
  <g id="svg_175">
   <path d="m271.5,204.5c-1.33,4.67 -2.67,9.33 -4,14c-0.67,0 -1,-0.33 -1,-1c0.32,-4.96 1.99,-9.29 5,-13z" fill="#8a5a01" id="svg_176"/>
  </g>
  <g id="svg_177">
   <path d="m64.5,212.5c2.27,-1.26 4.61,-1.1 7,0.5c-2.38,0.56 -4.72,0.39 -7,-0.5z" fill="#3a2c5a" id="svg_178"/>
  </g>
  <g id="svg_179">
   <path d="m274.5,213.5c-0.43,1.21 -1.1,2.21 -2,3c-0.6,-0.24 -0.93,-0.74 -1,-1.5c2.83,-7.83 5.67,-15.67 8.5,-23.5c-1.7,7.29 -3.54,14.63 -5.5,22z" fill="#dc8e04" id="svg_180"/>
  </g>
  <g id="svg_181">
   <path d="m331.5,210.5c-2.28,1.27 -4.78,2.27 -7.5,3c-1.03,0.34 -1.53,1 -1.5,2c-0.9,-0.79 -1.57,-1.79 -2,-3c3.67,-0.67 7.33,-1.33 11,-2z" fill="#7d5104" id="svg_182"/>
  </g>
  <g id="svg_183">
   <path d="m146.5,212.5c7.05,4.19 14.38,7.86 22,11c6.35,3.84 13.02,7.18 20,10c0.56,1.29 1.56,2.12 3,2.5c-0.59,0.46 -1.26,0.63 -2,0.5c-1.88,-0.11 -2.21,0.39 -1,1.5c1.63,0.49 3.3,0.66 5,0.5c2.05,-0.83 3.72,-0.16 5,2c-5.19,-0.06 -10.36,0.28 -15.5,1c-1.5,-0.33 -3,-0.67 -4.5,-1c1.01,-0.9 1.01,-1.56 0,-2c-0.76,1.13 -1.43,2.29 -2,3.5c-5.85,0.17 -11.51,0.67 -17,1.5c-5.53,-0.15 -11.03,0.18 -16.5,1c-1.68,-0.11 -2.85,-0.78 -3.5,-2c1.3,-10.14 3.63,-20.14 7,-30z" fill="#f69f05" id="svg_184"/>
  </g>
  <g id="svg_185">
   <path d="m366.5,200.5c0.85,1.17 1.51,2.5 2,4c-14.32,6.83 -28.32,14.16 -42,22c-1.37,-2.44 -2.37,-5.1 -3,-8c14.72,-5.24 29.06,-11.24 43,-18z" fill="#7e5201" id="svg_186"/>
  </g>
  <g id="svg_187">
   <path d="m78.5,215.5c1.86,-1.29 3.86,-1.29 6,0c-1.96,1.02 -3.96,1.02 -6,0z" fill="#443058" id="svg_188"/>
  </g>
  <g id="svg_189">
   <path d="m271.5,204.5c-3.01,3.71 -4.68,8.04 -5,13c-0.67,0 -1.33,0 -2,0c0.8,-3.74 1.8,-7.4 3,-11c1.96,-2.68 3.46,-5.68 4.5,-9c0.02,2.3 -0.15,4.63 -0.5,7z" fill="#e89600" id="svg_190"/>
  </g>
  <g id="svg_191">
   <path d="m148.5,208.5c6,2.33 12,4.67 18,7c-0.55,1.19 -0.88,2.35 -1,3.5c1.33,0.67 2.67,1.33 4,2c-2.12,0.34 -2.45,1.18 -1,2.5c-7.62,-3.14 -14.95,-6.81 -22,-11c0.49,-1.5 1.16,-2.83 2,-4z" fill="#825401" id="svg_192"/>
  </g>
  <g id="svg_193">
   <path d="m168.5,175.5c4.68,4.68 9.01,9.68 13,15c1.33,1 2.67,2 4,3c-3.81,7.58 -7.14,15.41 -10,23.5c0.33,0.5 0.67,1 1,1.5c2.34,-6.86 5.18,-13.53 8.5,-20c0.41,-0.46 0.91,-0.79 1.5,-1c1.35,1.02 2.69,2.02 4,3c1.97,1.64 3.97,3.3 6,5c0.33,0.67 0.67,1.33 1,2c5.37,5.37 10.37,11.04 15,17c-3.86,-1.6 -7.86,-2.6 -12,-3c4.44,2.04 9.11,3.7 14,5c2.99,3.29 5.99,6.63 9,10c0.17,0.99 -0.16,1.66 -1,2c-1.87,-0.51 -3.7,-1.18 -5.5,-2c-1.76,0.44 -1.59,0.94 0.5,1.5c-2.21,0.19 -4.21,0.69 -6,1.5c-1.67,0 -3.33,0 -5,0c-1.44,-1.22 -3.1,-2.22 -5,-3c0.01,0.94 -0.49,1.61 -1.5,2c-3.8,-1.82 -7.63,-3.48 -11.5,-5c-0.96,-0.86 -0.96,-1.53 0,-2c2.47,1.75 5.14,2.59 8,2.5c-2,-1 -4,-2 -6,-3c-1.2,-0.65 -1.2,-1.15 0,-1.5c2.48,1.58 5.15,2.58 8,3c-3.81,-2.41 -7.81,-4.57 -12,-6.5c2.26,0.62 4.59,0.95 7,1c-9.03,-3.85 -18.03,-7.68 -27,-11.5c-6,-2.33 -12,-4.67 -18,-7c0,-0.67 0,-1.33 0,-2c7.03,1.63 14.03,3.13 21,4.5c-5.99,-2 -11.99,-4 -18,-6c-0.56,-0.38 -0.89,-0.88 -1,-1.5c3.55,-8.78 8.39,-16.78 14.5,-24c1.17,1.17 2.33,2.33 3.5,3.5c0.83,0.69 1.5,0.52 2,-0.5c-1.6,-1.29 -2.93,-2.79 -4,-4.5c0.14,-1.3 0.81,-2.13 2,-2.5z" fill="#f49e04" id="svg_194"/>
  </g>
  <g id="svg_195">
   <path d="m181.5,190.5c-0.28,0.79 -0.78,1.46 -1.5,2c-6.01,-5.58 -5.51,-6.24 1.5,-2z" fill="#3a2d59" id="svg_196"/>
  </g>
  <g id="svg_197">
   <path d="m200.5,221.5c-7.2,-1.46 -14.2,-3.62 -21,-6.5c7.31,1.27 14.31,3.44 21,6.5z" fill="#774d01" id="svg_198"/>
  </g>
  <g id="svg_199">
   <path d="m267.5,206.5c-1.2,3.6 -2.2,7.26 -3,11c-0.67,-0.33 -1.33,-0.67 -2,-1c0.63,-3.93 2.3,-7.26 5,-10z" fill="#946002" id="svg_200"/>
  </g>
  <g id="svg_201">
   <path d="m269.5,217.5c-0.34,0.84 -1.01,1.17 -2,1c1.33,-4.67 2.67,-9.33 4,-14c1.44,-2.1 2.6,-4.43 3.5,-7c0.17,0.5 0.33,1 0.5,1.5c-2.11,6.16 -4.11,12.33 -6,18.5z" fill="#ea9700" id="svg_202"/>
  </g>
  <g id="svg_203">
   <path d="m318.5,212.5c0.9,0.79 1.57,1.79 2,3c-4.68,1.01 -9.35,2.01 -14,3c3.28,-1.6 6.78,-2.93 10.5,-4c1.03,-0.34 1.53,-1 1.5,-2z" fill="#885907" id="svg_204"/>
  </g>
  <g id="svg_205">
   <path d="m320.5,215.5c0.8,1.54 1.13,3.21 1,5c-2.05,-0.1 -3.72,0.57 -5,2c-9.83,3.33 -19.5,7.17 -29,11.5c2,0 4,0 6,0c-2.53,1.76 -5.2,3.26 -8,4.5c-0.9,-0.71 -1.24,-1.71 -1,-3c-1.03,-2.02 -2.03,-4.02 -3,-6c0.67,-1 1.33,-2 2,-3c7.89,-2.3 15.56,-4.96 23,-8c4.65,-0.99 9.32,-1.99 14,-3z" fill="#f7a001" id="svg_206"/>
  </g>
  <g id="svg_207">
   <path d="m239.5,200.5c0.17,6.01 0,12.01 -0.5,18c-0.21,1.56 -0.71,2.89 -1.5,4c0,-1.33 0,-2.67 0,-4c0.9,-4.04 0.9,-8.04 0,-12c0.55,-2.16 1.22,-4.16 2,-6z" fill="#160a26" id="svg_208"/>
  </g>
  <g id="svg_209">
   <path d="m91.5,216.5c2.39,0.41 4.72,1.08 7,2c-1.33,0.67 -2.83,0.67 -4.5,0c-1.38,-0.18 -2.21,-0.85 -2.5,-2z" fill="#382b5b" id="svg_210"/>
  </g>
  <g id="svg_211">
   <path d="m190.5,191.5c11,11.33 22,22.67 33,34c1.67,1.33 3.33,2.67 5,4c-1.31,2.63 -2.98,4.97 -5,7c-3.01,-3.37 -6.01,-6.71 -9,-10c-0.33,-1 -1,-1.67 -2,-2c-4.63,-5.96 -9.63,-11.63 -15,-17c6.28,2.83 6.62,2 1,-2.5c-0.94,-0.69 -1.6,-0.53 -2,0.5c-2.03,-1.7 -4.03,-3.36 -6,-5c0.44,0.06 0.77,-0.1 1,-0.5c-4.75,-2.57 -5.08,-5.41 -1,-8.5z" fill="#e6e4e4" id="svg_212"/>
  </g>
  <g id="svg_213">
   <path d="m207.5,213.5c2.41,0.9 4.41,2.4 6,4.5c-3.23,0.29 -5.23,-1.21 -6,-4.5z" fill="#47457c" id="svg_214"/>
  </g>
  <g id="svg_215">
   <path d="m105.5,219.5c2.56,-0.11 4.89,0.56 7,2c-0.5,0.33 -1,0.67 -1.5,1c-2.45,-0.2 -4.28,-1.2 -5.5,-3z" fill="#4f3654" id="svg_216"/>
  </g>
  <g id="svg_217">
   <path d="m306.5,218.5c-7.44,3.04 -15.11,5.7 -23,8c1,-1.67 2.33,-3 4,-4c0.24,0.6 0.74,0.93 1.5,1c5.71,-2.18 11.55,-3.85 17.5,-5z" fill="#7c5208" id="svg_218"/>
  </g>
  <g id="svg_219">
   <path d="m267.5,221.5c3.69,-0.18 5.69,1.49 6,5c-2.89,1.4 -4.39,3.73 -4.5,7c-1.26,2.11 -3.1,3.11 -5.5,3c-0.98,-3.12 -1.31,-6.46 -1,-10c1.33,-2 3,-3.67 5,-5z" fill="#09084e" id="svg_220"/>
  </g>
  <g id="svg_221">
   <path d="m250.5,221.5c1.19,3.88 0.86,7.71 -1,11.5c2.49,4.37 2.49,8.7 0,13c0.18,1.38 0.85,2.21 2,2.5c-0.94,2.19 -2.61,3.52 -5,4c-9.82,-0.99 -19.82,-1.33 -30,-1c8.82,-0.99 17.82,-1.33 27,-1c1.67,0 3.33,0 5,0c-0.64,-10.06 0.03,-19.72 2,-29z" fill="#424052" id="svg_222"/>
  </g>
  <g id="svg_223">
   <path d="m119.5,223.5c0.23,-0.6 0.73,-0.93 1.5,-1c1.5,0.5 3,1 4.5,1.5c-2.1,0.68 -4.1,0.51 -6,-0.5z" fill="#372c5a" id="svg_224"/>
  </g>
  <g id="svg_225">
   <path d="m200.5,221.5c4.14,0.4 8.14,1.4 12,3c1,0.33 1.67,1 2,2c-4.89,-1.3 -9.56,-2.96 -14,-5z" fill="#805405" id="svg_226"/>
  </g>
  <g id="svg_227">
   <path d="m223.5,225.5c-0.02,1.53 -0.68,2.03 -2,1.5c-1.83,-1.11 -2.66,-2.61 -2.5,-4.5c1.13,1.64 2.63,2.64 4.5,3z" fill="#353370" id="svg_228"/>
  </g>
  <g id="svg_229">
   <path d="m260.5,218.5c3.08,-0.32 5.41,0.68 7,3c-2,1.33 -3.67,3 -5,5c-0.33,0 -0.67,0 -1,0c-0.97,-2.45 -1.31,-5.12 -1,-8z" fill="#905e10" id="svg_230"/>
  </g>
  <g id="svg_231">
   <path d="m259.5,216.5c0.33,0 0.67,0 1,0c0.67,0 1.33,0 2,0c0.67,0.33 1.33,0.67 2,1c0.67,0 1.33,0 2,0c0,0.67 0.33,1 1,1c0.99,0.17 1.66,-0.16 2,-1c0.67,0 1.33,0 2,0c-0.3,0.65 -0.64,1.32 -1,2c1.69,1.53 3.53,2.86 5.5,4c1.04,-1.21 2.21,-2.21 3.5,-3c0.2,1.89 -0.46,3.39 -2,4.5c1.57,1.4 2.9,2.9 4,4.5c0.97,1.98 1.97,3.98 3,6c-0.67,0 -1.33,0 -2,0c-0.53,-1.73 -1.53,-3.06 -3,-4c-1.02,-3.4 -3.02,-5.06 -6,-5c-0.31,-3.51 -2.31,-5.18 -6,-5c-1.59,-2.32 -3.92,-3.32 -7,-3c-1.27,-0.59 -2.6,-1.09 -4,-1.5c0.95,-0.48 1.95,-0.65 3,-0.5z" fill="#362f66" id="svg_232"/>
  </g>
  <g id="svg_233">
   <path d="m321.5,220.5c1.79,1.93 2.79,4.26 3,7c-0.67,0 -1.33,0 -2,0c1.05,-2.16 0.39,-2.49 -2,-1c-0.33,-0.67 -0.67,-1.33 -1,-2c-5.22,1.08 -5.22,0.58 0,-1.5c-0.95,-0.48 -1.95,-0.65 -3,-0.5c1.28,-1.43 2.95,-2.1 5,-2z" fill="#8f5d04" id="svg_234"/>
  </g>
  <g id="svg_235">
   <path d="m132.5,226.5c2.35,-1.4 4.68,-1.23 7,0.5c-2.43,0.7 -4.76,0.54 -7,-0.5z" fill="#4d3555" id="svg_236"/>
  </g>
  <g id="svg_237">
   <path d="m229.5,238.5c-1.48,0.26 -2.81,-0.07 -4,-1c0.12,-0.61 0.46,-0.94 1,-1c3,1.33 6,1.33 9,0c0.67,-3.52 1.33,-7.19 2,-11c-0.01,4.16 0.16,8.5 0.5,13c0.5,0.5 1,1 1.5,1.5c-3.06,-1.18 -6.4,-1.68 -10,-1.5z" fill="#16162a" id="svg_238"/>
  </g>
  <g id="svg_239">
   <path d="m273.5,226.5c2.98,-0.06 4.98,1.6 6,5c-2.33,1.67 -4.33,3.67 -6,6c-3.54,0.31 -6.87,-0.02 -10,-1c2.4,0.11 4.24,-0.89 5.5,-3c0.11,-3.27 1.61,-5.6 4.5,-7z" fill="#eaeaea" id="svg_240"/>
  </g>
  <g id="svg_241">
   <path d="m322.5,227.5c0.67,0 1.33,0 2,0c1.5,3.83 2.17,7.83 2,12c-3.87,1.93 -8.21,2.6 -13,2c-8.62,-1.11 -17.29,-1.77 -26,-2c4.28,-2.72 8.78,-5.06 13.5,-7c0.62,0.95 0.45,1.78 -0.5,2.5c1,0.33 2,0.67 3,1c-1.2,0.65 -1.2,1.15 0,1.5c6.55,-3.11 12.89,-6.44 19,-10z" fill="#f19c01" id="svg_242"/>
  </g>
  <g id="svg_243">
   <path d="m166.5,215.5c8.97,3.82 17.97,7.65 27,11.5c-2.41,-0.05 -4.74,-0.38 -7,-1c4.19,1.93 8.19,4.09 12,6.5c-2.85,-0.42 -5.52,-1.42 -8,-3c-1.2,0.35 -1.2,0.85 0,1.5c2,1 4,2 6,3c-2.86,0.09 -5.53,-0.75 -8,-2.5c-0.96,0.47 -0.96,1.14 0,2c-6.98,-2.82 -13.65,-6.16 -20,-10c-1.45,-1.32 -1.12,-2.16 1,-2.5c-1.33,-0.67 -2.67,-1.33 -4,-2c0.12,-1.15 0.45,-2.31 1,-3.5z" fill="#a26900" id="svg_244"/>
  </g>
  <g id="svg_245">
   <path d="m146.5,229.5c1.86,-1.29 3.86,-1.29 6,0c-1.96,1.02 -3.96,1.02 -6,0z" fill="#433057" id="svg_246"/>
  </g>
  <g id="svg_247">
   <path d="m159.5,230.5c2.46,0.2 4.79,0.87 7,2c-1.33,0.67 -2.83,0.67 -4.5,0c-1.38,-0.18 -2.21,-0.85 -2.5,-2z" fill="#473256" id="svg_248"/>
  </g>
  <g id="svg_249">
   <path d="m279.5,231.5c1.47,0.94 2.47,2.27 3,4c0.61,0.89 0.94,1.89 1,3c-3.43,-0.29 -6.76,-0.62 -10,-1c1.67,-2.33 3.67,-4.33 6,-6z" fill="#df9211" id="svg_250"/>
  </g>
  <g id="svg_251">
   <path d="m316.5,222.5c1.05,-0.15 2.05,0.02 3,0.5c-5.22,2.08 -5.22,2.58 0,1.5c0.33,0.67 0.67,1.33 1,2c2.39,-1.49 3.05,-1.16 2,1c-6.11,3.56 -12.45,6.89 -19,10c-1.2,-0.35 -1.2,-0.85 0,-1.5c-1,-0.33 -2,-0.67 -3,-1c0.95,-0.72 1.12,-1.55 0.5,-2.5c-4.72,1.94 -9.22,4.28 -13.5,7c-0.99,0.17 -1.66,-0.16 -2,-1c2.8,-1.24 5.47,-2.74 8,-4.5c-2,0 -4,0 -6,0c9.5,-4.33 19.17,-8.17 29,-11.5z" fill="#ab6f00" id="svg_252"/>
  </g>
  <g id="svg_253">
   <path d="m173.5,233.5c2.39,0.41 4.72,1.08 7,2c-0.5,0.33 -1,0.67 -1.5,1c-2.45,-0.2 -4.28,-1.2 -5.5,-3z" fill="#433057" id="svg_254"/>
  </g>
  <g id="svg_255">
   <path d="m198.5,232.5c3.74,-0.16 3.74,-0.99 0,-2.5c4.17,0.5 8.17,1.84 12,4c-2.67,-0.33 -5.33,-0.67 -8,-1c1.5,1.25 3.17,2.25 5,3c-3.42,-0.04 -6.42,-1.21 -9,-3.5z" fill="#835401" id="svg_256"/>
  </g>
  <g id="svg_257">
   <path d="m235.5,236.5c-3,1.33 -6,1.33 -9,0c0.36,-1.37 1.19,-2.37 2.5,-3c1.86,1.7 4.03,2.7 6.5,3z" fill="#e4e4e8" id="svg_258"/>
  </g>
  <g id="svg_259">
   <path d="m188.5,233.5c3.87,1.52 7.7,3.18 11.5,5c1.01,-0.39 1.51,-1.06 1.5,-2c1.9,0.78 3.56,1.78 5,3c-2.74,-0.1 -5.4,0.24 -8,1c-1.28,-2.16 -2.95,-2.83 -5,-2c-1.33,-0.67 -2.67,-1.33 -4,-2c0.74,0.13 1.41,-0.04 2,-0.5c-1.44,-0.38 -2.44,-1.21 -3,-2.5z" fill="#875809" id="svg_260"/>
  </g>
  <g id="svg_261">
   <path d="m189.5,236.5c1.33,0.67 2.67,1.33 4,2c-1.7,0.16 -3.37,-0.01 -5,-0.5c-1.21,-1.11 -0.88,-1.61 1,-1.5z" fill="#292461" id="svg_262"/>
  </g>
  <g id="svg_263">
   <path d="m222.5,238.5c0,0.33 0,0.67 0,1c-3.33,0 -6.67,0 -10,0c-0.33,0 -0.67,0 -1,0c1.79,-0.81 3.79,-1.31 6,-1.5c-2.09,-0.56 -2.26,-1.06 -0.5,-1.5c1.8,0.82 3.63,1.49 5.5,2z" fill="#40290a" id="svg_264"/>
  </g>
  <g id="svg_265">
   <path d="m261.5,226.5c0.33,0 0.67,0 1,0c-0.31,3.54 0.02,6.88 1,10c3.13,0.98 6.46,1.31 10,1c3.24,0.38 6.57,0.71 10,1c-7.18,1.1 -14.51,1.1 -22,0c0,-4 0,-8 0,-12z" fill="#1d171f" id="svg_266"/>
  </g>
  <g id="svg_267">
   <path d="m212.5,239.5c3.33,0 6.67,0 10,0c0.09,1 -0.25,1.83 -1,2.5c-9.21,0.57 -9.21,1.4 0,2.5c0,1.67 0,3.33 0,5c-2,0 -4,0 -6,0c-0.33,-4 -0.67,-4 -1,0c-12.33,0 -24.67,0 -37,0c0.17,-2.36 0.51,-4.69 1,-7c9.67,-0.36 19.34,-0.86 29,-1.5c1.88,-0.2 3.55,-0.7 5,-1.5z" fill="#00014d" id="svg_268"/>
  </g>
  <g id="svg_269">
   <path d="m378.5,235.5c0.98,3.46 1.31,7.13 1,11c4.53,-0.32 8.87,0.01 13,1c-4.38,-0.33 -8.72,0.01 -13,1c6.49,0.67 12.82,1.33 19,2c-6.33,0 -12.67,0 -19,0c0,1 0,2 0,3c4.33,0 8.67,0 13,0c-4.13,0.99 -8.47,1.32 -13,1c0.16,5.93 -0.51,11.76 -2,17.5c0.33,1.17 0.67,2.33 1,3.5c2.04,0.54 4.04,1.21 6,2c-2.56,0.28 -5.22,0.45 -8,0.5c-0.75,2.18 -1.59,4.34 -2.5,6.5c1.9,-9.51 3.06,-19.18 3.5,-29c-3,0 -6,0 -9,0c2.79,-0.98 5.79,-1.31 9,-1c0.93,-1.07 1.27,-2.4 1,-4c-16.33,0 -32.67,0 -49,0c0,-0.33 0,-0.67 0,-1c16.33,0 32.67,0 49,0c0,-1 0,-2 0,-3c-3.54,0.31 -6.87,-0.02 -10,-1c3,0 6,0 9,0c0,-1.67 0,-3.33 0,-5c0.95,-1.42 1.28,-3.09 1,-5z" fill="#2d2135" id="svg_270"/>
  </g>
  <g id="svg_271">
   <path d="m326.5,239.5c0.9,0.71 1.24,1.71 1,3c-2,0 -4,0 -6,0c-2.88,0.31 -5.55,-0.03 -8,-1c4.79,0.6 9.13,-0.07 13,-2z" fill="#2f2014" id="svg_272"/>
  </g>
  <g id="svg_273">
   <path d="m198.5,240.5c2.6,-0.76 5.26,-1.1 8,-1c1.67,0 3.33,0 5,0c0.33,0 0.67,0 1,0c-1.45,0.8 -3.12,1.3 -5,1.5c-9.66,0.64 -19.33,1.14 -29,1.5c-0.49,2.31 -0.83,4.64 -1,7c12.33,0 24.67,0 37,0c0,0.67 0,1.33 0,2c-12.51,-0.33 -24.84,0 -37,1c-0.67,-0.33 -1.33,-0.67 -2,-1c-12,0 -24,0 -36,0c11.96,-1.98 24.29,-2.65 37,-2c0,-2 0,-4 0,-6c-5.67,0 -11.33,0 -17,0c5.49,-0.83 11.15,-1.33 17,-1.5c0.57,-1.21 1.24,-2.37 2,-3.5c1.01,0.44 1.01,1.1 0,2c1.5,0.33 3,0.67 4.5,1c5.14,-0.72 10.31,-1.06 15.5,-1z" fill="#26223e" id="svg_274"/>
  </g>
  <g id="svg_275">
   <path d="m328.5,243.5c11.98,0.95 23.98,1.62 36,2c1.33,0 2.67,0 4,0c3.13,0.98 6.46,1.31 10,1c0,1 0,2 0,3c-16.33,0 -32.67,0 -49,0c-0.96,-1.76 -1.3,-3.76 -1,-6z" fill="#00004b" id="svg_276"/>
  </g>
  <g id="svg_277">
   <path d="m328.5,243.5c0,-0.33 0,-0.67 0,-1c12.19,0.53 24.19,1.53 36,3c-12.02,-0.38 -24.02,-1.05 -36,-2z" fill="#140c18" id="svg_278"/>
  </g>
  <g id="svg_279">
   <path d="m138.5,244.5c-1.11,0.79 -2.44,1.29 -4,1.5c-5.32,0.5 -10.66,0.67 -16,0.5c6.49,-0.94 13.16,-1.61 20,-2z" fill="#1b0f1f" id="svg_280"/>
  </g>
  <g id="svg_281">
   <path d="m82.5,247.5c0,1 0,2 0,3c-6.85,0.32 -13.52,-0.01 -20,-1c5.92,0.62 10.75,-1.38 14.5,-6c0.87,2.72 2.71,4.05 5.5,4z" fill="#110637" id="svg_282"/>
  </g>
  <g id="svg_283">
   <path d="m138.5,240.5c0.84,0.34 1.17,1.01 1,2c0.65,1.22 1.82,1.89 3.5,2c5.47,-0.82 10.97,-1.15 16.5,-1c5.67,0 11.33,0 17,0c0,2 0,4 0,6c-12.71,-0.65 -25.04,0.02 -37,2c-0.13,1.79 0.2,3.46 1,5c-0.67,2 -1.33,4 -2,6c0,-2.33 0,-4.67 0,-7c0,-1.33 0,-2.67 0,-4c0,-0.67 -0.33,-1 -1,-1c-14.49,-0.83 -29.16,-1.33 -44,-1.5c7.9,-0.07 15.57,-0.91 23,-2.5c0.67,0 1.33,0 2,0c5.34,0.17 10.68,0 16,-0.5c1.56,-0.21 2.89,-0.71 4,-1.5c0,-1.33 0,-2.67 0,-4z" fill="#05054a" id="svg_284"/>
  </g>
  <g id="svg_285">
   <path d="m228.5,229.5c2.67,2 5,4.33 7,7c-2.47,-0.3 -4.64,-1.3 -6.5,-3c-1.31,0.63 -2.14,1.63 -2.5,3c-0.54,0.06 -0.88,0.39 -1,1c1.19,0.93 2.52,1.26 4,1c-5.4,1.37 -7.73,5.03 -7,11c7.19,-0.32 14.19,0.01 21,1c-9.18,-0.33 -18.18,0.01 -27,1c0.37,3.8 1.71,7.13 4,10c0.91,4.14 2.57,4.64 5,1.5c1.29,-0.49 2.63,-0.66 4,-0.5c4.25,0.69 7.92,-0.31 11,-3c-0.52,2.53 -1.52,4.86 -3,7c0.77,2.62 1.1,5.28 1,8c8,0.67 8,1.33 0,2c-0.33,0 -0.67,0 -1,0c-0.71,-0.9 -1.71,-1.24 -3,-1c-3.14,-2.97 -5.97,-2.63 -8.5,1c-0.38,-0.56 -0.88,-0.89 -1.5,-1c3,-3.99 2,-6.66 -3,-8c-0.23,-1.56 -0.9,-2.89 -2,-4c-0.33,-1 -1,-1.67 -2,-2c-1,-3.33 -2,-6.67 -3,-10c0,-0.67 0,-1.33 0,-2c0.33,-4 0.67,-4 1,0c2,0 4,0 6,0c0,-1.67 0,-3.33 0,-5c-9.21,-1.1 -9.21,-1.93 0,-2.5c0.75,-0.67 1.09,-1.5 1,-2.5c0,-0.33 0,-0.67 0,-1c0.84,-0.34 1.17,-1.01 1,-2c2.02,-2.03 3.69,-4.37 5,-7z" fill="#221f59" id="svg_286"/>
  </g>
  <g id="svg_287">
   <path d="m425.5,247.5c0.11,0.62 0.44,1.12 1,1.5c-3,0.67 -6,0.67 -9,0c0.56,-0.38 0.89,-0.88 1,-1.5c2.16,-3.79 4.5,-3.79 7,0z" fill="#0f0441" id="svg_288"/>
  </g>
  <g id="svg_289">
   <path d="m84.5,238.5c0,3 0,6 0,9c2.67,0 5.33,0 8,0c-2.79,0.98 -5.79,1.31 -9,1c-0.31,-3.54 0.02,-6.87 1,-10z" fill="#8e5d1d" id="svg_290"/>
  </g>
  <g id="svg_291">
   <path d="m396.5,221.5c2.56,8.34 3.9,17.01 4,26c1.11,0.79 2.44,1.29 4,1.5c-1.56,0.21 -2.89,0.71 -4,1.5c0,0.33 0,0.67 0,1c-0.99,0.17 -1.66,-0.16 -2,-1c-6.18,-0.67 -12.51,-1.33 -19,-2c4.28,-0.99 8.62,-1.33 13,-1c2,0 4,0 6,0c-0.01,-8.72 -0.68,-17.39 -2,-26z" fill="#1e124e" id="svg_292"/>
  </g>
  <g id="svg_293">
   <path d="m116.5,246.5c-7.43,1.59 -15.1,2.43 -23,2.5c14.84,0.17 29.51,0.67 44,1.5c-18,0 -36,0 -54,0c0,-0.67 0,-1.33 0,-2c3.21,0.31 6.21,-0.02 9,-1c8.01,-0.14 16.01,-0.48 24,-1z" fill="#070429" id="svg_294"/>
  </g>
  <g id="svg_295">
   <path d="m400.5,247.5c6.03,1.16 12.03,1.16 18,0c-0.11,0.62 -0.44,1.12 -1,1.5c3,0.67 6,0.67 9,0c-0.56,-0.38 -0.89,-0.88 -1,-1.5c3.56,1.27 7.23,2.27 11,3c-2.24,0.97 -4.58,1.31 -7,1c-9.49,-0.99 -19.15,-1.33 -29,-1c1.11,-0.79 2.44,-1.29 4,-1.5c-1.56,-0.21 -2.89,-0.71 -4,-1.5z" fill="#130d1c" id="svg_296"/>
  </g>
  <g id="svg_297">
   <path d="m62.5,249.5c6.48,0.99 13.15,1.32 20,1c0.33,0 0.67,0 1,0c18,0 36,0 54,0c0.67,0 1,0.33 1,1c-16.51,-0.33 -32.84,0 -49,1c-5.59,-0.76 -9.76,1.24 -12.5,6c-0.51,-1.03 -1.01,-2.03 -1.5,-3c2.1,-0.91 4.1,-2.08 6,-3.5c-3.53,-0.81 -6.86,-0.64 -10,0.5c-3.41,-0.24 -6.75,-0.9 -10,-2c0.12,-0.61 0.46,-0.94 1,-1z" fill="#5c5346" id="svg_298"/>
  </g>
  <g id="svg_299">
   <path d="m259.5,250.5c6.67,0 13.33,0 20,0c0,0.33 0,0.67 0,1c-6.09,-0.29 -12.09,0.04 -18,1c-0.67,-0.67 -1.33,-1.33 -2,-2z" fill="#909091" id="svg_300"/>
  </g>
  <g id="svg_301">
   <path d="m281.5,251.5c0,-0.33 0,-0.67 0,-1c15.33,0 30.67,0 46,0c0.27,1.6 -0.07,2.93 -1,4c0,-1 0,-2 0,-3c-15,0 -30,0 -45,0z" fill="#909091" id="svg_302"/>
  </g>
  <g id="svg_303">
   <path d="m329.5,250.5c16.33,0 32.67,0 49,0c0.27,1.6 -0.07,2.93 -1,4c0,-1 0,-2 0,-3c-16,0 -32,0 -48,0c0.24,1.29 -0.1,2.29 -1,3c-0.27,-1.6 0.07,-2.93 1,-4z" fill="#909093" id="svg_304"/>
  </g>
  <g id="svg_305">
   <path d="m400.5,251.5c0,-0.33 0,-0.67 0,-1c9.85,-0.33 19.51,0.01 29,1c-1.01,1.17 -2.35,1.84 -4,2c0.11,-0.62 0.44,-1.12 1,-1.5c-3.33,-0.67 -6.67,-0.67 -10,0c0.92,0.28 1.58,0.78 2,1.5c-7.63,-0.75 -15.3,-0.75 -23,0c2.13,-0.81 4.46,-1.31 7,-1.5c-0.59,-0.46 -1.26,-0.63 -2,-0.5z" fill="#817769" id="svg_306"/>
  </g>
  <g id="svg_307">
   <path d="m281.5,251.5c15,0 30,0 45,0c0,1 0,2 0,3c0,1.33 0,2.67 0,4c-5.38,-0.18 -10.71,0.16 -16,1c-5.19,-0.32 -10.19,0.01 -15,1c-5.38,-0.18 -10.71,0.16 -16,1c0.98,-3.26 1.65,-6.6 2,-10z" fill="#efefef" id="svg_308"/>
  </g>
  <g id="svg_309">
   <path d="m377.5,254.5c-3.21,-0.31 -6.21,0.02 -9,1c-1,0 -2,0 -3,0c-8.52,0.16 -16.86,0.82 -25,2c-0.67,0 -1.33,0 -2,0c-3.33,0 -6.67,0 -10,0c0,-1 0,-2 0,-3c0.9,-0.71 1.24,-1.71 1,-3c16,0 32,0 48,0c0,1 0,2 0,3z" fill="#ececec" id="svg_310"/>
  </g>
  <g id="svg_311">
   <path d="m425.5,253.5c-1.88,0.21 -3.22,1.21 -4,3c-1.36,-0.69 -2.36,-1.69 -3,-3c-0.42,-0.72 -1.08,-1.22 -2,-1.5c3.33,-0.67 6.67,-0.67 10,0c-0.56,0.38 -0.89,0.88 -1,1.5z" fill="#dbd8d4" id="svg_312"/>
  </g>
  <g id="svg_313">
   <path d="m75.5,255.5c-1.37,-1.01 -2.7,-2.01 -4,-3c3.14,-1.14 6.47,-1.31 10,-0.5c-1.9,1.42 -3.9,2.59 -6,3.5z" fill="#d4cfc8" id="svg_314"/>
  </g>
  <g id="svg_315">
   <path d="m89.5,252.5c16.16,-1 32.49,-1.33 49,-1c0,1.33 0,2.67 0,4c-16.41,-0.13 -32.74,-1.13 -49,-3z" fill="#c4bfb9" id="svg_316"/>
  </g>
  <g id="svg_317">
   <path d="m139.5,251.5c12,0 24,0 36,0c0,2.33 0,4.67 0,7c-11.7,-0.16 -23.37,-0.82 -35,-2c-0.8,-1.54 -1.13,-3.21 -1,-5z" fill="#dcd9d6" id="svg_318"/>
  </g>
  <g id="svg_319">
   <path d="m214.5,251.5c1,3.33 2,6.67 3,10c-6.31,-0.69 -12.64,-1.02 -19,-1c-6.79,-1.37 -13.79,-2.04 -21,-2c0,-2 0,-4 0,-6c12.16,-1 24.49,-1.33 37,-1z" fill="#f1f1f1" id="svg_320"/>
  </g>
  <g id="svg_321">
   <path d="m216.5,251.5c10.18,-0.33 20.18,0.01 30,1c-2,2.33 -4,4.67 -6,7c-3.08,2.69 -6.75,3.69 -11,3c-2.79,-0.98 -5.79,-1.31 -9,-1c-2.29,-2.87 -3.63,-6.2 -4,-10z" fill="#efeff0" id="svg_322"/>
  </g>
  <g id="svg_323">
   <path d="m398.5,250.5c0.34,0.84 1.01,1.17 2,1c0.74,-0.13 1.41,0.04 2,0.5c-2.54,0.19 -4.87,0.69 -7,1.5c-1,0 -2,0 -3,0c-4.33,0 -8.67,0 -13,0c0,-1 0,-2 0,-3c6.33,0 12.67,0 19,0z" fill="#c8c8c8" id="svg_324"/>
  </g>
  <g id="svg_325">
   <path d="m279.5,251.5c-0.19,3.1 -0.86,6.1 -2,9c-5.89,3.24 -11.23,2.57 -16,-2c-0.33,0.17 -0.67,0.33 -1,0.5c1,1 2,2 3,3c-0.54,0.72 -1.21,1.22 -2,1.5c-0.92,4.5 -1.59,9.16 -2,14c-2.93,0.8 -5.93,1.13 -9,1c1.33,-7 1.33,-14 0,-21c0.8,-1.45 1.3,-3.12 1.5,-5c1,0.67 2,1.33 3,2c1.75,-1.75 3.92,-2.42 6.5,-2c5.91,-0.96 11.91,-1.29 18,-1z" fill="#eeeef0" id="svg_326"/>
  </g>
  <g id="svg_327">
   <path d="m268.5,253.5c2.43,0.02 4.76,0.52 7,1.5c-1.17,0.17 -2.33,0.33 -3.5,0.5c-1.68,-0.11 -2.85,-0.78 -3.5,-2z" fill="#32306e" id="svg_328"/>
  </g>
  <g id="svg_329">
   <path d="m282.5,235.5c0.67,0 1.33,0 2,0c-0.24,1.29 0.1,2.29 1,3c0.34,0.84 1.01,1.17 2,1c8.71,0.23 17.38,0.89 26,2c2.45,0.97 5.12,1.31 8,1c1.76,0.96 3.76,1.29 6,1c0,2 0,4 0,6c-27.35,-0.35 -50.02,-0.01 -68,1c0.67,0.67 1.33,1.33 2,2c-2.58,-0.42 -4.75,0.25 -6.5,2c-1,-0.67 -2,-1.33 -3,-2c-0.2,1.88 -0.7,3.55 -1.5,5c0.35,-2.27 0.02,-3.6 -1,-4c-1,26.16 -1.33,52.5 -1,79c-2,0 -4,0 -6,0c0.3,-2.56 -0.03,-4.89 -1,-7c-1.04,-7.15 -1.7,-14.49 -2,-22c0,-1.33 0,-2.67 0,-4c-0.02,-7.68 -0.36,-15.35 -1,-23c8,-0.67 8,-1.33 0,-2c0.1,-2.72 -0.23,-5.38 -1,-8c1.48,-2.14 2.48,-4.47 3,-7c2,-2.33 4,-4.67 6,-7c2.39,-0.48 4.06,-1.81 5,-4c3,-3.67 6.33,-7 10,-10c7.49,1.1 14.82,1.1 22,0c-0.06,-1.11 -0.39,-2.11 -1,-3z" fill="#04024a" id="svg_330"/>
  </g>
  <g id="svg_331">
   <path d="m365.5,255.5c-8.11,1.68 -16.44,2.34 -25,2c8.14,-1.18 16.48,-1.84 25,-2z" fill="#7c5517" id="svg_332"/>
  </g>
  <g id="svg_333">
   <path d="m140.5,256.5c11.63,1.18 23.3,1.84 35,2c0.35,7.13 1.35,14.13 3,21c-10.6,4.2 -21.27,8.2 -32,12c0,-0.67 0,-1.33 0,-2c29.39,-14.8 29.06,-15.47 -1,-2c-3.29,-10.06 -4.96,-20.4 -5,-31z" fill="#f9a101" id="svg_334"/>
  </g>
  <g id="svg_335">
   <path d="m282.5,256.5c2.1,-0.3 4.1,0.03 6,1c-1,0.33 -2,0.67 -3,1c-1.53,-0.14 -2.53,-0.81 -3,-2z" fill="#4e4b81" id="svg_336"/>
  </g>
  <g id="svg_337">
   <path d="m177.5,259.5c0,-0.33 0,-0.67 0,-1c7.21,-0.04 14.21,0.63 21,2c-0.67,0 -1.33,0 -2,0c-6.33,-0.4 -12.66,-0.73 -19,-1z" fill="#4e412d" id="svg_338"/>
  </g>
  <g id="svg_339">
   <path d="m295.5,260.5c4.81,-0.99 9.81,-1.32 15,-1c-2.67,0.67 -5.33,1.33 -8,2c-1.33,0 -2.67,0 -4,0c-0.33,0 -0.67,0 -1,0c-0.34,-0.84 -1.01,-1.17 -2,-1z" fill="#3d2b45" id="svg_340"/>
  </g>
  <g id="svg_341">
   <path d="m295.5,260.5c0.99,-0.17 1.66,0.16 2,1c-6.49,-0.42 -12.82,0.25 -19,2c0.33,-0.67 0.67,-1.33 1,-2c5.29,-0.84 10.62,-1.18 16,-1z" fill="#534126" id="svg_342"/>
  </g>
  <g id="svg_343">
   <path d="m220.5,261.5c3.21,-0.31 6.21,0.02 9,1c-1.37,-0.16 -2.71,0.01 -4,0.5c-2.43,3.14 -4.09,2.64 -5,-1.5z" fill="#846b51" id="svg_344"/>
  </g>
  <g id="svg_345">
   <path d="m326.5,258.5c-0.03,2.75 -1.03,5.08 -3,7c0.85,5.26 -0.48,9.92 -4,14c-3.03,-1.9 -6.36,-3.24 -10,-4c-1.93,-1.79 -4.26,-2.79 -7,-3c-5.34,-3.06 -11.01,-5.22 -17,-6.5c2,1 4,2 6,3c-4.86,-0.23 -9.52,-1.39 -14,-3.5c-0.17,-0.99 0.16,-1.66 1,-2c6.18,-1.75 12.51,-2.42 19,-2c0.33,0 0.67,0 1,0c3,2.33 6.33,3.83 10,4.5c-2.25,-1.28 -4.25,-2.78 -6,-4.5c2.67,-0.67 5.33,-1.33 8,-2c5.29,-0.84 10.62,-1.18 16,-1z" fill="#ee9a03" id="svg_346"/>
  </g>
  <g id="svg_347">
   <path d="m298.5,261.5c1.33,0 2.67,0 4,0c1.75,1.72 3.75,3.22 6,4.5c-3.67,-0.67 -7,-2.17 -10,-4.5z" fill="#7f5204" id="svg_348"/>
  </g>
  <g id="svg_349">
   <path d="m309.5,261.5c2.39,0.41 4.72,1.08 7,2c-2.99,1.33 -5.33,0.67 -7,-2z" fill="#4a3553" id="svg_350"/>
  </g>
  <g id="svg_351">
   <path d="m320.5,212.5c0.43,1.21 1.1,2.21 2,3c0.06,1.11 0.39,2.11 1,3c0.63,2.9 1.63,5.56 3,8c1.06,5.28 1.72,10.61 2,16c0,0.33 0,0.67 0,1c-0.3,2.24 0.04,4.24 1,6c0,0.33 0,0.67 0,1c-0.93,1.07 -1.27,2.4 -1,4c0,1 0,2 0,3c3.33,0 6.67,0 10,0c-3.46,0.98 -7.13,1.31 -11,1c-0.39,2.97 0.28,5.63 2,8c-1.03,0.05 -2.2,0.39 -3.5,1c-0.44,2.37 -0.94,4.7 -1.5,7c-0.67,0 -1,0.33 -1,1c-0.33,1.33 -0.67,2.67 -1,4c-1.84,2.35 -3.17,5.01 -4,8c-2.62,3.96 -5.62,7.62 -9,11c0,-0.33 0,-0.67 0,-1c2.57,-3.47 4.91,-7.14 7,-11c1.27,-2.21 2.27,-4.55 3,-7c3.52,-4.08 4.85,-8.74 4,-14c1.97,-1.92 2.97,-4.25 3,-7c0,-1.33 0,-2.67 0,-4c0.93,-1.07 1.27,-2.4 1,-4c-15.33,0 -30.67,0 -46,0c-0.67,0 -1.33,0 -2,0c-6.67,0 -13.33,0 -20,0c17.98,-1.01 40.65,-1.35 68,-1c0,-2 0,-4 0,-6c-2.24,0.29 -4.24,-0.04 -6,-1c2,0 4,0 6,0c0.24,-1.29 -0.1,-2.29 -1,-3c0.17,-4.17 -0.5,-8.17 -2,-12c-0.21,-2.74 -1.21,-5.07 -3,-7c0.13,-1.79 -0.2,-3.46 -1,-5c-0.43,-1.21 -1.1,-2.21 -2,-3c-1.31,-3.28 -3.14,-6.28 -5.5,-9c-0.67,-1 -0.67,-2 0,-3c2.76,3.86 5.26,7.86 7.5,12z" fill="#2c2249" id="svg_352"/>
  </g>
  <g id="svg_353">
   <path d="m196.5,260.5c0.67,0 1.33,0 2,0c6.36,-0.02 12.69,0.31 19,1c1,0.33 1.67,1 2,2c-0.67,0 -1.33,0 -2,0c-5.44,-1.68 -11.1,-2.18 -17,-1.5c-5,2.5 -10,5 -15,7.5c-1.2,-0.35 -1.2,-0.85 0,-1.5c4,-2 8,-4 12,-6c-0.56,-0.38 -0.89,-0.88 -1,-1.5z" fill="#764e07" id="svg_354"/>
  </g>
  <g id="svg_355">
   <path d="m217.5,263.5c0.67,0 1.33,0 2,0c1.1,1.11 1.77,2.44 2,4c-2.36,1.69 -4.36,3.69 -6,6c-3.45,-0.59 -6.78,0.24 -10,2.5c2.83,0.45 5.5,-0.05 8,-1.5c-0.24,1.9 -1.24,3.24 -3,4c-2.16,-0.92 -4.5,-0.92 -7,0c1.35,-1.15 1.18,-1.82 -0.5,-2c-2.44,1.15 -4.94,1.65 -7.5,1.5c6.7,-2.68 13.37,-5.34 20,-8c-0.67,-0.17 -1.33,-0.33 -2,-0.5c-5.84,1.35 -6.18,0.85 -1,-1.5c-2.36,-0.15 -4.69,-0.15 -7,0c3.92,-1.8 7.92,-3.3 12,-4.5z" fill="#a76c03" id="svg_356"/>
  </g>
  <g id="svg_357">
   <path d="m233.5,265.5c2.6,1.89 3.6,4.55 3,8c-2.68,-0.17 -5.01,-1.17 -7,-3c1.36,-1.69 2.69,-3.35 4,-5z" fill="#dfdfe1" id="svg_358"/>
  </g>
  <g id="svg_359">
   <path d="m262.5,264.5c2.65,1.98 4.98,4.31 7,7c-1.68,1.84 -3.68,3.17 -6,4c-0.98,-3.46 -1.31,-7.13 -1,-11z" fill="#ebebec" id="svg_360"/>
  </g>
  <g id="svg_361">
   <path d="m336.5,267.5c2.43,0.02 4.76,0.52 7,1.5c-1.17,0.17 -2.33,0.33 -3.5,0.5c-1.68,-0.11 -2.85,-0.77 -3.5,-2z" fill="#382a5b" id="svg_362"/>
  </g>
  <g id="svg_363">
   <path d="m261.5,263.5c0,0.67 0.33,1 1,1c-0.31,3.87 0.02,7.54 1,11c-1.17,0.85 -2.5,1.51 -4,2c0.41,-4.84 1.08,-9.5 2,-14z" fill="#948c83" id="svg_364"/>
  </g>
  <g id="svg_365">
   <path d="m277.5,265.5c4.48,2.11 9.14,3.27 14,3.5c-2,-1 -4,-2 -6,-3c5.99,1.28 11.66,3.44 17,6.5c-2.83,-1 -5.5,-1 -8,0c-3.93,-1.03 -7.76,-2.37 -11.5,-4c-0.5,0.5 -1,1 -1.5,1.5c2.57,0.9 4.9,2.06 7,3.5c-1.9,-0.6 -3.56,-0.6 -5,0c-2.33,-2 -4.67,-4 -7,-6c-0.17,-0.99 0.16,-1.66 1,-2z" fill="#9f6702" id="svg_366"/>
  </g>
  <g id="svg_367">
   <path d="m350.5,271.5c2.02,-1.37 4.02,-1.21 6,0.5c-2.1,0.68 -4.1,0.51 -6,-0.5z" fill="#4c3654" id="svg_368"/>
  </g>
  <g id="svg_369">
   <path d="m109.5,307.5c0,0.67 0,1.33 0,2c5.18,17.03 13.02,32.7 23.5,47c1.13,1.64 2.63,2.64 4.5,3c-1,1 -2,2 -3,3c-11,-15.67 -19.67,-32.67 -26,-51c-1.23,-0.78 -2.56,-1.28 -4,-1.5c1.17,-0.42 2.17,-1.08 3,-2c-4.25,-13.86 -5.92,-28.03 -5,-42.5c1.01,12.06 2.51,24.06 4.5,36c0.84,2.11 1.68,4.11 2.5,6z" fill="#3d2c57" id="svg_370"/>
  </g>
  <g id="svg_371">
   <path d="m302.5,272.5c2.74,0.21 5.07,1.21 7,3c-2.74,-0.21 -5.07,-1.21 -7,-3z" fill="#754c00" id="svg_372"/>
  </g>
  <g id="svg_373">
   <path d="m363.5,274.5c2.35,-1.39 4.68,-1.23 7,0.5c-2.35,0.33 -4.68,0.17 -7,-0.5z" fill="#3d2e58" id="svg_374"/>
  </g>
  <g id="svg_375">
   <path d="m183.5,286.5c-0.99,-2.58 -1.99,-5.24 -3,-8c5.76,-3.06 11.76,-5.22 18,-6.5c-1.33,0.67 -2.67,1.33 -4,2c0.5,0.17 1,0.33 1.5,0.5c2.44,-1.15 4.94,-1.65 7.5,-1.5c-5.08,1.8 -10.08,3.8 -15,6c2,0 4,0 6,0c-3.33,1.33 -6.67,2.67 -10,4c2,0 4,0 6,0c-2.57,0.9 -4.9,2.06 -7,3.5z" fill="#9a6402" id="svg_376"/>
  </g>
  <g id="svg_377">
   <path d="m215.5,273.5c-0.67,0.33 -1.33,0.67 -2,1c-2.5,1.45 -5.17,1.95 -8,1.5c3.22,-2.26 6.55,-3.09 10,-2.5z" fill="#eb9800" id="svg_378"/>
  </g>
  <g id="svg_379">
   <path d="m234.5,275.5c-2.67,3.33 -5.67,6.33 -9,9c-2,1.33 -3.67,3 -5,5c-7.66,6.33 -14.99,12.99 -22,20c-0.86,-1.19 -1.86,-2.36 -3,-3.5c3.32,-1.41 4.98,-3.58 5,-6.5c1.16,-2.74 3,-3.74 5.5,-3c1.33,-1.33 2.67,-2.67 4,-4c-0.44,-2.67 0.73,-4.84 3.5,-6.5c2.67,0.44 4.84,-0.73 6.5,-3.5c-0.19,-3.06 1.31,-5.39 4.5,-7c0.62,0.11 1.12,0.44 1.5,1c2.53,-3.63 5.36,-3.97 8.5,-1z" fill="#ebe9e8" id="svg_380"/>
  </g>
  <g id="svg_381">
   <path d="m272.5,273.5c21.67,22.33 43.67,44.33 66,66c-0.67,1.33 -1.67,2.33 -3,3c-9.67,-9.33 -19.33,-18.67 -29,-28c-0.71,-0.9 -1.71,-1.24 -3,-1c-9.01,-9.01 -18.34,-17.67 -28,-26c-0.67,-1.33 -1.67,-2.33 -3,-3c-2.64,-1.97 -4.97,-4.31 -7,-7c1.84,-2.17 4.17,-3.5 7,-4z" fill="#e7e4e2" id="svg_382"/>
  </g>
  <g id="svg_383">
   <path d="m279.5,250.5c0.67,0 1.33,0 2,0c0,0.33 0,0.67 0,1c-0.35,3.4 -1.02,6.74 -2,10c-0.33,0.67 -0.67,1.33 -1,2c-0.84,0.34 -1.17,1.01 -1,2c-0.84,0.34 -1.17,1.01 -1,2c-0.81,1.51 -0.98,3.18 -0.5,5c-1.87,-2.66 -3.03,-2.33 -3.5,1c-2.83,0.5 -5.16,1.83 -7,4c-1.46,-0.07 -2.79,0.27 -4,1c-0.67,0 -1,0.33 -1,1c-3.02,0.2 -6.02,0.54 -9,1c0,1.33 0,2.67 0,4c-0.96,-1.76 -1.29,-3.76 -1,-6c3.07,0.13 6.07,-0.2 9,-1c1.5,-0.49 2.83,-1.15 4,-2c2.32,-0.83 4.32,-2.16 6,-4c-2.02,-2.69 -4.35,-5.02 -7,-7c-0.67,0 -1,-0.33 -1,-1c0.79,-0.28 1.46,-0.78 2,-1.5c-1,-1 -2,-2 -3,-3c0.33,-0.17 0.67,-0.33 1,-0.5c4.77,4.57 10.11,5.24 16,2c1.14,-2.9 1.81,-5.9 2,-9c0,-0.33 0,-0.67 0,-1z" fill="#26225d" id="svg_384"/>
  </g>
  <g id="svg_385">
   <path d="m273.5,263.5c0.89,-1.28 1.89,-1.28 3,0c-0.93,1.06 -1.93,1.06 -3,0z" fill="#c8820d" id="svg_386"/>
  </g>
  <g id="svg_387">
   <path d="m234.5,275.5c1.29,-0.24 2.29,0.1 3,1c0.24,1.29 -0.1,2.29 -1,3c-3.47,6.63 -6.14,13.63 -8,21c-3.67,5.02 -6,10.69 -7,17c-1.67,2.09 -3.34,4.09 -5,6c-1.21,-0.43 -2.21,-1.1 -3,-2c4.4,-12.19 8.4,-24.53 12,-37c3.33,-2.67 6.33,-5.67 9,-9z" fill="#f59f03" id="svg_388"/>
  </g>
  <g id="svg_389">
   <path d="m285.5,275.5c6.3,1.43 12.3,3.43 18,6c-4.95,-0.82 -9.79,-2.15 -14.5,-4c-0.76,0.07 -1.26,0.4 -1.5,1c-1.41,-0.47 -2.07,-1.47 -2,-3z" fill="#774d05" id="svg_390"/>
  </g>
  <g id="svg_391">
   <path d="m288.5,273.5c6.12,2.77 12.45,5.27 19,7.5c-1.29,0.49 -2.63,0.66 -4,0.5c-5.7,-2.57 -11.7,-4.57 -18,-6c-1,-0.33 -1.67,-1 -2,-2c1.44,-0.6 3.1,-0.6 5,0z" fill="#ef9b00" id="svg_392"/>
  </g>
  <g id="svg_393">
   <path d="m177.5,259.5c6.34,0.27 12.67,0.6 19,1c0.11,0.62 0.44,1.12 1,1.5c-4,2 -8,4 -12,6c-1.2,0.65 -1.2,1.15 0,1.5c5,-2.5 10,-5 15,-7.5c5.9,-0.68 11.56,-0.18 17,1.5c-4.08,1.2 -8.08,2.7 -12,4.5c2.31,-0.15 4.64,-0.15 7,0c-5.18,2.35 -4.84,2.85 1,1.5c0.67,0.17 1.33,0.33 2,0.5c-6.63,2.66 -13.3,5.32 -20,8c2.56,0.15 5.06,-0.35 7.5,-1.5c1.68,0.18 1.85,0.85 0.5,2c2.5,-0.92 4.84,-0.92 7,0c-6.33,7.66 -12.99,14.99 -20,22c-2.86,-4.38 -5.19,-9.05 -7,-14c2.1,-1.44 4.43,-2.6 7,-3.5c-2,0 -4,0 -6,0c3.33,-1.33 6.67,-2.67 10,-4c-2,0 -4,0 -6,0c4.92,-2.2 9.92,-4.2 15,-6c-2.56,-0.15 -5.06,0.35 -7.5,1.5c-0.5,-0.17 -1,-0.33 -1.5,-0.5c1.33,-0.67 2.67,-1.33 4,-2c-6.24,1.28 -12.24,3.44 -18,6.5c-1.1,-2.21 -1.1,-4.38 0,-6.5c-2.42,-3.71 -3.42,-7.88 -3,-12.5z" fill="#f29c01" id="svg_394"/>
  </g>
  <g id="svg_395">
   <path d="m303.5,281.5c3.72,1.9 7.72,3.24 12,4c0,0.67 0.33,1 1,1c-2.09,3.86 -4.43,7.53 -7,11c-0.67,0 -1.33,0 -2,0c-0.87,-2.31 -2.21,-2.97 -4,-2c-4.6,-6.27 -9.94,-11.94 -16,-17c0.24,-0.6 0.74,-0.93 1.5,-1c4.71,1.85 9.55,3.18 14.5,4z" fill="#f39d06" id="svg_396"/>
  </g>
  <g id="svg_397">
   <path d="m265.5,277.5c2.03,2.69 4.36,5.03 7,7c4.92,13.44 9.25,27.1 13,41c-1.01,1.17 -2.35,1.84 -4,2c-3.15,-8.97 -6.82,-17.63 -11,-26c-0.9,-4.39 -2.57,-8.39 -5,-12c-0.94,-3.81 -2.27,-7.48 -4,-11c1.21,-0.73 2.54,-1.07 4,-1z" fill="#f7a002" id="svg_398"/>
  </g>
  <g id="svg_399">
   <path d="m294.5,272.5c2.5,-1 5.17,-1 8,0c1.93,1.79 4.26,2.79 7,3c3.64,0.76 6.97,2.1 10,4c-0.73,2.45 -1.73,4.79 -3,7c-0.67,0 -1,-0.33 -1,-1c-0.42,-0.72 -1.08,-1.22 -2,-1.5c3.04,-0.36 3.38,-1.03 1,-2c-8.56,-3.35 -17.22,-6.19 -26,-8.5c-2.1,-1.44 -4.43,-2.6 -7,-3.5c0.5,-0.5 1,-1 1.5,-1.5c3.74,1.63 7.57,2.97 11.5,4z" fill="#cd8400" id="svg_400"/>
  </g>
  <g id="svg_401">
   <path d="m294.5,272.5c2.81,0.33 5.48,1.16 8,2.5c-3.04,0.26 -5.71,-0.57 -8,-2.5z" fill="#794e01" id="svg_402"/>
  </g>
  <g id="svg_403">
   <path d="m323.5,275.5c0,-0.67 0.33,-1 1,-1c5.26,1.96 10.26,4.46 15,7.5c-5.36,-1.84 -10.69,-4 -16,-6.5z" fill="#7a4f02" id="svg_404"/>
  </g>
  <g id="svg_405">
   <path d="m391.5,278.5c2.09,0.36 4.09,1.02 6,2c-0.5,0.33 -1,0.67 -1.5,1c-2.19,-0.2 -3.69,-1.2 -4.5,-3z" fill="#3e2e59" id="svg_406"/>
  </g>
  <g id="svg_407">
   <path d="m203.5,278.5c-3.71,2.07 -7.71,3.24 -12,3.5c3.81,-1.88 7.81,-3.05 12,-3.5z" fill="#774d01" id="svg_408"/>
  </g>
  <g id="svg_409">
   <path d="m260.5,279.5c-1.06,10.64 -1.73,21.31 -2,32c0,1 0,2 0,3c-1.3,4.44 -1.97,9.11 -2,14c-0.93,1.07 -1.27,2.4 -1,4c-1.67,0 -3.33,0 -5,0c0.69,-16.06 1.03,-32.06 1,-48c0,-1.33 0,-2.67 0,-4c2.98,-0.46 5.98,-0.8 9,-1z" fill="#e8e8e9" id="svg_410"/>
  </g>
  <g id="svg_411">
   <path d="m175.5,251.5c0.67,0.33 1.33,0.67 2,1c0,2 0,4 0,6c0,0.33 0,0.67 0,1c-0.42,4.62 0.58,8.79 3,12.5c-1.1,2.12 -1.1,4.29 0,6.5c1.01,2.76 2.01,5.42 3,8c1.81,4.95 4.14,9.62 7,14c-0.33,0 -0.67,0 -1,0c-3.47,-3.67 -5.97,-8 -7.5,-13c-0.67,-0.75 -1.5,-1.09 -2.5,-1c1.15,-2.55 0.82,-4.88 -1,-7c-1.65,-6.87 -2.65,-13.87 -3,-21c0,-2.33 0,-4.67 0,-7z" fill="#3d2d57" id="svg_412"/>
  </g>
  <g id="svg_413">
   <path d="m288.5,273.5c8.78,2.31 17.44,5.15 26,8.5c2.38,0.97 2.04,1.64 -1,2c0.92,0.28 1.58,0.78 2,1.5c-4.28,-0.76 -8.28,-2.1 -12,-4c1.37,0.16 2.71,-0.01 4,-0.5c-6.55,-2.23 -12.88,-4.73 -19,-7.5z" fill="#8d5b01" id="svg_414"/>
  </g>
  <g id="svg_415">
   <path d="m146.5,289.5c-0.33,-0.67 -0.67,-1.33 -1,-2c30.06,-13.47 30.39,-12.8 1,2z" fill="#805300" id="svg_416"/>
  </g>
  <g id="svg_417">
   <path d="m418.5,284.5c2.15,-0.13 4.15,0.37 6,1.5c-1,0.17 -2,0.33 -3,0.5c-1.53,-0.14 -2.53,-0.81 -3,-2z" fill="#473355" id="svg_418"/>
  </g>
  <g id="svg_419">
   <path d="m179.5,286.5c1,-0.09 1.83,0.25 2.5,1c1.53,5 4.03,9.33 7.5,13c-1.59,2.77 -3.42,5.44 -5.5,8c-8.37,8.87 -16.54,17.87 -24.5,27c-5.29,-4.14 -9.79,-9.14 -13.5,-15c-0.67,1 -0.67,2 0,3c3.48,4.78 7.31,9.28 11.5,13.5c-0.56,0.38 -0.89,0.88 -1,1.5c-6.68,6.68 -13.01,13.68 -19,21c-1.87,-0.36 -3.37,-1.36 -4.5,-3c-10.48,-14.3 -18.32,-29.97 -23.5,-47c7.41,-2.68 14.74,-5.34 22,-8c5.39,-1.13 10.72,-2.46 16,-4c2.98,6.63 6.48,12.96 10.5,19c0.67,-1 0.67,-2 0,-3c-3.39,-5.44 -6.22,-11.11 -8.5,-17c8.69,-2.73 17.36,-5.56 26,-8.5c-3.04,-0.36 -3.38,-1.03 -1,-2c-2.67,-0.67 -2.67,-1.33 0,-2c-2.29,-0.98 -1.96,-1.82 1,-2.5c-0.39,1.22 0.28,2.05 2,2.5c-2.67,0.67 -2.67,1.33 0,2c-0.33,0.33 -0.67,0.67 -1,1c1.25,0.74 2.25,0.57 3,-0.5z" fill="#faa202" id="svg_420"/>
  </g>
  <g id="svg_421">
   <path d="m322.5,279.5c6.88,3.61 13.88,6.94 21,10c-4.14,2.6 -3.81,3.43 1,2.5c0.3,1.07 0.3,2.24 0,3.5c-8.47,-3.27 -17.14,-5.93 -26,-8c0.83,-2.99 2.16,-5.65 4,-8z" fill="#8b5a01" id="svg_422"/>
  </g>
  <g id="svg_423">
   <path d="m431.5,288.5c2.27,-1.26 4.61,-1.1 7,0.5c-2.35,0.33 -4.68,0.17 -7,-0.5z" fill="#3a2c5b" id="svg_424"/>
  </g>
  <g id="svg_425">
   <path d="m220.5,289.5c1.11,1.45 1.28,3.11 0.5,5c-2.86,7.59 -5.53,15.26 -8,23c-0.42,1.26 -1.25,1.92 -2.5,2c-4.32,-2.99 -8.32,-6.32 -12,-10c7.01,-7.01 14.34,-13.67 22,-20z" fill="#f7a007" id="svg_426"/>
  </g>
  <g id="svg_427">
   <path d="m272.5,284.5c1.33,0.67 2.33,1.67 3,3c4,12.34 8,24.67 12,37c-0.67,0.33 -1.33,0.67 -2,1c-3.75,-13.9 -8.08,-27.56 -13,-41z" fill="#8d5c02" id="svg_428"/>
  </g>
  <g id="svg_429">
   <path d="m275.5,287.5c9.66,8.33 18.99,16.99 28,26c-4.28,5.14 -9.62,8.81 -16,11c-4,-12.33 -8,-24.66 -12,-37z" fill="#f8a105" id="svg_430"/>
  </g>
  <g id="svg_431">
   <path d="m445.5,291.5c2.19,-1.3 4.53,-1.3 7,0c-2.27,0.86 -4.61,0.86 -7,0z" fill="#473356" id="svg_432"/>
  </g>
  <g id="svg_433">
   <path d="m237.5,276.5c0.33,0 0.67,0 1,0c0.64,7.65 0.98,15.32 1,23c-0.78,-1.87 -1.45,-3.87 -2,-6c0.81,-4.57 0.48,-9.24 -1,-14c0.9,-0.71 1.24,-1.71 1,-3z" fill="#130b1c" id="svg_434"/>
  </g>
  <g id="svg_435">
   <path d="m178.5,279.5c1.82,2.12 2.15,4.45 1,7c-0.75,1.07 -1.75,1.24 -3,0.5c0.33,-0.33 0.67,-0.67 1,-1c-2.67,-0.67 -2.67,-1.33 0,-2c-1.72,-0.45 -2.39,-1.28 -2,-2.5c-2.96,0.68 -3.29,1.52 -1,2.5c-2.67,0.67 -2.67,1.33 0,2c-2.38,0.97 -2.04,1.64 1,2c-8.64,2.94 -17.31,5.77 -26,8.5c-0.75,-1.83 -1.75,-3.5 -3,-5c10.73,-3.8 21.4,-7.8 32,-12z" fill="#7e5102" id="svg_436"/>
  </g>
  <g id="svg_437">
   <path d="m372.5,299.5c-7.26,-2.96 -14.26,-6.46 -21,-10.5c7.5,2.42 14.5,5.92 21,10.5z" fill="#7e5101" id="svg_438"/>
  </g>
  <g id="svg_439">
   <path d="m303.5,295.5c1.79,-0.97 3.13,-0.31 4,2c-1.56,-0.23 -2.89,-0.9 -4,-2z" fill="#2b255f" id="svg_440"/>
  </g>
  <g id="svg_441">
   <path d="m144.5,289.5c0.73,1.21 1.07,2.54 1,4c-5.38,1.23 -10.38,3.23 -15,6c-5.55,2.4 -11.21,4.4 -17,6c10.14,-5.57 20.47,-10.9 31,-16z" fill="#ad7001" id="svg_442"/>
  </g>
  <g id="svg_443">
   <path d="m237.5,293.5c-1.67,2.7 -3.34,5.37 -5,8c0.93,-3.86 2.43,-7.53 4.5,-11c0.48,0.95 0.65,1.95 0.5,3z" fill="#eb9800" id="svg_444"/>
  </g>
  <g id="svg_445">
   <path d="m303.5,295.5c1.11,1.1 2.44,1.77 4,2c0.13,0.88 -0.2,1.54 -1,2c-1.79,-0.78 -2.79,-2.12 -3,-4z" fill="#825524" id="svg_446"/>
  </g>
  <g id="svg_447">
   <path d="m145.5,293.5c1.17,1.01 1.84,2.35 2,4c-5.28,1.54 -10.61,2.87 -16,4c1.53,-1.43 1.2,-2.09 -1,-2c4.62,-2.77 9.62,-4.77 15,-6z" fill="#563803" id="svg_448"/>
  </g>
  <g id="svg_449">
   <path d="m236.5,279.5c1.48,4.76 1.81,9.43 1,14c0.15,-1.05 -0.02,-2.05 -0.5,-3c-2.07,3.47 -3.57,7.14 -4.5,11c-1.73,2.44 -3.23,5.11 -4.5,8c2.04,-7.11 4.71,-14.11 8,-21c0.67,-1.33 0.67,-2.67 0,-4c-2.28,5.55 -4.78,10.88 -7.5,16c1.86,-7.37 4.53,-14.37 8,-21z" fill="#8d5b00" id="svg_450"/>
  </g>
  <g id="svg_451">
   <path d="m265.5,289.5c2.43,3.61 4.1,7.61 5,12c0.16,1.37 -0.01,2.71 -0.5,4c-1,-2 -2,-4 -3,-6c0,2 0,4 0,6c-3.19,-5.02 -5.19,-10.35 -6,-16c0.89,1.39 1.39,1.22 1.5,-0.5c-0.91,-1.79 -1.08,-3.62 -0.5,-5.5c0.42,2.52 1.59,4.52 3.5,6z" fill="#c98200" id="svg_452"/>
  </g>
  <g id="svg_453">
   <path d="m343.5,289.5c8.75,3.2 17.42,6.7 26,10.5c1.25,0.74 2.25,0.57 3,-0.5c4.98,1.83 9.65,4.16 14,7c-4.66,-1.16 -9.16,-2.83 -13.5,-5c-1.3,0.14 -2.13,0.81 -2.5,2c-8.61,-2.87 -17.27,-5.54 -26,-8c0.3,-1.26 0.3,-2.43 0,-3.5c-4.81,0.93 -5.14,0.1 -1,-2.5z" fill="#583902" id="svg_454"/>
  </g>
  <g id="svg_455">
   <path d="m140.5,256.5c0.04,10.6 1.71,20.94 5,31c0.33,0.67 0.67,1.33 1,2c0,0.67 0,1.33 0,2c1.25,1.5 2.25,3.17 3,5c2.28,5.89 5.11,11.56 8.5,17c0.67,1 0.67,2 0,3c-4.02,-6.04 -7.52,-12.37 -10.5,-19c-0.16,-1.65 -0.83,-2.99 -2,-4c0.07,-1.46 -0.27,-2.79 -1,-4c-2.79,-8.81 -4.79,-17.81 -6,-27c0.67,-2 1.33,-4 2,-6z" fill="#3e2d58" id="svg_456"/>
  </g>
  <g id="svg_457">
   <path d="m221.5,267.5c5,1.34 6,4.01 3,8c-3.19,1.61 -4.69,3.94 -4.5,7c-1.66,2.77 -3.83,3.94 -6.5,3.5c-2.77,1.66 -3.94,3.83 -3.5,6.5c-1.33,1.33 -2.67,2.67 -4,4c-2.5,-0.74 -4.34,0.26 -5.5,3c-3.03,2.36 -5.69,5.03 -8,8c-1.97,0.75 -2.3,1.92 -1,3.5c-1.33,1.33 -2.67,2.67 -4,4c-0.95,0.62 -1.78,0.45 -2.5,-0.5c-1.83,1.83 -3.67,3.67 -5.5,5.5c0.67,0.33 1.33,0.67 2,1c-2.5,3.23 -5.67,5.4 -9.5,6.5c-0.41,3.42 -2.07,6.08 -5,8c-0.33,-0.67 -0.67,-1.33 -1,-2c-1.37,1.54 -2.87,2.88 -4.5,4c-1.33,0 -2,-0.67 -2,-2c7.96,-9.13 16.13,-18.13 24.5,-27c2.08,-2.56 3.91,-5.23 5.5,-8c0.33,0 0.67,0 1,0c7.01,-7.01 13.67,-14.34 20,-22c1.76,-0.76 2.76,-2.1 3,-4c0.67,-0.33 1.33,-0.67 2,-1c1.64,-2.31 3.64,-4.31 6,-6z" fill="#18104f" id="svg_458"/>
  </g>
  <g id="svg_459">
   <path d="m276.5,267.5c2.33,2 4.67,4 7,6c0.33,1 1,1.67 2,2c-0.07,1.53 0.59,2.53 2,3c6.06,5.06 11.4,10.73 16,17c0.21,1.88 1.21,3.22 3,4c0.8,-0.46 1.13,-1.12 1,-2c0.67,0 1.33,0 2,0c0,0.33 0,0.67 0,1c-0.91,1.24 -1.08,2.57 -0.5,4c10.75,10.91 20.91,22.24 30.5,34c0.24,1.29 -0.1,2.29 -1,3c-22.33,-21.67 -44.33,-43.67 -66,-66c0.47,-3.33 1.63,-3.66 3.5,-1c-0.48,-1.82 -0.31,-3.49 0.5,-5z" fill="#0d0747" id="svg_460"/>
  </g>
  <g id="svg_461">
   <path d="m130.5,299.5c2.2,-0.09 2.53,0.57 1,2c-7.26,2.66 -14.59,5.32 -22,8c0,-0.67 0,-1.33 0,-2c1.33,-0.67 2.67,-1.33 4,-2c5.79,-1.6 11.45,-3.6 17,-6z" fill="#291b01" id="svg_462"/>
  </g>
  <g id="svg_463">
   <path d="m262.5,304.5c0.48,2.94 1.48,5.6 3,8c3.49,5.65 6.49,11.65 9,18c-4.33,0.67 -8.67,1.33 -13,2c-1.33,0 -2.67,0 -4,0c0.57,-5.98 0.91,-11.98 1,-18c0,-1 0,-2 0,-3c0.82,-2.81 1.32,-5.81 1.5,-9c0.71,0.88 1.54,1.55 2.5,2z" fill="#f9a100" id="svg_464"/>
  </g>
  <g id="svg_465">
   <path d="m314.5,302.5c2.57,1.38 4.07,3.38 4.5,6c-2.13,-1.61 -3.63,-3.61 -4.5,-6z" fill="#382b5b" id="svg_466"/>
  </g>
  <g id="svg_467">
   <path d="m261.5,278.5c1.73,3.52 3.06,7.19 4,11c-1.91,-1.48 -3.08,-3.48 -3.5,-6c-0.58,1.88 -0.41,3.71 0.5,5.5c-0.11,1.72 -0.61,1.89 -1.5,0.5c0.81,5.65 2.81,10.98 6,16c0,-2 0,-4 0,-6c1,2 2,4 3,6c0.49,-1.29 0.66,-2.63 0.5,-4c4.18,8.37 7.85,17.03 11,26c-2.31,0.84 -4.64,1.84 -7,3c-2.51,-6.35 -5.51,-12.35 -9,-18c-0.11,-1.88 0.39,-2.21 1.5,-1c1.67,3.33 3.33,6.67 5,10c0.33,-1 0.67,-2 1,-3c0.67,1.33 1.33,2.67 2,4c0.16,-3.02 -0.84,-5.69 -3,-8c-0.98,2.3 -1.82,1.96 -2.5,-1c0.67,-0.33 1.33,-0.67 2,-1c-0.55,-1.83 -1.38,-3.5 -2.5,-5c-0.33,1 -0.67,2 -1,3c-2.37,-4.35 -4.7,-8.69 -7,-13c-0.17,0.5 -0.33,1 -0.5,1.5c0.82,1.8 1.49,3.63 2,5.5c-0.96,-0.45 -1.79,-1.12 -2.5,-2c-0.18,3.19 -0.68,6.19 -1.5,9c0.27,-10.69 0.94,-21.36 2,-32c0,-0.67 0.33,-1 1,-1z" fill="#966202" id="svg_468"/>
  </g>
  <g id="svg_469">
   <path d="m250.5,257.5c1.33,7 1.33,14 0,21c-0.29,2.24 0.04,4.24 1,6c0.03,15.94 -0.31,31.94 -1,48c1.67,0 3.33,0 5,0c-0.27,-1.6 0.07,-2.93 1,-4c0,1.67 0,3.33 0,5c-2.33,0 -4.67,0 -7,0c0,-26.67 0,-53.33 0,-80c1.02,0.4 1.35,1.73 1,4z" fill="#65627e" id="svg_470"/>
  </g>
  <g id="svg_471">
   <path d="m386.5,306.5c2.22,1.19 4.56,2.19 7,3c1.02,0.5 1.19,1.17 0.5,2c-7.73,-2.96 -15.56,-5.63 -23.5,-8c0.37,-1.19 1.2,-1.86 2.5,-2c4.34,2.17 8.84,3.84 13.5,5z" fill="#231702" id="svg_472"/>
  </g>
  <g id="svg_473">
   <path d="m192.5,307.5c1.9,0.24 3.24,1.24 4,3c-8.51,8.67 -17.51,16.84 -27,24.5c-2.29,1.78 -3.96,3.94 -5,6.5c-1.76,-0.76 -2.76,-2.1 -3,-4c1.63,-1.12 3.13,-2.46 4.5,-4c0.33,0.67 0.67,1.33 1,2c2.93,-1.92 4.59,-4.58 5,-8c3.83,-1.1 7,-3.27 9.5,-6.5c-0.67,-0.33 -1.33,-0.67 -2,-1c1.83,-1.83 3.67,-3.67 5.5,-5.5c0.72,0.95 1.55,1.12 2.5,0.5c1.33,-1.33 2.67,-2.67 4,-4c-1.3,-1.58 -0.97,-2.75 1,-3.5z" fill="#e3e0dd" id="svg_474"/>
  </g>
  <g id="svg_475">
   <path d="m225.5,284.5c-3.6,12.47 -7.6,24.81 -12,37c-1.53,0.07 -2.53,-0.59 -3,-2c1.25,-0.08 2.08,-0.74 2.5,-2c2.47,-7.74 5.14,-15.41 8,-23c0.78,-1.89 0.61,-3.55 -0.5,-5c1.33,-2 3,-3.67 5,-5z" fill="#9a6403" id="svg_476"/>
  </g>
  <g id="svg_477">
   <path d="m196.5,310.5c4.45,4.72 9.45,8.72 15,12c-4.35,13.49 -8.68,26.82 -13,40c-12.91,-4.6 -24.24,-11.6 -34,-21c1.04,-2.56 2.71,-4.72 5,-6.5c9.49,-7.66 18.49,-15.83 27,-24.5z" fill="#fba203" id="svg_478"/>
  </g>
  <g id="svg_479">
   <path d="m265.5,312.5c-1.52,-2.4 -2.52,-5.06 -3,-8c-0.51,-1.87 -1.18,-3.7 -2,-5.5c0.17,-0.5 0.33,-1 0.5,-1.5c2.3,4.31 4.63,8.65 7,13c0.33,-1 0.67,-2 1,-3c1.12,1.5 1.95,3.17 2.5,5c-0.67,0.33 -1.33,0.67 -2,1c0.68,2.96 1.52,3.3 2.5,1c2.16,2.31 3.16,4.98 3,8c-0.67,-1.33 -1.33,-2.67 -2,-4c-0.33,1 -0.67,2 -1,3c-1.67,-3.33 -3.33,-6.67 -5,-10c-1.11,-1.21 -1.61,-0.88 -1.5,1z" fill="#cc8400" id="svg_480"/>
  </g>
  <g id="svg_481">
   <path d="m237.5,293.5c0.55,2.13 1.22,4.13 2,6c0,1.33 0,2.67 0,4c-0.72,-0.42 -1.22,-1.08 -1.5,-2c-4.26,8.85 -8.76,17.52 -13.5,26c-2.8,-1.15 -5.47,-2.48 -8,-4c1.66,-1.91 3.33,-3.91 5,-6c-0.09,3.1 0.41,3.43 1.5,1c0.33,1 0.67,2 1,3c0.67,-1.33 1.33,-2.67 2,-4c0.32,1.8 0.98,2.13 2,1c3.89,-6.76 6.89,-13.76 9,-21c-1.33,2.67 -2.67,5.33 -4,8c-0.49,-1.29 -0.66,-2.63 -0.5,-4c1.66,-2.63 3.33,-5.3 5,-8z" fill="#956102" id="svg_482"/>
  </g>
  <g id="svg_483">
   <path d="m324.5,311.5c2.39,0.87 4.39,2.37 6,4.5c-1.78,-0.04 -3.44,-0.71 -5,-2c-0.75,-0.67 -1.09,-1.5 -1,-2.5z" fill="#413058" id="svg_484"/>
  </g>
  <g id="svg_485">
   <path d="m306.5,314.5c9.67,9.33 19.33,18.67 29,28c-3.23,4.74 -7.06,9.07 -11.5,13c-0.67,0.67 -0.67,1.33 0,2c4.68,-4.84 9.51,-9.51 14.5,-14c8.33,8 16.67,16 25,24c0,0.33 0,0.67 0,1c-26.11,21.82 -56.11,34.48 -90,38c-7.19,0.32 -14.19,-0.01 -21,-1c0,-4 0,-8 0,-12c1.38,-6.79 2.04,-13.79 2,-21c12.24,-2.06 24.24,-5.4 36,-10c2.45,2.2 4.45,4.87 6,8c4.09,7.85 7.93,15.85 11.5,24c0.72,0.95 1.55,1.12 2.5,0.5c-1.49,-2.31 -2.49,-4.81 -3,-7.5c-3.2,-9.61 -6.2,-19.27 -9,-29c6.78,-4.57 13.44,-9.4 20,-14.5c-1,-0.67 -2,-0.67 -3,0c-5.03,4.84 -10.7,8.68 -17,11.5c-0.62,-0.11 -1.12,-0.44 -1.5,-1c-3.15,-9.26 -5.98,-18.59 -8.5,-28c6.27,-3.61 12.27,-7.61 18,-12z" fill="#fba302" id="svg_486"/>
  </g>
  <g id="svg_487">
   <path d="m232.5,301.5c-0.16,1.37 0.01,2.71 0.5,4c1.33,-2.67 2.67,-5.33 4,-8c-2.11,7.24 -5.11,14.24 -9,21c-1.02,1.13 -1.68,0.8 -2,-1c-0.67,1.33 -1.33,2.67 -2,4c-0.33,-1 -0.67,-2 -1,-3c-1.09,2.43 -1.59,2.1 -1.5,-1c1,-6.31 3.33,-11.98 7,-17c2.72,-5.12 5.22,-10.45 7.5,-16c0.67,1.33 0.67,2.67 0,4c-3.29,6.89 -5.96,13.89 -8,21c1.27,-2.89 2.77,-5.56 4.5,-8z" fill="#ba7800" id="svg_488"/>
  </g>
  <g id="svg_489">
   <path d="m335.5,320.5c2.4,0.9 4.4,2.4 6,4.5c-3.22,0.21 -5.22,-1.29 -6,-4.5z" fill="#473454" id="svg_490"/>
  </g>
  <g id="svg_491">
   <path d="m214.5,324.5c0.67,0.33 1.33,0.67 2,1c-4.78,11.89 -9.28,23.89 -13.5,36c-0.42,1.26 -1.25,1.92 -2.5,2c3.69,-12.57 7.69,-25.07 12,-37.5c0.34,-1.03 1,-1.53 2,-1.5z" fill="#f59e00" id="svg_492"/>
  </g>
  <g id="svg_493">
   <path d="m286.5,327.5c3.81,9.76 6.81,19.76 9,30c-5.34,-9.02 -9.34,-18.69 -12,-29c1.11,-0.06 2.11,-0.39 3,-1z" fill="#f29d00" id="svg_494"/>
  </g>
  <g id="svg_495">
   <path d="m288.5,326.5c2.52,9.41 5.35,18.74 8.5,28c0.38,0.56 0.88,0.89 1.5,1c-0.79,0.9 -1.79,1.57 -3,2c-2.19,-10.24 -5.19,-20.24 -9,-30c0.67,-0.33 1.33,-0.67 2,-1z" fill="#915e00" id="svg_496"/>
  </g>
  <g id="svg_497">
   <path d="m224.5,329.5c5.48,2.1 11.15,3.43 17,4c0.44,6.5 1.1,12.83 2,19c0,4.67 0,9.33 0,14c0,1.33 0,2.67 0,4c-4,0 -8,0 -12,0c-8.94,-0.4 -17.61,-2.07 -26,-5c5.83,-12.32 12.16,-24.32 19,-36z" fill="#faa201" id="svg_498"/>
  </g>
  <g id="svg_499">
   <path d="m342.5,339.5c-1.33,0 -2,0.67 -2,2c-1.33,0 -2,0.67 -2,2c-4.99,4.49 -9.82,9.16 -14.5,14c-0.67,-0.67 -0.67,-1.33 0,-2c4.44,-3.93 8.27,-8.26 11.5,-13c1.33,-0.67 2.33,-1.67 3,-3c0.9,-0.71 1.24,-1.71 1,-3c3.3,-3.15 6.13,-6.82 8.5,-11c3.18,-7.03 6.35,-14.03 9.5,-21c0.33,0.33 0.67,0.67 1,1c-3.12,8.24 -6.79,16.24 -11,24c1.33,1.33 2.67,2.67 4,4c-0.33,0.33 -0.67,0.67 -1,1c-1.33,-1 -2.67,-2 -4,-3c-2.4,2.14 -3.74,4.81 -4,8z" fill="#382b5a" id="svg_500"/>
  </g>
  <g id="svg_501">
   <path d="m368.5,365.5c-0.67,0 -1,-0.33 -1,-1c22.31,-22.11 36.98,-48.61 44,-79.5c-2.2,-1.04 -4.53,-1.88 -7,-2.5c2.48,-0.11 4.98,-0.44 7.5,-1c0.94,-9.01 1.94,-18.01 3,-27c0.17,43.69 -15.33,80.69 -46.5,111z" fill="#3e2d5a" id="svg_502"/>
  </g>
  <g id="svg_503">
   <path d="m273.5,332.5c1.32,-0.17 2.49,0.16 3.5,1c4.53,9.05 9.03,18.05 13.5,27c-9.91,4.41 -20.24,7.41 -31,9c-1.33,0 -2.67,0 -4,0c0,-4.67 0,-9.33 0,-14c0.89,-6.96 1.22,-13.96 1,-21c5.71,-0.34 11.38,-1.01 17,-2z" fill="#fba201" id="svg_504"/>
  </g>
  <g id="svg_505">
   <path d="m249.5,253.5c0,26.67 0,53.33 0,80c2.33,0 4.67,0 7,0c1.92,0.28 3.58,-0.05 5,-1c4.33,-0.67 8.67,-1.33 13,-2c2.36,-1.16 4.69,-2.16 7,-3c1.65,-0.16 2.99,-0.83 4,-2c0.67,-0.33 1.33,-0.67 2,-1c6.38,-2.19 11.72,-5.86 16,-11c1.29,-0.24 2.29,0.1 3,1c-5.73,4.39 -11.73,8.39 -18,12c-0.67,0.33 -1.33,0.67 -2,1c-0.89,0.61 -1.89,0.94 -3,1c-3.41,1.34 -6.74,2.68 -10,4c-5.62,0.99 -11.29,1.66 -17,2c-1.67,0 -3.33,0 -5,0c0,2 0,4 0,6c-0.81,-1.79 -1.31,-3.79 -1.5,-6c-0.5,12 -0.67,24 -0.5,36c-0.33,0 -0.67,0 -1,0c0,-12 0,-24 0,-36c-2,0 -4,0 -6,0c0.86,5.95 1.2,11.95 1,18c-0.9,-6.17 -1.56,-12.5 -2,-19c-5.85,-0.57 -11.52,-1.9 -17,-4c-2.6,-1.3 -5.27,-2.63 -8,-4c-0.67,-0.33 -1.33,-0.67 -2,-1c-0.79,-0.9 -1.79,-1.57 -3,-2c-5.55,-3.28 -10.55,-7.28 -15,-12c-0.76,-1.76 -2.1,-2.76 -4,-3c2.31,-2.97 4.97,-5.64 8,-8c-0.02,2.92 -1.68,5.09 -5,6.5c1.14,1.14 2.14,2.31 3,3.5c3.68,3.68 7.68,7.01 12,10c0.47,1.41 1.47,2.07 3,2c0.79,0.9 1.79,1.57 3,2c2.53,1.52 5.2,2.85 8,4c5.41,2.44 11.08,4.1 17,5c0,-2.33 0,-4.67 0,-7c0.97,2.11 1.3,4.44 1,7c2,0 4,0 6,0c-0.33,-26.5 0,-52.84 1,-79z" fill="#241f4a" id="svg_506"/>
  </g>
  <g id="svg_507">
   <path d="m258.5,314.5c-0.09,6.02 -0.43,12.02 -1,18c1.33,0 2.67,0 4,0c-1.42,0.95 -3.08,1.28 -5,1c0,-1.67 0,-3.33 0,-5c0.03,-4.89 0.7,-9.56 2,-14z" fill="#745630" id="svg_508"/>
  </g>
  <g id="svg_509">
   <path d="m239.5,303.5c0.3,7.51 0.96,14.85 2,22c0,2.33 0,4.67 0,7c-5.92,-0.9 -11.59,-2.56 -17,-5c4.74,-8.48 9.24,-17.15 13.5,-26c0.28,0.92 0.78,1.58 1.5,2z" fill="#f19c05" id="svg_510"/>
  </g>
  <g id="svg_511">
   <path d="m248.5,370.5c-0.71,0.9 -1.71,1.24 -3,1c0.28,-1.92 -0.05,-3.58 -1,-5c-0.33,0 -0.67,0 -1,0c0,-4.67 0,-9.33 0,-14c0.2,-6.05 -0.14,-12.05 -1,-18c2,0 4,0 6,0c0,12 0,24 0,36z" fill="#020148" id="svg_512"/>
  </g>
  <g id="svg_513">
   <path d="m256.5,334.5c0.22,7.04 -0.11,14.04 -1,21c-0.99,4.81 -1.32,9.81 -1,15c-1,0 -2,0 -3,0c-0.9,-9.84 -0.9,-19.84 0,-30c0,-2 0,-4 0,-6c1.67,0 3.33,0 5,0z" fill="#d1ccc8" id="svg_514"/>
  </g>
  <g id="svg_515">
   <path d="m283.5,328.5c2.66,10.31 6.66,19.98 12,29c-1.46,1.24 -3.13,2.24 -5,3c-4.47,-8.95 -8.97,-17.95 -13.5,-27c-1.01,-0.84 -2.18,-1.17 -3.5,-1c3.26,-1.32 6.59,-2.66 10,-4z" fill="#855603" id="svg_516"/>
  </g>
  <g id="svg_517">
   <path d="m159.5,335.5c0,1.33 0.67,2 2,2c0.24,1.9 1.24,3.24 3,4c9.76,9.4 21.09,16.4 34,21c0.34,0.84 1.01,1.17 2,1c1.53,0.81 3.19,1.48 5,2c8.39,2.93 17.06,4.6 26,5c0,0.33 0,0.67 0,1c0,0.33 0,0.67 0,1c-8.82,-0.9 -17.49,-2.56 -26,-5c-1.43,-1.04 -3.1,-1.7 -5,-2c-0.67,0 -1.33,0 -2,0c-12.95,-6.14 -24.95,-13.81 -36,-23c-0.4,-1.02 -1.06,-1.19 -2,-0.5c-1.17,1.17 -2.33,2.33 -3.5,3.5c-0.46,-0.59 -0.63,-1.26 -0.5,-2c0.98,-1.31 1.98,-2.65 3,-4c-0.82,-0.89 -1.82,-1.22 -3,-1c0.11,-0.62 0.44,-1.12 1,-1.5c-4.19,-4.22 -8.02,-8.72 -11.5,-13.5c-0.67,-1 -0.67,-2 0,-3c3.71,5.86 8.21,10.86 13.5,15z" fill="#3a2c5c" id="svg_518"/>
  </g>
  <g id="svg_519">
   <path d="m356.5,338.5c2.24,0.89 4.24,2.22 6,4c-0.5,1.02 -1.17,1.19 -2,0.5c-1.69,-1.31 -3.02,-2.81 -4,-4.5z" fill="#3a2c5a" id="svg_520"/>
  </g>
  <g id="svg_521">
   <path d="m251.5,340.5c-0.9,10.16 -0.9,20.16 0,30c0,0.33 0,0.67 0,1c-0.99,0.17 -1.66,-0.16 -2,-1c-0.17,-12 0,-24 0.5,-36c0.19,2.21 0.69,4.21 1.5,6z" fill="#625f7a" id="svg_522"/>
  </g>
  <g id="svg_523">
   <path d="m162.5,342.5c-3.85,2.76 -7.52,5.76 -11,9c0.09,-1 -0.25,-1.83 -1,-2.5c1.87,-2.04 3.87,-3.87 6,-5.5c-0.13,0.74 0.04,1.41 0.5,2c1.17,-1.17 2.33,-2.33 3.5,-3.5c0.94,-0.69 1.6,-0.52 2,0.5z" fill="#d0c9c1" id="svg_524"/>
  </g>
  <g id="svg_525">
   <path d="m340.5,341.5c7.63,8.13 15.46,16.13 23.5,24c0.69,0.94 0.52,1.6 -0.5,2c-8.33,-8 -16.67,-16 -25,-24c0,-1.33 0.67,-2 2,-2z" fill="#d3cfc9" id="svg_526"/>
  </g>
  <g id="svg_527">
   <path d="m367.5,347.5c2.39,0.87 4.39,2.37 6,4.5c-1.78,-0.04 -3.44,-0.71 -5,-2c-0.75,-0.67 -1.09,-1.5 -1,-2.5z" fill="#453256" id="svg_528"/>
  </g>
  <g id="svg_529">
   <path d="m216.5,325.5c2.73,1.37 5.4,2.7 8,4c-6.84,11.68 -13.17,23.68 -19,36c-1.81,-0.52 -3.47,-1.19 -5,-2c1.25,-0.08 2.08,-0.74 2.5,-2c4.22,-12.11 8.72,-24.11 13.5,-36z" fill="#835501" id="svg_530"/>
  </g>
  <g id="svg_531">
   <path d="m298.5,358.5c-1.11,0.06 -2.11,0.39 -3,1c-1.87,0.76 -3.54,1.76 -5,3c-11.76,4.6 -23.76,7.94 -36,10c-0.33,0 -0.67,0 -1,0c-0.67,0 -1.33,0 -2,0c0,-0.33 0,-0.67 0,-1c0,-0.33 0,-0.67 0,-1c1,0 2,0 3,0c1.92,0.28 3.58,-0.05 5,-1c10.76,-1.59 21.09,-4.59 31,-9c1.87,-0.76 3.54,-1.76 5,-3c1.21,-0.43 2.21,-1.1 3,-2c6.3,-2.82 11.97,-6.66 17,-11.5c1,-0.67 2,-0.67 3,0c-6.56,5.1 -13.22,9.93 -20,14.5z" fill="#362a5c" id="svg_532"/>
  </g>
  <g id="svg_533">
   <path d="m211.5,322.5c1.21,0.43 2.21,1.1 3,2c-1,-0.03 -1.66,0.47 -2,1.5c-4.31,12.43 -8.31,24.93 -12,37.5c-0.99,0.17 -1.66,-0.16 -2,-1c4.32,-13.18 8.65,-26.51 13,-40z" fill="#945f03" id="svg_534"/>
  </g>
  <g id="svg_535">
   <path d="m146.5,355.5c-1,1.67 -2.33,3 -4,4c-0.74,0.13 -1.41,-0.04 -2,-0.5c1.83,-1.83 3.67,-3.67 5.5,-5.5c0.46,0.59 0.63,1.26 0.5,2z" fill="#d8d6d3" id="svg_536"/>
  </g>
  <g id="svg_537">
   <path d="m378.5,356.5c2.82,0.65 4.32,2.31 4.5,5c-2.42,-0.91 -3.92,-2.58 -4.5,-5z" fill="#4b3653" id="svg_538"/>
  </g>
  <g id="svg_539">
   <path d="m298.5,358.5c2.8,9.73 5.8,19.39 9,29c-3.52,-5.77 -6.52,-11.77 -9,-18c-0.99,-3.32 -1.99,-6.66 -3,-10c0.89,-0.61 1.89,-0.94 3,-1z" fill="#9c6500" id="svg_540"/>
  </g>
  <g id="svg_541">
   <path d="m295.5,359.5c1.01,3.34 2.01,6.68 3,10c-0.67,0.33 -1.33,0.67 -2,1c-1.55,-3.13 -3.55,-5.8 -6,-8c1.46,-1.24 3.13,-2.24 5,-3z" fill="#543704" id="svg_542"/>
  </g>
  <g id="svg_543">
   <path d="m388.5,366.5c0.06,-0.54 0.39,-0.88 1,-1c1.89,1.1 3.56,2.44 5,4c-0.33,0.33 -0.67,0.67 -1,1c-1.69,-1.36 -3.35,-2.69 -5,-4z" fill="#433256" id="svg_544"/>
  </g>
  <g id="svg_545">
   <path d="m156.5,338.5c1.18,-0.22 2.18,0.11 3,1c-1.02,1.35 -2.02,2.69 -3,4c-2.13,1.63 -4.13,3.46 -6,5.5c0.75,0.67 1.09,1.5 1,2.5c-1.09,2.09 -2.75,3.42 -5,4c0.13,-0.74 -0.04,-1.41 -0.5,-2c-1.83,1.83 -3.67,3.67 -5.5,5.5c0.59,0.46 1.26,0.63 2,0.5c-0.67,1.33 -1.67,2.33 -3,3c-0.01,-2.5 -0.68,-2.67 -2,-0.5c1.38,1.46 1.05,2.29 -1,2.5c0.06,-0.44 -0.1,-0.77 -0.5,-1c-1.83,1.83 -3.67,3.67 -5.5,5.5c0.67,0.33 1.33,0.67 2,1c-1.33,1.33 -2.67,2.67 -4,4c-0.95,0.62 -1.78,0.45 -2.5,-0.5c-1.83,1.83 -3.67,3.67 -5.5,5.5c0.59,0.46 1.26,0.63 2,0.5c-1.33,2.4 -3,3.74 -5,4c1.42,-5.08 3.25,-10.08 5.5,-15c2.67,-2.37 5.84,-3.54 9.5,-3.5c0.88,-0.71 1.55,-1.54 2,-2.5c1,-1 2,-2 3,-3c5.99,-7.32 12.32,-14.32 19,-21z" fill="#1f164f" id="svg_546"/>
  </g>
  <g id="svg_547">
   <path d="m342.5,339.5c4.97,5.14 9.8,10.47 14.5,16c3.1,3.61 6.6,6.61 10.5,9c0,0.67 0.33,1 1,1c5.63,0.97 8.97,4.3 10,10c0.16,1.37 -0.01,2.71 -0.5,4c-4,-4 -8,-8 -12,-12c-0.72,0.54 -1.22,1.21 -1.5,2c-0.33,0 -0.67,0 -1,0c0,-0.33 0,-0.67 0,-1c0,-0.33 0,-0.67 0,-1c1.02,-0.4 1.19,-1.06 0.5,-2c-8.04,-7.87 -15.87,-15.87 -23.5,-24c0,-1.33 0.67,-2 2,-2z" fill="#120943" id="svg_548"/>
  </g>
  <g id="svg_549">
   <path d="m205.5,367.5c8.51,2.44 17.18,4.1 26,5c4.33,0 8.67,0 13,0c0,2.33 0,4.67 0,7c-0.07,8.35 0.26,16.69 1,25c-1,0 -2,0 -3,0c-17.28,-1.98 -33.62,-6.98 -49,-15c3.02,-8.04 7.02,-15.38 12,-22z" fill="#fba302" id="svg_550"/>
  </g>
  <g id="svg_551">
   <path d="m255.5,355.5c0,4.67 0,9.33 0,14c1.33,0 2.67,0 4,0c-1.42,0.95 -3.08,1.28 -5,1c-0.32,-5.19 0.01,-10.19 1,-15z" fill="#9b6616" id="svg_552"/>
  </g>
  <g id="svg_553">
   <path d="m378.5,375.5c0.95,1.42 1.28,3.08 1,5c-8.23,0.41 -13.23,-3.26 -15,-11c0.28,-0.79 0.78,-1.46 1.5,-2c4,4 8,8 12,12c0.49,-1.29 0.66,-2.63 0.5,-4z" fill="#ded9d4" id="svg_554"/>
  </g>
  <g id="svg_555">
   <path d="m243.5,366.5c0.33,0 0.67,0 1,0c0,1.67 0,3.33 0,5c-4.33,0 -8.67,0 -13,0c0,-0.33 0,-0.67 0,-1c4,0 8,0 12,0c0,-1.33 0,-2.67 0,-4z" fill="#83592c" id="svg_556"/>
  </g>
  <g id="svg_557">
   <path d="m136.5,364.5c0,0.33 0,0.67 0,1c-0.97,8.3 -5.64,12.97 -14,14c-0.74,0.13 -1.41,-0.04 -2,-0.5c1.83,-1.83 3.67,-3.67 5.5,-5.5c0.72,0.95 1.55,1.12 2.5,0.5c1.33,-1.33 2.67,-2.67 4,-4c-0.67,-0.33 -1.33,-0.67 -2,-1c1.83,-1.83 3.67,-3.67 5.5,-5.5c0.4,0.23 0.56,0.56 0.5,1z" fill="#dad6d1" id="svg_558"/>
  </g>
  <g id="svg_559">
   <path d="m363.5,368.5c0,0.33 0,0.67 0,1c-25.64,22.48 -55.64,35.14 -90,38c0,-0.33 0,-0.67 0,-1c33.89,-3.52 63.89,-16.18 90,-38z" fill="#3d2d59" id="svg_560"/>
  </g>
  <g id="svg_561">
   <path d="m198.5,365.5c0.67,0 1.33,0 2,0c-0.56,6.3 -2.89,10.97 -7,14c1.67,-4.69 3.34,-9.36 5,-14z" fill="#966100" id="svg_562"/>
  </g>
  <g id="svg_563">
   <path d="m244.5,366.5c0.95,1.42 1.28,3.08 1,5c1.29,0.24 2.29,-0.1 3,-1c0.33,0 0.67,0 1,0c0.34,0.84 1.01,1.17 2,1c0,0.33 0,0.67 0,1c-0.01,5.52 -0.68,11.18 -2,17c-0.33,4.71 0.01,9.38 1,14c0.68,0.74 1.35,1.41 2,2c6.81,0.99 13.81,1.32 21,1c0,0.33 0,0.67 0,1c-7.33,0 -14.67,0 -22,0c0,1 0,2 0,3c-0.33,0 -0.67,0 -1,0c0,-1 0,-2 0,-3c-1,0 -2,0 -3,0c-1.54,-0.8 -3.21,-1.13 -5,-1c0,-0.33 0,-0.67 0,-1c1.33,0 2.67,0 4,0c-0.11,-8.86 -0.78,-17.52 -2,-26c0,-2.33 0,-4.67 0,-7c-4.33,0 -8.67,0 -13,0c0,-0.33 0,-0.67 0,-1c4.33,0 8.67,0 13,0c0,-1.67 0,-3.33 0,-5z" fill="#131246" id="svg_564"/>
  </g>
  <g id="svg_565">
   <path d="m399.5,375.5c0.4,-1.02 1.06,-1.19 2,-0.5c1.83,1.11 2.66,2.61 2.5,4.5c-1.37,-1.54 -2.87,-2.87 -4.5,-4z" fill="#31295d" id="svg_566"/>
  </g>
  <g id="svg_567">
   <path d="m139.5,362.5c6.44,9.6 14.44,17.77 24,24.5c-1,0.67 -2,0.67 -3,0c-7.89,-7.4 -15.89,-14.56 -24,-21.5c0,-0.33 0,-0.67 0,-1c2.05,-0.21 2.38,-1.04 1,-2.5c1.32,-2.17 1.99,-2 2,0.5z" fill="#433158" id="svg_568"/>
  </g>
  <g id="svg_569">
   <path d="m251.5,372.5c0.67,0 1.33,0 2,0c-0.53,5.65 -0.87,11.32 -1,17c-1,0 -2,0 -3,0c1.32,-5.82 1.99,-11.48 2,-17z" fill="#bcbcc0" id="svg_570"/>
  </g>
  <g id="svg_571">
   <path d="m200.5,365.5c1.9,0.3 3.57,0.96 5,2c-4.98,6.62 -8.98,13.96 -12,22c-1.21,-0.43 -2.21,-1.1 -3,-2c2.16,-2.12 3.16,-4.78 3,-8c4.11,-3.03 6.44,-7.7 7,-14z" fill="#412b07" id="svg_572"/>
  </g>
  <g id="svg_573">
   <path d="m417.5,382.5c2.99,2.98 4.65,6.65 5,11c-4.14,0.17 -8.14,-0.5 -12,-2c1.12,-1.41 2.12,-2.91 3,-4.5c-3.81,-3.36 -3.47,-3.86 1,-1.5c1.36,-0.69 2.36,-1.69 3,-3z" fill="#2f265f" id="svg_574"/>
  </g>
  <g id="svg_575">
   <path d="m253.5,372.5c0.33,0 0.67,0 1,0c0.04,7.21 -0.62,14.21 -2,21c0,-1.33 0,-2.67 0,-4c0.13,-5.68 0.47,-11.35 1,-17z" fill="#7b5413" id="svg_576"/>
  </g>
  <g id="svg_577">
   <path d="m298.5,369.5c2.48,6.23 5.48,12.23 9,18c0.51,2.69 1.51,5.19 3,7.5c-0.95,0.62 -1.78,0.45 -2.5,-0.5c-3.57,-8.15 -7.41,-16.15 -11.5,-24c0.67,-0.33 1.33,-0.67 2,-1z" fill="#271a02" id="svg_578"/>
  </g>
  <g id="svg_579">
   <path d="m249.5,389.5c1,0 2,0 3,0c0,1.33 0,2.67 0,4c0,4 0,8 0,12c-0.65,-0.59 -1.32,-1.26 -2,-2c-0.99,-4.62 -1.33,-9.29 -1,-14z" fill="#6f6370" id="svg_580"/>
  </g>
  <g id="svg_581">
   <path d="m190.5,387.5c0.79,0.9 1.79,1.57 3,2c15.38,8.02 31.72,13.02 49,15c0,0.33 0,0.67 0,1c0,0.33 0,0.67 0,1c-17.62,-2.32 -34.29,-7.65 -50,-16c-0.82,1.79 -1.82,3.45 -3,5c0.24,-2.02 0.24,-4.19 0,-6.5c-6.5,-3.75 -12.84,-7.75 -19,-12c0.5,-0.5 1,-1 1.5,-1.5c5.6,4.88 11.76,8.88 18.5,12z" fill="#3b2c57" id="svg_582"/>
  </g>
  <g id="svg_583">
   <path d="m244.5,379.5c1.22,8.48 1.89,17.14 2,26c-1.33,0 -2.67,0 -4,0c0,-0.33 0,-0.67 0,-1c1,0 2,0 3,0c-0.74,-8.31 -1.07,-16.65 -1,-25z" fill="#a16911" id="svg_584"/>
  </g>
  <g id="svg_585">
   <path d="m247.5,407.5c1,0 2,0 3,0c0,1 0,2 0,3c-1.27,6.54 -1.27,13.2 0,20c0.89,2.55 1.22,5.22 1,8c-1,0 -2,0 -3,0c1.21,-6.89 -1.12,-12.05 -7,-15.5c2.5,-1.17 4.33,-3 5.5,-5.5c0.5,-3.32 0.66,-6.65 0.5,-10z" fill="#1b1431" id="svg_586"/>
  </g>
  <g id="svg_587">
   <path d="m250.5,410.5c0.33,0 0.67,0 1,0c-0.94,5.36 0.72,9.53 5,12.5c-2.93,1.91 -4.93,4.41 -6,7.5c-1.27,-6.8 -1.27,-13.46 0,-20z" fill="#79696a" id="svg_588"/>
  </g>
  <g id="svg_589">
   <path d="m142.5,440.5c11.67,-0.17 23.34,0 35,0.5c11.12,3.74 14.62,11.24 10.5,22.5c-1.5,2.83 -3.67,5 -6.5,6.5c2.5,1.17 4.33,3 5.5,5.5c1.2,6.25 1.87,12.59 2,19c0.69,0.52 1.19,1.19 1.5,2c-4.55,1.3 -9.05,1.3 -13.5,0c-0.33,-5.67 -0.67,-11.33 -1,-17c-0.37,-0.92 -0.87,-1.75 -1.5,-2.5c-6.55,-1.42 -13.22,-1.92 -20,-1.5c0,7.33 0,14.67 0,22c-4,0 -8,0 -12,0c0,-19 0,-38 0,-57z" fill="#f5f3f0" id="svg_590"/>
  </g>
  <g id="svg_591">
   <path d="m270.5,440.5c0.17,6.68 0,13.34 -0.5,20c-0.72,-0.54 -1.22,-1.21 -1.5,-2c0.67,-6 1.33,-12 2,-18z" fill="#facb74" id="svg_592"/>
  </g>
  <g id="svg_593">
   <path d="m270.5,440.5c3.33,0 6.67,0 10,0c0,19 0,38 0,57c-3.33,0 -6.67,0 -10,0c0.16,-1.7 -0.01,-3.37 -0.5,-5c-6.24,6.4 -13.41,7.57 -21.5,3.5c-6.31,-5.55 -8.98,-12.55 -8,-21c0.05,-15.73 7.72,-22.4 23,-20c1.85,1.03 3.51,2.2 5,3.5c0.28,0.79 0.78,1.46 1.5,2c0.5,-6.66 0.67,-13.32 0.5,-20z" fill="#f5f4f2" id="svg_594"/>
  </g>
  <g id="svg_595">
   <path d="m270.5,440.5c3.46,-0.98 7.13,-1.31 11,-1c0.33,19.51 0,38.84 -1,58c0,-19 0,-38 0,-57c-3.33,0 -6.67,0 -10,0z" fill="#f8e1b9" id="svg_596"/>
  </g>
  <g id="svg_597">
   <path d="m154.5,449.5c6.76,-0.38 13.42,0.12 20,1.5c4,4.33 4,8.67 0,13c-6.58,1.38 -13.24,1.88 -20,1.5c0,-5.33 0,-10.67 0,-16z" fill="#fea815" id="svg_598"/>
  </g>
  <g id="svg_599">
   <path d="m209.5,453.5c5.87,-0.45 11.53,0.38 17,2.5c2.83,1.5 5,3.67 6.5,6.5c0.33,10.33 0.67,20.67 1,31c0.5,1 1,2 1.5,3c-3.94,0.99 -7.94,1.32 -12,1c0.19,-1.6 -0.31,-2.94 -1.5,-4c-8.4,6.62 -16.74,6.62 -25,0c-4.25,-9.94 -1.41,-16.77 8.5,-20.5c5.67,-0.66 11.17,-1.83 16.5,-3.5c0.47,-4.86 -1.86,-7.19 -7,-7c-4.43,-0.22 -6.93,1.78 -7.5,6c-3.67,0 -7.33,0 -11,0c1.16,-7.82 5.5,-12.82 13,-15z" fill="#f5f3ef" id="svg_600"/>
  </g>
  <g id="svg_601">
   <path d="m302.5,453.5c5.87,-0.45 11.54,0.38 17,2.5c2.83,1.5 5,3.67 6.5,6.5c0.33,10.33 0.67,20.67 1,31c0.5,1 1,2 1.5,3c-3.94,0.99 -7.94,1.32 -12,1c0.19,-1.6 -0.31,-2.94 -1.5,-4c-8.4,6.62 -16.74,6.62 -25,0c-4.25,-9.94 -1.42,-16.77 8.5,-20.5c5.67,-0.66 11.17,-1.83 16.5,-3.5c0.47,-4.86 -1.86,-7.19 -7,-7c-4.43,-0.22 -6.93,1.78 -7.5,6c-3.67,0 -7.33,0 -11,0c1.16,-7.82 5.5,-12.82 13,-15z" fill="#f5f3ef" id="svg_602"/>
  </g>
  <g id="svg_603">
   <path d="m354.5,453.5c2,0 4,0 6,0c0,4 0,8 0,12c-6.19,-1.51 -10.69,0.49 -13.5,6c-0.5,8.66 -0.67,17.33 -0.5,26c-3.67,0 -7.33,0 -11,0c0,-14.33 0,-28.67 0,-43c3.67,0 7.33,0 11,0c-0.16,2.03 0,4.03 0.5,6c2.07,-2.91 4.57,-5.24 7.5,-7z" fill="#f5f3ef" id="svg_604"/>
  </g>
  <g id="svg_605">
   <path d="m257.5,463.5c6.11,-0.92 10.28,1.41 12.5,7c1.25,5.75 0.42,11.08 -2.5,16c-7.37,5.13 -12.53,3.47 -15.5,-5c-1.99,-7.37 -0.15,-13.37 5.5,-18z" fill="#fea711" id="svg_606"/>
  </g>
  <g id="svg_607">
   <path d="m219.5,477.5c1,0 2,0 3,0c1.1,8.06 -2.4,12.4 -10.5,13c-5.09,-0.35 -6.76,-3.01 -5,-8c0.9,-1.2 2.07,-2.04 3.5,-2.5c3.24,-0.41 6.24,-1.24 9,-2.5z" fill="#fea811" id="svg_608"/>
  </g>
  <g id="svg_609">
   <path d="m312.5,477.5c1,0 2,0 3,0c1.1,8.06 -2.4,12.4 -10.5,13c-5.09,-0.35 -6.76,-3.01 -5,-8c0.9,-1.2 2.07,-2.04 3.5,-2.5c3.24,-0.41 6.24,-1.24 9,-2.5z" fill="#fea811" id="svg_610"/>
  </g>
 </g>
</svg>