<svg xmlns="http://www.w3.org/2000/svg" xmlns:xlink="http://www.w3.org/1999/xlink" width="500" zoomAndPan="magnify" viewBox="0 0 375 374.999991" height="500" preserveAspectRatio="xMidYMid meet" version="1.0"><defs><g/><clipPath id="36e3def74a"><path d="M 208.078125 131.777344 L 325.828125 131.777344 L 325.828125 227 L 208.078125 227 Z M 208.078125 131.777344 " clip-rule="nonzero"/></clipPath><clipPath id="976ebc243f"><path d="M 53.757812 148.8125 L 171.507812 148.8125 L 171.507812 244.0625 L 53.757812 244.0625 Z M 53.757812 148.8125 " clip-rule="nonzero"/></clipPath><clipPath id="c4babee447"><path d="M 112.53125 112.5 L 262.53125 112.5 L 262.53125 262.5 L 112.53125 262.5 Z M 112.53125 112.5 " clip-rule="nonzero"/></clipPath><clipPath id="f77fd23770"><path d="M 255.179688 131.777344 L 282.179688 131.777344 L 282.179688 146 L 255.179688 146 Z M 255.179688 131.777344 " clip-rule="nonzero"/></clipPath><clipPath id="77644f9532"><path d="M 90.644531 227.375 L 121.394531 227.375 L 121.394531 243.125 L 90.644531 243.125 Z M 90.644531 227.375 " clip-rule="nonzero"/></clipPath></defs><rect x="-37.5" width="450" fill="#ffffff" y="-37.499999" height="449.999989" fill-opacity="1"/><rect x="-37.5" width="450" fill="#2c363f" y="-37.499999" height="449.999989" fill-opacity="1"/><g clip-path="url(#36e3def74a)"><path fill="#226c3b" d="M 246.894531 226.875 C 232.9375 226.875 219.835938 225.230469 208.449219 222.339844 C 216.285156 223.527344 224.664062 224.167969 233.375 224.167969 C 277.042969 224.167969 312.441406 208.050781 312.441406 188.164062 C 312.441406 174.636719 296.054688 162.855469 271.820312 156.695312 C 303.273438 161.453125 325.957031 174.953125 325.957031 190.878906 C 325.957031 210.757812 290.558594 226.875 246.894531 226.875 Z M 248.359375 150.722656 L 248.359375 150.429688 C 265.792969 150.429688 267.058594 147.601562 267.058594 131.726562 L 267.347656 131.726562 C 267.347656 147.601562 268.621094 150.429688 286.054688 150.429688 L 286.054688 150.722656 C 268.621094 150.722656 267.347656 153.542969 267.347656 169.417969 L 267.058594 169.417969 C 267.058594 153.542969 265.792969 150.722656 248.359375 150.722656 " fill-opacity="1" fill-rule="evenodd"/></g><g clip-path="url(#976ebc243f)"><path fill="#226c3b" d="M 132.695312 148.964844 C 146.648438 148.964844 159.753906 150.609375 171.140625 153.503906 C 163.304688 152.3125 154.925781 151.671875 146.210938 151.671875 C 102.546875 151.671875 67.148438 167.789062 67.148438 187.679688 C 67.148438 201.203125 83.535156 212.988281 107.765625 219.144531 C 76.3125 214.390625 53.628906 200.886719 53.628906 184.964844 C 53.628906 165.082031 89.03125 148.964844 132.695312 148.964844 Z M 131.226562 225.121094 L 131.226562 225.410156 C 113.796875 225.410156 112.53125 228.238281 112.53125 244.113281 L 112.238281 244.113281 C 112.238281 228.238281 110.96875 225.410156 93.535156 225.410156 L 93.535156 225.121094 C 110.96875 225.121094 112.238281 222.300781 112.238281 206.421875 L 112.53125 206.421875 C 112.53125 222.300781 113.796875 225.121094 131.226562 225.121094 " fill-opacity="1" fill-rule="evenodd"/></g><g clip-path="url(#c4babee447)"><path fill="#f2efea" d="M 187.546875 262.496094 C 187.546875 262.496094 187.539062 262.496094 187.535156 262.496094 L 185.257812 262.460938 L 185.253906 262.460938 L 183.058594 262.410156 C 183.050781 262.410156 183.039062 262.410156 183.03125 262.410156 L 180.988281 262.328125 C 180.972656 262.328125 180.96875 262.328125 180.953125 262.328125 L 179.113281 262.21875 C 179.101562 262.21875 179.09375 262.21875 179.082031 262.21875 L 177.503906 262.082031 C 177.488281 262.082031 177.476562 262.082031 177.464844 262.074219 L 176.203125 261.914062 C 176.1875 261.914062 176.183594 261.914062 176.167969 261.910156 L 175.234375 261.730469 L 173.277344 261.199219 L 163.234375 258.703125 C 163.226562 258.703125 163.226562 258.703125 163.21875 258.695312 C 163.210938 258.695312 163.207031 258.6875 163.199219 258.6875 L 162.160156 258.332031 C 162.148438 258.328125 162.132812 258.320312 162.121094 258.3125 L 152.40625 253.792969 L 151.195312 253.324219 L 150.375 252.949219 C 150.347656 252.9375 150.324219 252.921875 150.296875 252.902344 L 139.640625 245.527344 C 139.613281 245.507812 139.59375 245.496094 139.570312 245.46875 L 130.332031 236.3125 C 130.3125 236.292969 130.292969 236.273438 130.28125 236.246094 L 122.753906 225.53125 C 122.742188 225.511719 122.726562 225.488281 122.714844 225.46875 L 117.152344 213.570312 C 117.140625 213.542969 117.128906 213.515625 117.121094 213.484375 L 117.101562 213.398438 L 113.714844 200.777344 C 113.710938 200.757812 113.703125 200.730469 113.703125 200.710938 L 113.683594 200.582031 C 113.675781 200.554688 113.671875 200.535156 113.671875 200.507812 L 112.539062 187.65625 L 112.539062 187.652344 L 112.53125 187.605469 C 112.53125 187.574219 112.53125 187.539062 112.539062 187.507812 L 112.539062 187.425781 L 113.664062 174.539062 L 113.695312 174.3125 C 113.703125 174.289062 113.703125 174.261719 113.714844 174.234375 L 113.734375 174.164062 L 117.113281 161.546875 C 117.121094 161.523438 117.132812 161.488281 117.140625 161.464844 L 122.6875 149.566406 C 122.695312 149.546875 122.707031 149.527344 122.722656 149.507812 C 122.722656 149.5 122.726562 149.5 122.726562 149.492188 L 130.246094 138.777344 C 130.261719 138.757812 130.28125 138.734375 130.300781 138.714844 L 139.535156 129.53125 C 139.554688 129.511719 139.582031 129.492188 139.609375 129.472656 L 150.257812 122.089844 C 150.277344 122.070312 150.304688 122.054688 150.328125 122.042969 L 151.136719 121.675781 L 152.355469 121.207031 L 162.074219 116.679688 C 162.089844 116.671875 162.101562 116.667969 162.113281 116.660156 L 163.152344 116.304688 C 163.171875 116.296875 163.191406 116.292969 163.210938 116.292969 L 163.21875 116.292969 L 175.164062 113.269531 L 176.121094 113.085938 C 176.128906 113.085938 176.140625 113.085938 176.148438 113.078125 L 177.425781 112.917969 C 177.429688 112.917969 177.4375 112.917969 177.445312 112.917969 L 179.042969 112.78125 C 179.046875 112.78125 179.046875 112.78125 179.054688 112.78125 L 180.914062 112.667969 C 180.921875 112.667969 180.921875 112.667969 180.925781 112.667969 L 182.992188 112.585938 L 183 112.585938 L 185.207031 112.53125 L 185.21875 112.53125 L 187.488281 112.503906 L 187.496094 112.503906 L 189.78125 112.53125 C 189.789062 112.53125 189.789062 112.53125 189.796875 112.53125 L 191.996094 112.585938 L 192.003906 112.585938 L 194.074219 112.667969 C 194.082031 112.667969 194.082031 112.667969 194.085938 112.667969 L 195.941406 112.78125 C 195.949219 112.78125 195.949219 112.78125 195.953125 112.78125 L 197.539062 112.917969 C 197.550781 112.917969 197.566406 112.917969 197.578125 112.925781 L 198.839844 113.085938 C 198.847656 113.085938 198.851562 113.085938 198.867188 113.089844 L 199.800781 113.269531 L 201.785156 113.808594 L 211.808594 116.296875 L 212.839844 116.652344 L 224.632812 122.03125 C 224.640625 122.03125 224.648438 122.035156 224.648438 122.035156 C 224.667969 122.042969 224.6875 122.054688 224.699219 122.070312 L 235.367188 129.453125 C 235.386719 129.464844 235.40625 129.484375 235.425781 129.496094 L 244.667969 138.671875 C 244.6875 138.695312 244.707031 138.714844 244.722656 138.738281 L 252.246094 149.449219 C 252.246094 149.453125 252.253906 149.453125 252.253906 149.460938 C 252.265625 149.480469 252.273438 149.5 252.289062 149.519531 L 257.847656 161.410156 C 257.859375 161.4375 257.867188 161.464844 257.882812 161.496094 L 261.292969 174.207031 C 261.300781 174.222656 261.300781 174.242188 261.304688 174.253906 C 261.304688 174.261719 261.304688 174.269531 261.304688 174.273438 L 261.324219 174.445312 C 261.324219 174.457031 261.332031 174.476562 261.332031 174.492188 L 262.460938 187.46875 C 262.460938 187.492188 262.460938 187.511719 262.460938 187.53125 L 261.339844 200.449219 C 261.339844 200.460938 261.339844 200.46875 261.332031 200.480469 C 261.332031 200.488281 261.332031 200.496094 261.332031 200.496094 L 261.3125 200.648438 C 261.3125 200.652344 261.3125 200.667969 261.304688 200.671875 C 261.304688 200.6875 261.300781 200.707031 261.300781 200.71875 L 257.894531 213.429688 C 257.886719 213.457031 257.875 213.492188 257.859375 213.515625 L 252.308594 225.421875 C 252.292969 225.449219 252.28125 225.46875 252.265625 225.492188 L 244.746094 236.207031 C 244.734375 236.226562 244.714844 236.253906 244.695312 236.265625 L 235.460938 245.449219 C 235.441406 245.46875 235.414062 245.488281 235.386719 245.507812 L 224.730469 252.890625 C 224.710938 252.902344 224.6875 252.917969 224.667969 252.929688 L 212.914062 258.300781 L 211.84375 258.667969 C 211.835938 258.667969 211.820312 258.675781 211.816406 258.675781 L 208.601562 259.492188 L 201.777344 261.179688 L 199.839844 261.707031 L 198.878906 261.890625 C 198.871094 261.890625 198.867188 261.890625 198.859375 261.890625 C 198.851562 261.890625 198.847656 261.890625 198.847656 261.890625 L 197.578125 262.046875 C 197.566406 262.046875 197.550781 262.046875 197.539062 262.054688 L 195.96875 262.191406 C 195.953125 262.191406 195.949219 262.191406 195.933594 262.191406 L 194.101562 262.304688 C 194.085938 262.304688 194.082031 262.304688 194.066406 262.304688 L 192.023438 262.390625 C 192.015625 262.390625 192.003906 262.390625 191.996094 262.390625 L 189.800781 262.441406 L 189.796875 262.441406 L 187.519531 262.476562 C 187.558594 262.496094 187.554688 262.496094 187.546875 262.496094 Z M 185.449219 261.625 L 187.140625 261.640625 L 187.140625 260.121094 L 183.976562 260.101562 Z M 187.96875 260.121094 L 187.96875 261.640625 L 189.65625 261.625 L 191.128906 260.09375 Z M 183.167969 261.582031 L 184.265625 261.605469 L 182.808594 260.089844 L 180.296875 260.035156 Z M 192.300781 260.082031 L 190.839844 261.601562 L 191.9375 261.574219 L 194.808594 260.023438 Z M 181.078125 261.496094 L 181.28125 261.5 L 178.476562 259.988281 L 176.984375 259.929688 Z M 196.636719 259.984375 L 193.824219 261.5 L 194.023438 261.496094 L 198.125 259.929688 Z M 174.15625 259.820312 L 175.144531 260.128906 L 174.375 259.832031 Z M 200.734375 259.820312 L 199.976562 260.109375 L 200.949219 259.804688 Z M 183.261719 259.261719 L 187.140625 259.285156 L 187.140625 255.402344 L 181.445312 255.363281 Z M 187.972656 255.402344 L 187.972656 259.285156 L 191.851562 259.253906 L 193.667969 255.363281 Z M 178.773438 259.160156 L 182.335938 259.242188 L 180.527344 255.355469 L 175.222656 255.242188 Z M 194.585938 255.347656 L 192.78125 259.234375 L 196.34375 259.15625 L 199.890625 255.238281 Z M 174.609375 259.003906 L 177.601562 259.121094 L 174.066406 255.222656 L 169.464844 255.058594 Z M 201.042969 255.210938 L 197.503906 259.117188 L 200.496094 258.996094 L 205.644531 255.039062 Z M 170.902344 258.792969 L 173.136719 258.925781 L 168.03125 255 L 164.382812 254.804688 Z M 207.078125 254.988281 L 201.96875 258.910156 L 204.195312 258.78125 L 210.71875 254.785156 Z M 167.753906 258.53125 L 169.0625 258.640625 L 162.632812 254.707031 L 160.148438 254.507812 Z M 212.480469 254.683594 L 206.050781 258.628906 L 207.359375 258.515625 L 214.964844 254.488281 Z M 165.25 258.226562 L 165.449219 258.253906 L 158.046875 254.335938 L 156.933594 254.210938 Z M 217.0625 254.316406 L 209.660156 258.234375 L 209.855469 258.207031 L 218.171875 254.1875 Z M 181.105469 254.535156 L 187.140625 254.574219 L 187.140625 248.386719 L 179.304688 248.34375 Z M 187.972656 248.386719 L 187.972656 254.574219 L 194.007812 254.527344 L 195.808594 248.335938 Z M 174.503906 254.402344 L 180.230469 254.519531 L 178.429688 248.335938 L 170.976562 248.199219 Z M 196.675781 248.328125 L 194.875 254.515625 L 200.601562 254.390625 L 204.132812 248.183594 Z M 168.386719 254.1875 L 173.53125 254.371094 L 170.007812 248.179688 L 163.277344 247.960938 Z M 205.105469 248.164062 L 201.582031 254.363281 L 206.722656 254.171875 L 211.828125 247.941406 Z M 162.9375 253.890625 L 167.253906 254.125 L 162.160156 247.921875 L 156.449219 247.640625 Z M 212.941406 247.902344 L 207.84375 254.113281 L 212.164062 253.875 L 218.644531 247.617188 Z M 158.335938 253.527344 L 161.640625 253.792969 L 155.195312 247.574219 L 150.742188 247.257812 Z M 219.921875 247.546875 L 213.472656 253.773438 L 216.773438 253.507812 L 224.371094 247.230469 Z M 154.699219 253.113281 L 156.816406 253.359375 L 149.296875 247.144531 L 146.300781 246.835938 Z M 225.804688 247.121094 L 218.285156 253.335938 L 220.398438 253.09375 L 228.792969 246.8125 Z M 152.144531 252.667969 L 152.886719 252.800781 L 144.675781 246.660156 L 143.335938 246.441406 Z M 230.425781 246.632812 L 222.214844 252.773438 L 222.949219 252.640625 L 231.753906 246.410156 Z M 179.09375 247.507812 L 187.140625 247.554688 L 187.140625 239.230469 L 177.449219 239.1875 Z M 187.972656 239.230469 L 187.972656 247.554688 L 196.027344 247.5 L 197.667969 239.171875 Z M 170.542969 247.355469 L 178.238281 247.5 L 176.597656 239.179688 L 167.328125 239.035156 Z M 198.511719 239.164062 L 196.867188 247.488281 L 204.566406 247.34375 L 207.78125 239.015625 Z M 162.621094 247.101562 L 169.640625 247.328125 L 166.425781 239.015625 L 157.96875 238.785156 Z M 208.679688 239 L 205.472656 247.316406 L 212.492188 247.085938 L 217.140625 238.765625 Z M 155.585938 246.757812 L 161.640625 247.054688 L 157 238.746094 L 149.699219 238.441406 Z M 218.105469 238.730469 L 213.464844 247.039062 L 219.511719 246.738281 L 225.402344 238.421875 Z M 149.671875 246.34375 L 154.515625 246.6875 L 148.640625 238.398438 L 142.769531 238.042969 Z M 226.46875 238.371094 L 220.589844 246.664062 L 225.433594 246.316406 L 232.332031 238.007812 Z M 145.042969 245.871094 L 148.496094 246.226562 L 141.632812 237.96875 L 137.417969 237.59375 Z M 233.472656 237.9375 L 226.613281 246.199219 L 230.054688 245.835938 L 237.6875 237.554688 Z M 141.824219 245.359375 L 143.714844 245.667969 L 136.164062 237.484375 L 133.765625 237.148438 Z M 238.929688 237.445312 L 231.382812 245.632812 L 233.269531 245.324219 L 241.324219 237.101562 Z M 140.09375 244.832031 L 140.167969 244.851562 L 132.390625 236.929688 L 132.042969 236.832031 Z M 242.695312 236.890625 L 234.925781 244.820312 L 234.992188 244.800781 L 243.039062 236.800781 Z M 177.304688 238.351562 L 187.140625 238.398438 L 187.140625 228.195312 L 175.925781 228.15625 Z M 187.972656 228.195312 L 187.972656 238.398438 L 197.808594 238.34375 L 199.1875 228.148438 Z M 167.039062 238.191406 L 176.464844 238.335938 L 175.078125 228.140625 L 164.332031 228.011719 Z M 200.03125 228.136719 L 198.648438 238.332031 L 208.074219 238.179688 L 210.777344 228.003906 Z M 157.539062 237.9375 L 166.175781 238.171875 L 163.476562 228.003906 L 153.636719 227.792969 Z M 211.636719 227.984375 L 208.9375 238.152344 L 217.566406 237.910156 L 221.472656 227.761719 Z M 149.125 237.589844 L 156.625 237.902344 L 152.726562 227.769531 L 144.183594 227.484375 Z M 222.378906 227.75 L 218.480469 237.882812 L 225.980469 237.570312 L 230.925781 227.464844 Z M 142.085938 237.167969 L 148.171875 237.535156 L 143.238281 227.457031 L 136.300781 227.128906 Z M 231.855469 227.425781 L 226.925781 237.507812 L 233.015625 237.132812 L 238.785156 227.089844 Z M 136.609375 236.6875 L 141.074219 237.082031 L 135.316406 227.070312 L 130.226562 226.714844 Z M 239.777344 227.039062 L 234.019531 237.050781 L 238.476562 236.648438 L 244.859375 226.675781 Z M 132.851562 236.167969 L 135.53125 236.542969 L 129.191406 226.628906 L 126.105469 226.289062 Z M 245.90625 226.597656 L 239.5625 236.511719 L 242.238281 236.136719 L 248.972656 226.257812 Z M 130.878906 235.648438 L 131.628906 235.859375 L 125.003906 226.15625 L 124.054688 225.945312 Z M 250.085938 226.105469 L 243.464844 235.8125 L 244.207031 235.609375 L 251.023438 225.894531 Z M 175.828125 227.320312 L 187.140625 227.359375 L 187.140625 215.648438 L 174.78125 215.613281 Z M 187.96875 215.648438 L 187.96875 227.359375 L 199.28125 227.308594 L 200.324219 215.605469 Z M 164.140625 227.183594 L 174.992188 227.3125 L 173.945312 215.613281 L 162.101562 215.515625 Z M 201.160156 215.605469 L 200.113281 227.308594 L 210.960938 227.167969 L 213 215.503906 Z M 153.339844 226.953125 L 163.292969 227.164062 L 161.246094 215.507812 L 150.386719 215.351562 Z M 213.851562 215.488281 L 211.816406 227.148438 L 221.761719 226.925781 L 224.707031 215.316406 Z M 143.808594 226.644531 L 152.472656 226.925781 L 149.519531 215.332031 L 140.074219 215.121094 Z M 225.566406 215.304688 L 222.621094 226.898438 L 231.285156 226.609375 L 235.007812 215.089844 Z M 135.863281 226.269531 L 142.925781 226.605469 L 139.207031 215.09375 L 131.515625 214.84375 Z M 235.894531 215.066406 L 232.171875 226.578125 L 239.234375 226.234375 L 243.578125 214.8125 Z M 129.714844 225.847656 L 134.949219 226.214844 L 130.609375 214.820312 L 124.921875 214.542969 Z M 244.484375 214.773438 L 240.152344 226.175781 L 245.378906 225.808594 L 250.171875 214.496094 Z M 125.535156 225.394531 L 128.777344 225.757812 L 123.988281 214.488281 L 120.46875 214.21875 Z M 251.089844 214.445312 L 246.320312 225.710938 L 249.550781 225.347656 L 254.613281 214.167969 Z M 123.386719 224.933594 L 124.527344 225.191406 L 119.507812 214.121094 L 118.230469 213.917969 Z M 255.566406 214.074219 L 250.558594 225.144531 L 251.695312 224.890625 L 256.835938 213.871094 Z M 174.714844 214.785156 L 187.132812 214.820312 L 187.132812 202.039062 L 174.066406 202.027344 Z M 187.96875 202.039062 L 187.96875 214.820312 L 200.382812 214.777344 L 201.027344 202.019531 Z M 161.976562 214.679688 L 173.886719 214.777344 L 173.230469 202.019531 L 160.703125 201.96875 Z M 201.863281 202.015625 L 201.21875 214.773438 L 213.128906 214.667969 L 214.398438 201.953125 Z M 150.21875 214.515625 L 161.140625 214.675781 L 159.867188 201.96875 L 148.375 201.882812 Z M 215.226562 201.949219 L 213.957031 214.652344 L 224.875 214.488281 L 226.703125 201.863281 Z M 139.851562 214.285156 L 149.371094 214.496094 L 147.535156 201.875 L 137.539062 201.765625 Z M 227.550781 201.847656 L 225.722656 214.46875 L 235.234375 214.253906 L 237.542969 201.738281 Z M 131.234375 214.011719 L 139.003906 214.265625 L 136.691406 201.765625 L 128.539062 201.632812 Z M 238.398438 201.722656 L 236.089844 214.226562 L 243.855469 213.96875 L 246.546875 201.585938 Z M 124.609375 213.695312 L 130.378906 213.96875 L 127.683594 201.605469 L 121.636719 201.460938 Z M 247.402344 201.566406 L 244.714844 213.929688 L 250.480469 213.648438 L 253.445312 201.414062 Z M 120.125 213.359375 L 123.734375 213.636719 L 120.769531 201.433594 L 116.988281 201.289062 Z M 254.304688 201.390625 L 251.347656 213.589844 L 254.949219 213.304688 L 258.078125 201.238281 Z M 117.855469 213.015625 L 119.230469 213.234375 L 116.109375 201.238281 L 114.664062 201.121094 Z M 258.960938 201.179688 L 255.84375 213.1875 L 257.210938 212.972656 L 260.410156 201 Z M 174.03125 201.191406 L 187.125 201.207031 L 187.121094 187.882812 L 173.800781 187.886719 Z M 187.960938 187.882812 L 187.96875 201.207031 L 201.0625 201.183594 L 201.277344 187.882812 Z M 160.644531 201.140625 L 173.203125 201.191406 L 172.980469 187.886719 L 160.207031 187.894531 Z M 202.105469 187.882812 L 201.890625 201.183594 L 214.445312 201.125 L 214.871094 187.882812 Z M 148.292969 201.054688 L 159.808594 201.140625 L 159.375 187.894531 L 147.667969 187.902344 Z M 215.707031 187.875 L 215.28125 201.121094 L 226.796875 201.027344 L 227.414062 187.875 Z M 137.425781 200.9375 L 147.457031 201.046875 L 146.832031 187.902344 L 136.636719 187.90625 Z M 228.25 187.875 L 227.628906 201.019531 L 237.65625 200.902344 L 238.4375 187.875 Z M 128.40625 200.792969 L 136.597656 200.921875 L 135.808594 187.90625 L 127.492188 187.914062 Z M 239.273438 187.875 L 238.488281 200.890625 L 246.671875 200.75 L 247.582031 187.875 Z M 121.484375 200.625 L 127.574219 200.769531 L 126.660156 187.914062 L 120.480469 187.921875 Z M 248.421875 187.875 L 247.515625 200.730469 L 253.59375 200.582031 L 254.59375 187.875 Z M 116.824219 200.449219 L 120.644531 200.601562 L 119.636719 187.921875 L 115.761719 187.925781 Z M 255.429688 187.875 L 254.429688 200.546875 L 258.242188 200.398438 L 259.300781 187.875 Z M 114.484375 200.273438 L 115.984375 200.398438 L 114.925781 187.925781 L 113.402344 187.933594 Z M 260.136719 187.875 L 259.082031 200.324219 L 260.582031 200.140625 L 261.648438 187.882812 Z M 114.484375 174.753906 L 113.402344 187.097656 L 114.925781 187.09375 L 115.976562 174.621094 Z M 116.820312 174.570312 L 115.761719 187.09375 L 119.636719 187.085938 L 120.636719 174.414062 Z M 121.472656 174.386719 L 120.472656 187.09375 L 126.652344 187.085938 L 127.558594 174.230469 Z M 128.394531 174.207031 L 127.488281 187.078125 L 135.800781 187.074219 L 136.578125 174.058594 Z M 137.417969 174.050781 L 136.636719 187.078125 L 146.832031 187.074219 L 147.449219 173.925781 Z M 148.285156 173.914062 L 147.667969 187.066406 L 159.375 187.058594 L 159.800781 173.820312 Z M 160.636719 173.8125 L 160.207031 187.058594 L 172.980469 187.054688 L 173.199219 173.75 Z M 174.027344 173.75 L 173.808594 187.054688 L 187.125 187.046875 L 187.121094 173.722656 Z M 187.953125 173.730469 L 187.960938 187.054688 L 201.277344 187.046875 L 201.054688 173.742188 Z M 260.136719 187.046875 L 261.648438 187.054688 L 260.570312 174.789062 L 259.078125 174.597656 Z M 201.882812 173.742188 L 202.105469 187.046875 L 214.871094 187.046875 L 214.433594 173.800781 Z M 255.429688 187.039062 L 259.300781 187.039062 L 258.234375 174.519531 L 254.421875 174.359375 Z M 215.273438 173.800781 L 215.707031 187.039062 L 227.414062 187.039062 L 226.78125 173.886719 Z M 248.421875 187.039062 L 254.59375 187.039062 L 253.582031 174.332031 L 247.5 174.183594 Z M 227.617188 173.894531 L 228.25 187.039062 L 238.4375 187.039062 L 237.648438 174.011719 Z M 239.273438 187.039062 L 247.585938 187.039062 L 246.667969 174.164062 L 238.484375 174.023438 Z M 258.945312 173.742188 L 260.40625 173.925781 L 257.191406 161.957031 L 255.824219 161.734375 Z M 117.84375 162.007812 L 114.664062 173.90625 L 116.109375 173.78125 L 119.21875 161.785156 Z M 120.105469 161.660156 L 116.976562 173.730469 L 120.757812 173.570312 L 123.714844 161.378906 Z M 254.296875 173.523438 L 258.070312 173.675781 L 254.929688 161.609375 L 251.328125 161.324219 Z M 124.589844 161.3125 L 121.625 173.546875 L 127.671875 173.386719 L 130.351562 161.03125 Z M 247.390625 173.347656 L 253.429688 173.5 L 250.453125 161.265625 L 244.6875 160.984375 Z M 131.214844 160.988281 L 128.527344 173.375 L 136.675781 173.230469 L 138.984375 160.71875 Z M 238.390625 173.191406 L 246.535156 173.328125 L 243.832031 160.945312 L 236.070312 160.6875 Z M 139.839844 160.699219 L 137.53125 173.214844 L 147.527344 173.089844 L 149.351562 160.46875 Z M 227.546875 173.066406 L 237.535156 173.183594 L 235.214844 160.667969 L 225.703125 160.449219 Z M 150.199219 160.457031 L 148.371094 173.085938 L 159.855469 172.992188 L 161.117188 160.285156 Z M 215.21875 172.964844 L 226.703125 173.050781 L 224.863281 160.425781 L 213.945312 160.261719 Z M 161.957031 160.273438 L 160.695312 172.980469 L 173.222656 172.921875 L 173.867188 160.167969 Z M 201.855469 172.914062 L 214.386719 172.964844 L 213.109375 160.261719 L 201.207031 160.160156 Z M 174.695312 160.160156 L 174.050781 172.921875 L 187.121094 172.894531 L 187.113281 160.121094 Z M 187.953125 172.894531 L 201.023438 172.90625 L 200.363281 160.148438 L 187.949219 160.117188 Z M 123.359375 150.089844 L 118.21875 161.101562 L 119.492188 160.898438 L 124.503906 149.828125 Z M 255.546875 160.851562 L 256.816406 161.054688 L 251.667969 150.046875 L 250.53125 149.78125 Z M 125.507812 149.625 L 120.453125 160.804688 L 123.976562 160.523438 L 128.75 149.257812 Z M 251.070312 160.476562 L 254.585938 160.753906 L 249.519531 149.578125 L 246.285156 149.210938 Z M 129.6875 149.15625 L 124.898438 160.464844 L 130.582031 160.179688 L 134.914062 148.785156 Z M 244.464844 160.140625 L 250.144531 160.425781 L 245.347656 149.117188 L 240.121094 148.742188 Z M 135.828125 148.722656 L 131.488281 160.148438 L 139.179688 159.886719 L 142.894531 148.375 Z M 235.875 159.847656 L 243.558594 160.101562 L 239.207031 148.683594 L 232.148438 148.34375 Z M 143.78125 148.335938 L 140.0625 159.859375 L 149.507812 159.636719 L 152.445312 148.039062 Z M 225.546875 159.609375 L 234.984375 159.828125 L 231.257812 148.304688 L 222.59375 148.015625 Z M 153.3125 148.015625 L 150.367188 159.617188 L 161.226562 159.445312 L 163.265625 147.789062 Z M 213.832031 159.433594 L 224.6875 159.597656 L 221.734375 147.996094 L 211.789062 147.777344 Z M 164.113281 147.777344 L 162.074219 159.4375 L 173.921875 159.332031 L 174.960938 147.640625 Z M 201.140625 159.320312 L 212.984375 159.417969 L 210.941406 147.765625 L 200.09375 147.632812 Z M 175.800781 147.625 L 174.761719 159.328125 L 187.121094 159.289062 L 187.113281 147.582031 Z M 187.949219 159.289062 L 200.304688 159.320312 L 199.253906 147.621094 L 187.941406 147.582031 Z M 130.847656 139.371094 L 124.03125 149.085938 L 124.976562 148.867188 L 131.589844 139.160156 Z M 250.058594 148.824219 L 251 149.039062 L 244.175781 139.335938 L 243.433594 139.128906 Z M 132.816406 138.839844 L 126.082031 148.71875 L 129.164062 148.371094 L 135.5 138.457031 Z M 245.871094 148.328125 L 248.949219 148.679688 L 242.203125 138.804688 L 239.527344 138.425781 Z M 136.578125 138.3125 L 130.203125 148.285156 L 135.289062 147.914062 L 141.042969 137.910156 Z M 239.75 147.882812 L 244.832031 148.246094 L 238.445312 138.28125 L 233.988281 137.878906 Z M 142.054688 137.824219 L 136.28125 147.871094 L 143.21875 147.527344 L 148.148438 137.449219 Z M 231.832031 147.496094 L 238.757812 147.832031 L 232.980469 137.792969 L 226.894531 137.417969 Z M 149.09375 137.390625 L 144.15625 147.488281 L 152.703125 147.199219 L 156.601562 137.070312 Z M 222.347656 147.179688 L 230.882812 147.460938 L 225.933594 137.367188 L 218.433594 137.050781 Z M 157.5 137.035156 L 153.601562 147.179688 L 163.441406 146.957031 L 166.136719 136.789062 Z M 211.613281 146.941406 L 221.445312 147.160156 L 217.535156 137.023438 L 208.902344 136.789062 Z M 167.003906 136.765625 L 164.308594 146.941406 L 175.058594 146.804688 L 176.429688 136.617188 Z M 199.996094 146.792969 L 210.742188 146.921875 L 208.035156 136.753906 L 198.609375 136.601562 Z M 177.273438 136.601562 L 175.898438 146.792969 L 187.113281 146.738281 L 187.105469 136.542969 Z M 187.941406 146.746094 L 199.15625 146.785156 L 197.769531 136.597656 L 187.933594 136.550781 Z M 140.054688 130.179688 L 132.015625 138.179688 L 132.359375 138.082031 L 140.121094 130.160156 Z M 242.664062 138.042969 L 243 138.132812 L 234.953125 130.148438 L 234.894531 130.128906 Z M 141.785156 129.65625 L 133.730469 137.871094 L 136.132812 137.53125 L 143.675781 129.347656 Z M 238.890625 137.492188 L 241.285156 137.832031 L 233.226562 129.621094 L 231.339844 129.3125 Z M 145.003906 129.128906 L 137.378906 137.40625 L 141.59375 137.023438 L 148.449219 128.769531 Z M 233.433594 136.992188 L 237.648438 137.371094 L 230.015625 129.101562 L 226.574219 128.742188 Z M 149.632812 128.648438 L 142.738281 136.953125 L 148.601562 136.589844 L 154.476562 128.292969 Z M 226.429688 136.558594 L 232.292969 136.917969 L 225.390625 128.625 L 220.550781 128.273438 Z M 155.546875 128.222656 L 149.660156 136.539062 L 156.960938 136.222656 L 161.601562 127.917969 Z M 218.074219 136.203125 L 225.375 136.511719 L 219.480469 128.203125 L 213.433594 127.898438 Z M 162.582031 127.875 L 157.933594 136.1875 L 166.394531 135.945312 L 169.59375 127.636719 Z M 208.648438 135.9375 L 217.101562 136.175781 L 212.445312 127.855469 L 205.425781 127.625 Z M 170.503906 127.609375 L 167.292969 135.933594 L 176.5625 135.78125 L 178.199219 127.464844 Z M 198.476562 135.773438 L 207.746094 135.917969 L 204.527344 127.605469 L 196.828125 127.460938 Z M 179.046875 127.453125 L 177.410156 135.773438 L 187.101562 135.722656 L 187.09375 127.40625 Z M 187.933594 135.714844 L 197.625 135.761719 L 195.972656 127.445312 L 187.929688 127.402344 Z M 152.097656 122.332031 L 143.300781 128.558594 L 144.636719 128.339844 L 152.832031 122.199219 Z M 230.378906 128.308594 L 231.707031 128.523438 L 222.90625 122.3125 L 222.175781 122.179688 Z M 154.65625 121.878906 L 146.261719 128.15625 L 149.25 127.839844 L 156.765625 121.628906 Z M 225.765625 127.820312 L 228.75 128.136719 L 220.347656 121.867188 L 218.238281 121.621094 Z M 158.289062 121.464844 L 150.695312 127.734375 L 155.148438 127.414062 L 161.589844 121.195312 Z M 219.882812 127.386719 L 224.324219 127.710938 L 216.726562 121.445312 L 213.425781 121.183594 Z M 162.890625 121.097656 L 156.410156 127.347656 L 162.121094 127.058594 L 167.210938 120.855469 Z M 212.898438 127.039062 L 218.605469 127.320312 L 212.117188 121.078125 L 207.800781 120.839844 Z M 168.339844 120.792969 L 163.234375 127.019531 L 169.964844 126.796875 L 173.480469 120.605469 Z M 205.058594 126.78125 L 211.789062 127.007812 L 206.675781 120.789062 L 201.535156 120.605469 Z M 174.460938 120.570312 L 170.9375 126.769531 L 178.398438 126.625 L 180.191406 120.445312 Z M 196.636719 126.617188 L 204.09375 126.757812 L 200.5625 120.558594 L 194.835938 120.441406 Z M 181.058594 120.433594 L 179.265625 126.617188 L 187.101562 126.566406 L 187.09375 120.386719 Z M 187.929688 126.566406 L 195.761719 126.613281 L 193.957031 120.425781 L 187.921875 120.386719 Z M 165.199219 116.765625 L 156.894531 120.78125 L 157.992188 120.65625 L 165.386719 116.738281 Z M 217.015625 120.636719 L 218.113281 120.761719 L 209.804688 116.75 L 209.613281 116.726562 Z M 167.703125 116.460938 L 160.105469 120.484375 L 162.582031 120.289062 L 169.003906 116.351562 Z M 212.433594 120.261719 L 214.910156 120.460938 L 207.304688 116.441406 L 206.003906 116.332031 Z M 170.859375 116.191406 L 164.34375 120.183594 L 167.984375 119.980469 L 173.085938 116.0625 Z M 207.03125 119.964844 L 210.671875 120.171875 L 204.152344 116.1875 L 201.921875 116.054688 Z M 174.566406 115.976562 L 169.425781 119.921875 L 174.019531 119.75 L 177.550781 115.859375 Z M 200.996094 119.742188 L 205.589844 119.90625 L 200.445312 115.964844 L 197.453125 115.84375 Z M 178.71875 115.8125 L 175.175781 119.722656 L 180.480469 119.609375 L 182.289062 115.734375 Z M 194.539062 119.605469 L 199.84375 119.714844 L 196.289062 115.804688 L 192.726562 115.726562 Z M 183.207031 115.714844 L 181.402344 119.597656 L 187.09375 119.558594 L 187.085938 115.6875 Z M 187.929688 119.558594 L 193.621094 119.597656 L 191.804688 115.714844 L 187.929688 115.6875 Z M 175.03125 114.878906 L 174.125 115.160156 L 174.320312 115.148438 Z M 200.679688 115.140625 L 200.878906 115.15625 L 199.984375 114.878906 Z M 181.027344 113.492188 L 176.9375 115.050781 L 178.457031 114.96875 L 181.21875 113.484375 Z M 196.59375 114.984375 L 198.070312 115.042969 L 193.980469 113.484375 L 193.792969 113.476562 Z M 183.117188 113.40625 L 180.257812 114.945312 L 182.761719 114.886719 L 184.214844 113.375 Z M 192.246094 114.886719 L 194.75 114.9375 L 191.886719 113.398438 L 190.789062 113.375 Z M 185.398438 113.355469 L 183.933594 114.878906 L 187.085938 114.851562 L 187.085938 113.339844 Z M 187.921875 114.851562 L 191.078125 114.871094 L 189.605469 113.355469 L 187.914062 113.339844 Z M 187.921875 114.851562 " fill-opacity="1" fill-rule="nonzero"/></g><g clip-path="url(#f77fd23770)"><path fill="#226c3b" d="M 255.167969 138.792969 L 255.167969 138.6875 C 267.675781 138.6875 268.585938 137.644531 268.585938 131.792969 L 268.792969 131.792969 C 268.792969 137.644531 269.703125 138.6875 282.210938 138.6875 L 282.210938 138.792969 C 269.703125 138.792969 268.792969 139.835938 268.792969 145.6875 L 268.585938 145.6875 C 268.585938 139.835938 267.675781 138.792969 255.167969 138.792969 " fill-opacity="1" fill-rule="evenodd"/></g><g clip-path="url(#77644f9532)"><path fill="#226c3b" d="M 90.632812 235.367188 L 90.632812 235.246094 C 104.882812 235.246094 105.917969 234.058594 105.917969 227.390625 L 106.152344 227.390625 C 106.152344 234.058594 107.191406 235.246094 121.4375 235.246094 L 121.4375 235.367188 C 107.191406 235.367188 106.152344 236.554688 106.152344 243.21875 L 105.917969 243.21875 C 105.917969 236.554688 104.882812 235.367188 90.632812 235.367188 " fill-opacity="1" fill-rule="evenodd"/></g><path stroke-linecap="butt" transform="matrix(0.723966, -0.195892, 0.195892, 0.723966, 73.597632, 176.977884)" fill="none" stroke-linejoin="miter" d="M 3.947577 42.002959 L 11.102464 42.001914 C 12.214318 42.000606 13.073133 41.099904 13.074547 39.977996 L 13.072368 31.112387 C 13.071593 30.038447 13.929581 29.180686 15.008548 29.181271 L 21.435745 29.177568 C 22.546238 29.181288 23.403999 30.039276 23.404774 31.113216 L 23.403404 40.031821 C 23.404712 41.143675 24.262473 42.001663 25.379354 42.001715 L 32.539269 42.00203 C 33.651122 42.000723 34.509938 41.100021 34.504963 39.981779 L 34.508458 30.29757 C 34.505252 28.235572 33.053825 26.779903 30.991828 26.783108 L 30.614053 26.783406 C 29.535085 26.782821 28.677324 25.924833 28.675189 24.85592 C 28.676602 23.734012 29.53459 22.876251 30.613558 22.876836 L 30.866176 22.880443 C 32.971115 22.878065 34.509295 21.341051 34.506917 19.236113 L 34.50595 15.550636 C 34.510124 11.008645 31.211808 7.704333 26.669818 7.700159 L 3.948035 7.703066 C 2.826126 7.701653 1.968139 8.559414 1.966725 9.681323 L 1.9666 40.031705 C 1.967907 41.143558 2.825668 42.001546 3.947577 42.002959 Z M 15.009446 20.48376 C 13.930478 20.483174 13.072717 19.625186 13.073303 18.546219 C 13.071167 17.477306 13.929155 16.619545 15.008123 16.620131 L 21.433959 16.621455 C 22.545813 16.620148 23.403574 17.478136 23.400681 18.545688 C 23.400096 19.624655 22.542108 20.482416 21.436642 20.480056 Z M 15.009446 20.48376 " stroke="#ffffff" stroke-width="6.430695" stroke-opacity="1" stroke-miterlimit="4"/><path stroke-linecap="butt" transform="matrix(0.733284, -0.157464, 0.157464, 0.733284, 101.045506, 169.797382)" fill="none" stroke-linejoin="miter" d="M 3.944059 41.997829 L 11.102969 42.000928 C 12.216457 42.000319 13.072406 41.14002 13.070704 40.031625 L 13.073662 9.678643 C 13.074146 8.560063 12.213847 7.704113 11.106545 7.700724 L 3.946542 7.702716 C 2.827962 7.702232 1.96692 8.561437 1.966436 9.680017 L 1.96857 40.034093 C 1.96518 41.141394 2.82548 41.997344 3.944059 41.997829 Z M 3.944059 41.997829 " stroke="#ffffff" stroke-width="6.430695" stroke-opacity="1" stroke-miterlimit="4"/><path stroke-linecap="butt" transform="matrix(0.740563, -0.118599, 0.118599, 0.740563, 113.041747, 167.032693)" fill="none" stroke-linejoin="miter" d="M 3.946285 41.999508 L 25.119072 41.998629 C 30.562338 42.000025 34.508352 38.011328 34.509748 32.568062 L 34.506648 29.787798 C 34.509691 24.334246 30.561314 20.399964 25.118047 20.398568 L 15.006448 20.398561 C 13.930961 20.395116 13.070982 19.540034 13.075251 18.459404 C 13.073352 17.351413 13.928434 16.491433 15.009064 16.495702 L 32.537578 16.491421 C 33.649888 16.495489 34.50497 15.635509 34.504719 14.517233 L 34.509113 9.681036 C 34.508862 8.56276 33.649706 7.702535 32.541715 7.704434 L 11.3535 7.702842 C 5.915375 7.70227 1.965665 11.648177 1.969412 17.092267 L 1.967369 19.871707 C 1.969468 25.326083 5.911879 29.264684 11.35597 29.260937 L 21.435888 29.261145 C 22.543056 29.264389 23.405085 30.172546 23.402463 31.242891 C 23.400665 32.308092 22.545583 33.168072 21.433273 33.164004 L 3.947549 33.164588 C 2.824129 33.164016 1.969047 34.023996 1.969298 35.142272 L 1.966953 40.031544 C 1.968852 41.139535 2.828008 41.99976 3.946285 41.999508 Z M 3.946285 41.999508 " stroke="#ffffff" stroke-width="6.430695" stroke-opacity="1" stroke-miterlimit="4"/><path stroke-linecap="butt" transform="matrix(0.746916, -0.0679443, 0.0679443, 0.746916, 141.375024, 162.62325)" fill="none" stroke-linejoin="miter" d="M 3.945573 42.001231 L 11.105442 41.99881 C 12.214033 42.000288 13.071343 41.142133 13.07282 40.033542 L 13.07282 31.754707 C 13.074298 30.646116 13.931607 29.787961 15.009077 29.786608 C 16.117668 29.788086 16.977235 30.687362 16.974345 31.753986 L 16.974345 40.032821 C 16.978055 41.141884 17.836209 41.999193 18.944801 42.000671 L 26.10467 41.998249 C 27.223635 42.000671 28.080944 41.142516 28.082422 40.033925 L 28.08175 35.269481 C 28.08274 34.453716 27.956867 33.940201 27.611739 33.249847 L 24.60703 25.921467 C 24.220885 25.107094 24.217618 24.510596 24.607154 23.735405 L 27.611283 16.409725 C 27.957903 15.761377 28.080065 15.165829 28.078692 14.433526 L 28.082264 9.679928 C 28.079498 8.560491 27.221344 7.703182 26.102379 7.70076 L 18.94251 7.703182 C 17.833918 7.701704 16.976609 8.559859 16.974188 9.678824 L 16.975131 17.947284 C 16.976485 19.024754 16.120119 19.872535 15.011056 19.876244 C 13.928871 19.871939 13.07496 19.025475 13.073606 17.948005 L 13.072662 9.679545 C 13.069897 8.560108 12.211742 7.702799 11.103151 7.701321 L 3.943282 7.703743 C 2.824317 7.701321 1.967007 8.559476 1.969773 9.678913 L 1.969931 40.032909 C 1.968453 41.141501 2.826608 41.99881 3.945573 42.001231 Z M 3.945573 42.001231 " stroke="#ffffff" stroke-width="6.430695" stroke-opacity="1" stroke-miterlimit="4"/><path stroke-linecap="butt" transform="matrix(0.74999, 0.00381641, -0.00381641, 0.74999, 175.819827, 159.952007)" fill="none" stroke-linejoin="miter" d="M 3.943572 41.997596 L 11.105124 41.997612 C 12.214538 42.002383 13.074552 41.102162 13.074062 39.982358 L 13.070594 31.112469 C 13.070342 30.03954 13.930568 29.180984 15.008706 29.180707 L 21.435865 29.179252 C 22.545253 29.178815 23.403808 30.039041 23.404085 31.117178 L 23.402584 40.033969 C 23.403021 41.143356 24.261549 41.998373 25.381353 41.997884 L 32.537697 41.997927 C 33.647084 41.99749 34.507124 41.102477 34.506608 39.977465 L 34.509448 30.300241 C 34.50937 28.237714 33.054024 26.781559 30.991498 26.781638 L 30.616503 26.783546 C 29.538365 26.783824 28.67981 25.923598 28.679585 24.855877 C 28.679095 23.736073 29.534113 22.877545 30.61225 22.877267 L 30.867455 22.875968 C 32.96644 22.875704 34.505529 21.341811 34.505239 19.237618 L 34.507308 15.55006 C 34.50503 11.008345 31.212122 7.702142 26.670408 7.704419 L 3.946132 7.700261 C 2.826329 7.700751 1.966103 8.559306 1.966593 9.67911 L 1.970011 40.033654 C 1.96524 41.143068 2.823769 41.998085 3.943572 41.997596 Z M 15.006112 20.48269 C 13.933183 20.482941 13.074628 19.622715 13.07435 18.544578 C 13.074125 17.476857 13.929142 16.618328 15.00728 16.61805 L 21.434466 16.621804 C 22.543853 16.621367 23.402382 17.476384 23.402607 18.544105 C 23.402885 19.622243 22.542659 20.480798 21.433272 20.481235 Z M 15.006112 20.48269 " stroke="#ffffff" stroke-width="6.430695" stroke-opacity="1" stroke-miterlimit="4"/><path stroke-linecap="butt" transform="matrix(0.747993, 0.0548286, -0.0548286, 0.747993, 204.492824, 160.224877)" fill="none" stroke-linejoin="miter" d="M 3.944554 41.998134 L 11.104529 42.000754 C 12.211452 41.99795 13.072986 41.141008 13.070182 40.034085 L 13.071365 34.49313 C 13.073756 33.385826 13.930095 32.529265 15.011046 32.528365 C 16.11797 32.525561 16.977958 33.42865 16.977716 34.494018 L 16.976152 40.029778 C 16.974142 41.142277 17.835898 41.998235 18.943202 42.000626 L 26.102796 41.998052 C 27.22049 41.999681 28.082023 41.142739 28.078839 40.030621 L 28.079191 17.308337 C 28.082903 11.730641 24.053644 7.701919 18.471134 7.703782 L 11.577597 7.702521 C 5.995087 7.704384 1.966365 11.733643 1.967847 17.310958 L 1.967495 40.033242 C 1.965105 41.140546 2.827241 42.001699 3.944554 41.998134 Z M 15.006213 24.554256 C 13.930456 24.554775 13.073514 23.693242 13.073756 22.627873 L 13.071598 18.679967 C 13.073227 17.562274 13.929186 16.700519 15.010518 16.704813 C 16.117441 16.702009 16.974383 17.563543 16.977949 18.680855 L 16.974913 22.629142 C 16.97467 23.69451 16.118331 24.551071 15.006213 24.554256 Z M 15.006213 24.554256 " stroke="#ffffff" stroke-width="6.430695" stroke-opacity="1" stroke-miterlimit="4"/><path stroke-linecap="butt" transform="matrix(0.743209, 0.100699, -0.100699, 0.743209, 228.152613, 161.995888)" fill="none" stroke-linejoin="miter" d="M 3.945572 42.001873 L 18.472596 41.999299 C 24.049301 42.000556 28.080618 37.927621 28.081874 32.350917 L 28.083025 17.308308 C 28.07912 11.732302 24.053336 7.699853 18.472169 7.704457 L 3.944446 7.70187 C 2.824837 7.701146 1.96862 8.558241 1.967896 9.677851 L 1.965129 40.031183 C 1.968168 41.139772 2.825962 42.001149 3.945572 42.001873 Z M 15.010376 33.165417 C 13.932755 33.164259 13.070498 32.308742 13.073054 31.241443 L 13.070393 18.459398 C 13.072516 17.350111 13.928733 16.493015 15.006354 16.494172 C 16.120802 16.495596 16.977898 17.351812 16.975775 18.4611 L 16.977737 31.237984 C 16.97588 32.310444 16.119663 33.167539 15.010376 33.165417 Z M 15.010376 33.165417 " stroke="#ffffff" stroke-width="6.430695" stroke-opacity="1" stroke-miterlimit="4"/><path stroke-linecap="butt" transform="matrix(0.735615, 0.146188, -0.146188, 0.735615, 251.658826, 165.217753)" fill="none" stroke-linejoin="miter" d="M 3.946518 42.001225 L 11.104762 42.001806 C 12.214049 41.999076 13.074125 41.14314 13.071396 40.033854 L 13.069995 34.49561 C 13.072374 33.385309 13.932451 32.529373 15.010071 32.527626 C 16.120373 32.530005 16.978306 33.426856 16.978023 34.494259 L 16.974315 40.033519 C 16.977044 41.142805 17.83298 42.002882 18.942266 42.000152 L 26.10051 42.000732 C 27.221028 42.001081 28.08009 41.140037 28.082469 40.029735 L 28.080628 17.307822 C 28.082338 11.731788 24.052582 7.700348 18.47144 7.699653 L 11.573662 7.700413 C 5.998643 7.703811 1.967204 11.733566 1.965493 17.3096 L 1.967335 40.031514 C 1.970064 41.1408 2.826 42.000877 3.946518 42.001225 Z M 15.007565 24.552227 C 13.929945 24.553974 13.074009 23.693897 13.074292 22.626493 L 13.070944 18.681692 C 13.071292 17.561174 13.931369 16.705238 15.00899 16.703491 C 16.118276 16.700761 16.974211 17.560838 16.973863 18.681356 L 16.977211 22.626158 C 16.976928 23.693562 16.117866 24.554606 15.007565 24.552227 Z M 15.007565 24.552227 " stroke="#ffffff" stroke-width="6.430695" stroke-opacity="1" stroke-miterlimit="4"/><path stroke-linecap="butt" transform="matrix(0.723966, 0.195892, -0.195892, 0.723966, 275.06647, 169.830867)" fill="none" stroke-linejoin="miter" d="M 3.945872 42.00184 L 11.105787 42.001525 C 12.21628 41.997805 13.074574 41.101904 13.07316 39.979995 L 13.070312 31.115747 C 13.069726 30.036779 13.932515 29.177431 15.006455 29.178206 L 21.432291 29.176881 C 22.544145 29.178189 23.402133 30.03595 23.402718 31.114917 L 23.404088 40.033522 C 23.40142 41.140348 24.259408 41.998109 25.382676 42.001724 L 32.542592 42.001409 C 33.648057 41.999049 34.50499 41.09812 34.509965 39.979879 L 34.507831 30.300697 C 34.504648 28.235032 33.054007 26.782244 30.992009 26.779039 L 30.615594 26.783769 C 29.536627 26.784354 28.677279 25.921566 28.680774 24.857681 C 28.679361 23.735772 29.537122 22.877784 30.616089 22.877199 L 30.865041 22.87998 C 32.96862 22.87733 34.505633 21.339151 34.508011 19.234212 L 34.508978 15.548735 C 34.506164 11.011772 31.209187 7.70068 26.667196 7.704854 L 3.945413 7.701947 C 2.828532 7.702 1.965744 8.561348 1.965797 9.678229 L 1.967283 40.033639 C 1.969643 41.139104 2.82763 41.996865 3.945872 42.00184 Z M 15.010585 20.479334 C 13.931617 20.479919 13.073629 19.622158 13.073044 18.543191 C 13.070152 17.475639 13.927913 16.617651 15.00688 16.617065 L 21.434077 16.620768 C 22.54457 16.617048 23.402558 17.474809 23.400423 18.543722 C 23.401008 19.622689 22.543247 20.480677 21.437781 20.483037 Z M 15.010585 20.479334 " stroke="#ffffff" stroke-width="6.430695" stroke-opacity="1" stroke-miterlimit="4"/><g fill="#226c3b" fill-opacity="1"><g transform="translate(81.825105, 207.384438)"><g><path d="M 2.855469 -0.773438 L 8.039062 -2.175781 C 8.84375 -2.394531 9.289062 -3.214844 9.070312 -4.019531 L 7.332031 -10.445312 C 7.125 -11.21875 7.574219 -12.007812 8.351562 -12.21875 L 13.007812 -13.480469 C 13.8125 -13.695312 14.601562 -13.246094 14.8125 -12.46875 L 16.558594 -6.011719 C 16.777344 -5.207031 17.566406 -4.753906 18.375 -4.972656 L 23.554688 -6.375 C 24.363281 -6.59375 24.808594 -7.410156 24.589844 -8.21875 L 22.691406 -15.234375 C 22.289062 -16.722656 20.949219 -17.492188 19.457031 -17.089844 L 19.179688 -17.015625 C 18.402344 -16.804688 17.613281 -17.257812 17.402344 -18.03125 C 17.1875 -18.839844 17.636719 -19.628906 18.414062 -19.839844 L 18.601562 -19.890625 C 20.121094 -20.300781 20.9375 -21.71875 20.523438 -23.242188 L 19.804688 -25.910156 C 18.914062 -29.199219 15.875 -30.941406 12.585938 -30.050781 L -3.863281 -25.601562 C -4.667969 -25.382812 -5.121094 -24.59375 -4.90625 -23.789062 L 1.042969 -1.8125 C 1.257812 -1.007812 2.046875 -0.554688 2.855469 -0.773438 Z M 6.648438 -18.519531 C 5.871094 -18.308594 5.082031 -18.761719 4.871094 -19.539062 C 4.664062 -20.3125 5.117188 -21.101562 5.890625 -21.3125 L 10.546875 -22.574219 C 11.355469 -22.789062 12.140625 -22.339844 12.351562 -21.5625 C 12.5625 -20.785156 12.109375 -19.996094 11.300781 -19.777344 Z M 6.648438 -18.519531 "/></g></g></g><g fill="#226c3b" fill-opacity="1"><g transform="translate(107.659009, 200.595297)"><g><path d="M 2.890625 -0.621094 L 8.140625 -1.75 C 8.960938 -1.925781 9.453125 -2.6875 9.277344 -3.503906 L 4.5 -25.761719 C 4.324219 -26.578125 3.558594 -27.074219 2.742188 -26.898438 L -2.507812 -25.769531 C -3.324219 -25.59375 -3.820312 -24.832031 -3.644531 -24.011719 L 1.136719 -1.757812 C 1.3125 -0.9375 2.074219 -0.445312 2.890625 -0.621094 Z M 2.890625 -0.621094 "/></g></g></g><g fill="#226c3b" fill-opacity="1"><g transform="translate(118.022897, 198.136357)"><g><path d="M 2.921875 -0.46875 L 18.605469 -2.980469 C 22.636719 -3.625 25.085938 -7.046875 24.4375 -11.078125 L 24.109375 -13.140625 C 23.460938 -17.171875 20.074219 -19.625 16.042969 -18.980469 L 8.550781 -17.78125 C 7.753906 -17.652344 7.019531 -18.1875 6.890625 -18.980469 C 6.757812 -19.804688 7.292969 -20.542969 8.085938 -20.667969 L 21.070312 -22.75 C 21.898438 -22.882812 22.429688 -23.617188 22.296875 -24.441406 L 21.722656 -28.03125 C 21.589844 -28.855469 20.855469 -29.390625 20.027344 -29.257812 L 4.347656 -26.746094 C 0.3125 -26.101562 -2.140625 -22.710938 -1.492188 -18.679688 L -1.164062 -16.617188 C -0.515625 -12.582031 2.871094 -10.128906 6.902344 -10.777344 L 14.363281 -11.972656 C 15.1875 -12.101562 15.929688 -11.539062 16.058594 -10.746094 C 16.183594 -9.949219 15.652344 -9.214844 14.828125 -9.082031 L 1.875 -7.007812 C 1.046875 -6.875 0.515625 -6.140625 0.648438 -5.3125 L 1.226562 -1.695312 C 1.359375 -0.867188 2.09375 -0.335938 2.921875 -0.46875 Z M 2.921875 -0.46875 "/></g></g></g><g fill="#226c3b" fill-opacity="1"><g transform="translate(144.228686, 193.993722)"><g><path d="M 2.945312 -0.269531 L 8.292969 -0.753906 C 9.125 -0.832031 9.707031 -1.527344 9.632812 -2.363281 L 9.070312 -8.542969 C 8.996094 -9.375 9.578125 -10.074219 10.378906 -10.144531 C 11.210938 -10.222656 11.910156 -9.605469 11.984375 -8.804688 L 12.546875 -2.625 C 12.621094 -1.792969 13.320312 -1.210938 14.152344 -1.289062 L 19.5 -1.773438 C 20.332031 -1.851562 20.914062 -2.546875 20.839844 -3.378906 L 20.515625 -6.933594 C 20.460938 -7.542969 20.328125 -7.917969 20.027344 -8.40625 L 17.289062 -13.679688 C 16.945312 -14.261719 16.902344 -14.710938 17.140625 -15.3125 L 18.882812 -20.992188 C 19.09375 -21.496094 19.148438 -21.953125 19.101562 -22.496094 L 18.777344 -26.050781 C 18.703125 -26.882812 18.003906 -27.464844 17.171875 -27.390625 L 11.824219 -26.902344 C 10.988281 -26.828125 10.40625 -26.128906 10.484375 -25.296875 L 11.046875 -19.117188 C 11.117188 -18.316406 10.535156 -17.617188 9.703125 -17.542969 C 8.902344 -17.46875 8.203125 -18.050781 8.132812 -18.851562 L 7.570312 -25.03125 C 7.496094 -25.863281 6.796875 -26.445312 5.964844 -26.371094 L 0.617188 -25.882812 C -0.21875 -25.808594 -0.800781 -25.109375 -0.722656 -24.277344 L 1.339844 -1.605469 C 1.414062 -0.773438 2.113281 -0.191406 2.945312 -0.269531 Z M 2.945312 -0.269531 "/></g></g></g><g fill="#226c3b" fill-opacity="1"><g transform="translate(166.138005, 192.127092)"><g/></g></g><g fill="#226c3b" fill-opacity="1"><g transform="translate(175.659538, 191.451597)"><g><path d="M 2.957031 0.015625 L 8.328125 0.0429688 C 9.164062 0.046875 9.808594 -0.625 9.8125 -1.460938 L 9.847656 -8.117188 C 9.851562 -8.921875 10.5 -9.558594 11.300781 -9.554688 L 16.125 -9.53125 C 16.960938 -9.527344 17.601562 -8.882812 17.597656 -8.078125 L 17.5625 -1.390625 C 17.558594 -0.554688 18.199219 0.09375 19.035156 0.0976562 L 24.402344 0.125 C 25.238281 0.128906 25.886719 -0.542969 25.890625 -1.378906 L 25.925781 -8.644531 C 25.933594 -10.1875 24.847656 -11.289062 23.304688 -11.296875 L 23.015625 -11.296875 C 22.210938 -11.300781 21.570312 -11.949219 21.574219 -12.75 C 21.578125 -13.585938 22.226562 -14.226562 23.03125 -14.222656 L 23.222656 -14.222656 C 24.796875 -14.214844 25.960938 -15.367188 25.96875 -16.941406 L 25.984375 -19.707031 C 26 -23.113281 23.539062 -25.601562 20.128906 -25.621094 L 3.089844 -25.707031 C 2.253906 -25.710938 1.605469 -25.070312 1.601562 -24.234375 L 1.488281 -1.472656 C 1.480469 -0.636719 2.121094 0.0117188 2.957031 0.015625 Z M 11.335938 -16.082031 C 10.53125 -16.085938 9.890625 -16.734375 9.894531 -17.539062 C 9.898438 -18.339844 10.546875 -18.980469 11.351562 -18.976562 L 16.171875 -18.953125 C 17.007812 -18.949219 17.648438 -18.300781 17.644531 -17.496094 C 17.640625 -16.695312 16.992188 -16.054688 16.15625 -16.058594 Z M 11.335938 -16.082031 "/></g></g></g><g fill="#226c3b" fill-opacity="1"><g transform="translate(202.190024, 191.64059)"><g><path d="M 2.949219 0.214844 L 8.304688 0.609375 C 9.140625 0.667969 9.828125 0.0742188 9.886719 -0.757812 L 10.191406 -4.894531 C 10.253906 -5.726562 10.941406 -6.324219 11.742188 -6.265625 C 12.578125 -6.203125 13.167969 -5.484375 13.109375 -4.679688 L 12.804688 -0.542969 C 12.746094 0.289062 13.339844 0.976562 14.171875 1.039062 L 19.527344 1.429688 C 20.363281 1.492188 21.050781 0.898438 21.113281 0.0664062 L 22.359375 -16.929688 C 22.664062 -21.097656 19.871094 -24.335938 15.699219 -24.640625 L 10.539062 -25.019531 C 6.371094 -25.324219 3.132812 -22.53125 2.828125 -18.363281 L 1.582031 -1.367188 C 1.523438 -0.535156 2.117188 0.15625 2.949219 0.214844 Z M 12.179688 -12.226562 C 11.378906 -12.289062 10.785156 -12.976562 10.84375 -13.777344 L 11.058594 -16.726562 C 11.121094 -17.5625 11.808594 -18.15625 12.609375 -18.097656 C 13.445312 -18.035156 14.039062 -17.347656 13.976562 -16.511719 L 13.761719 -13.5625 C 13.703125 -12.761719 13.011719 -12.167969 12.179688 -12.226562 Z M 12.179688 -12.226562 "/></g></g></g><g fill="#226c3b" fill-opacity="1"><g transform="translate(223.923272, 193.210669)"><g><path d="M 2.929688 0.398438 L 13.730469 1.859375 C 17.875 2.421875 21.28125 -0.199219 21.839844 -4.339844 L 23.355469 -15.523438 C 23.917969 -19.667969 21.328125 -23.066406 17.1875 -23.628906 L 6.386719 -25.09375 C 5.554688 -25.203125 4.832031 -24.652344 4.71875 -23.824219 L 1.664062 -1.265625 C 1.550781 -0.4375 2.101562 0.285156 2.929688 0.398438 Z M 12.039062 -5.050781 C 11.246094 -5.160156 10.691406 -5.882812 10.800781 -6.679688 L 12.085938 -16.175781 C 12.199219 -17.003906 12.921875 -17.554688 13.71875 -17.445312 C 14.546875 -17.335938 15.097656 -16.609375 14.988281 -15.78125 L 13.699219 -6.289062 C 13.59375 -5.492188 12.871094 -4.941406 12.039062 -5.050781 Z M 12.039062 -5.050781 "/></g></g></g><g fill="#226c3b" fill-opacity="1"><g transform="translate(245.518937, 196.113572)"><g><path d="M 2.902344 0.578125 L 8.167969 1.625 C 8.988281 1.785156 9.742188 1.28125 9.90625 0.460938 L 10.714844 -3.605469 C 10.878906 -4.425781 11.632812 -4.933594 12.421875 -4.777344 C 13.242188 -4.613281 13.742188 -3.824219 13.585938 -3.035156 L 12.777344 1.03125 C 12.613281 1.851562 13.117188 2.605469 13.9375 2.769531 L 19.207031 3.816406 C 20.023438 3.980469 20.78125 3.472656 20.945312 2.652344 L 24.265625 -14.058594 C 25.082031 -18.160156 22.707031 -21.710938 18.605469 -22.527344 L 13.527344 -23.535156 C 9.429688 -24.351562 5.875 -21.976562 5.058594 -17.875 L 1.738281 -1.164062 C 1.574219 -0.34375 2.082031 0.414062 2.902344 0.578125 Z M 13.589844 -10.640625 C 12.800781 -10.796875 12.292969 -11.554688 12.449219 -12.34375 L 13.027344 -15.242188 C 13.191406 -16.0625 13.945312 -16.570312 14.734375 -16.414062 C 15.554688 -16.25 16.058594 -15.492188 15.898438 -14.671875 L 15.320312 -11.773438 C 15.164062 -10.984375 14.40625 -10.480469 13.589844 -10.640625 Z M 13.589844 -10.640625 "/></g></g></g><g fill="#226c3b" fill-opacity="1"><g transform="translate(266.838998, 200.237421)"><g><path d="M 2.855469 0.773438 L 8.039062 2.175781 C 8.84375 2.394531 9.640625 1.910156 9.859375 1.101562 L 11.597656 -5.320312 C 11.808594 -6.097656 12.597656 -6.550781 13.375 -6.339844 L 18.027344 -5.082031 C 18.835938 -4.863281 19.289062 -4.074219 19.078125 -3.296875 L 17.332031 3.15625 C 17.113281 3.964844 17.566406 4.753906 18.375 4.972656 L 23.554688 6.375 C 24.363281 6.59375 25.160156 6.109375 25.378906 5.300781 L 27.277344 -1.710938 C 27.679688 -3.203125 26.910156 -4.542969 25.421875 -4.945312 L 25.140625 -5.023438 C 24.367188 -5.230469 23.914062 -6.019531 24.121094 -6.796875 C 24.339844 -7.601562 25.128906 -8.054688 25.90625 -7.847656 L 26.089844 -7.796875 C 27.613281 -7.382812 29.03125 -8.199219 29.445312 -9.71875 L 30.164062 -12.390625 C 31.054688 -15.679688 29.3125 -18.714844 26.023438 -19.605469 L 9.574219 -24.054688 C 8.765625 -24.273438 7.976562 -23.820312 7.757812 -23.015625 L 1.8125 -1.042969 C 1.59375 -0.234375 2.046875 0.554688 2.855469 0.773438 Z M 15.078125 -12.640625 C 14.300781 -12.851562 13.851562 -13.640625 14.058594 -14.414062 C 14.269531 -15.191406 15.058594 -15.644531 15.835938 -15.433594 L 20.488281 -14.175781 C 21.296875 -13.957031 21.75 -13.167969 21.539062 -12.390625 C 21.328125 -11.617188 20.539062 -11.164062 19.734375 -11.382812 Z M 15.078125 -12.640625 "/></g></g></g><g fill="#f2efea" fill-opacity="1"><g transform="translate(117.169623, 237.237062)"><g/></g></g><g fill="#f2efea" fill-opacity="1"><g transform="translate(119.5804, 240.737547)"><g/></g></g><g fill="#f2efea" fill-opacity="1"><g transform="translate(122.163394, 244.112959)"><g/></g></g><g fill="#f2efea" fill-opacity="1"><g transform="translate(124.912151, 247.35482)"><g/></g></g><g fill="#f2efea" fill-opacity="1"><g transform="translate(127.81672, 250.630125)"><g><path d="M 2.875 2.59375 L 0.609375 0.546875 L 5.5 -4.875 L 11.703125 0.734375 L 10.484375 2.078125 L 6.546875 -1.484375 L 5.78125 -0.625 L 9.125 2.390625 L 8.1875 3.421875 L 4.84375 0.40625 Z M 2.875 2.59375 "/></g></g></g><g fill="#f2efea" fill-opacity="1"><g transform="translate(136.440785, 258.11605)"><g><path d="M 3.140625 2.28125 L 0.65625 0.484375 L 4.953125 -5.421875 L 7.4375 -3.625 Z M 3.140625 2.28125 "/></g></g></g><g fill="#f2efea" fill-opacity="1"><g transform="translate(141.686314, 262.082793)"><g><path d="M 10.171875 5.625 L 7 3.875 L 5.78125 -2.4375 L 3.390625 1.875 L 0.703125 0.390625 L 4.234375 -6 L 7.421875 -4.234375 L 8.65625 2.0625 L 11.03125 -2.234375 L 13.703125 -0.765625 Z M 10.171875 5.625 "/></g></g></g><g fill="#f2efea" fill-opacity="1"><g transform="translate(154.419519, 268.909501)"><g><path d="M 5.359375 1.890625 L 0.765625 0.265625 L 3.203125 -6.609375 L 7.796875 -4.984375 C 9.679688 -4.304688 10.941406 -3.554688 11.578125 -2.734375 C 12.085938 -2.085938 12.257812 -1.378906 12.09375 -0.609375 C 12.03125 -0.273438 11.945312 0.0351562 11.84375 0.328125 C 11.738281 0.617188 11.609375 0.914062 11.453125 1.21875 C 11.296875 1.519531 11.078125 1.785156 10.796875 2.015625 C 10.523438 2.253906 10.160156 2.429688 9.703125 2.546875 C 9.242188 2.660156 8.660156 2.671875 7.953125 2.578125 C 7.242188 2.484375 6.378906 2.253906 5.359375 1.890625 Z M 5.6875 0.109375 C 7.15625 0.628906 8.117188 0.550781 8.578125 -0.125 C 8.703125 -0.3125 8.800781 -0.507812 8.875 -0.71875 C 8.945312 -0.925781 8.992188 -1.144531 9.015625 -1.375 C 9.035156 -1.601562 8.988281 -1.832031 8.875 -2.0625 C 8.757812 -2.289062 8.550781 -2.515625 8.25 -2.734375 C 7.945312 -2.953125 7.503906 -3.164062 6.921875 -3.375 L 5.484375 -3.875 L 4.25 -0.390625 Z M 5.6875 0.109375 "/></g></g></g><g fill="#f2efea" fill-opacity="1"><g transform="translate(167.241776, 273.093355)"><g/></g></g><g fill="#f2efea" fill-opacity="1"><g transform="translate(171.415416, 274.07167)"><g><path d="M 3.8125 0.65625 L 0.796875 0.140625 L 2.046875 -7.046875 L 5.0625 -6.53125 Z M 3.8125 0.65625 "/></g></g></g><g fill="#f2efea" fill-opacity="1"><g transform="translate(177.827297, 275.213104)"><g><path d="M 6.203125 0.421875 L 3.15625 0.21875 L 3.53125 -5.25 L 0.6875 -5.453125 L 0.8125 -7.265625 L 9.5625 -6.671875 L 9.4375 -4.859375 L 6.578125 -5.046875 Z M 6.203125 0.421875 "/></g></g></g><g fill="#f2efea" fill-opacity="1"><g transform="translate(188.975232, 275.731831)"><g/></g></g><g fill="#f2efea" fill-opacity="1"><g transform="translate(193.223167, 275.589189)"><g/></g></g><g fill="#f2efea" fill-opacity="1"><g transform="translate(197.458623, 275.234044)"><g/></g></g><g fill="#f2efea" fill-opacity="1"><g transform="translate(201.670988, 274.667303)"><g/></g></g><g fill="#f2efea" fill-opacity="1"><g transform="translate(205.849705, 273.890421)"><g/></g></g><g fill="#f2efea" fill-opacity="1"><g transform="translate(209.984295, 272.905264)"><g/></g></g><g fill="#f2efea" fill-opacity="1"><g transform="translate(214.219786, 271.797379)"><g><path d="M 3.609375 -1.390625 L 0.765625 -0.296875 L -1.859375 -7.109375 L 5.953125 -10.109375 L 6.609375 -8.421875 L 1.640625 -6.515625 L 2.046875 -5.4375 L 6.25 -7.046875 L 6.765625 -5.734375 L 2.5625 -4.125 Z M 3.609375 -1.390625 "/></g></g></g><g fill="#f2efea" fill-opacity="1"><g transform="translate(224.794847, 267.488098)"><g><path d="M 3.453125 -1.765625 L 0.71875 -0.375 L -2.609375 -6.875 L 0.125 -8.265625 Z M 3.453125 -1.765625 "/></g></g></g><g fill="#f2efea" fill-opacity="1"><g transform="translate(230.643423, 264.569118)"><g><path d="M 8.765625 -5.796875 L 6.171875 -4.078125 L 3.1875 -4.78125 L 2.640625 -1.75 L 0.0625 -0.046875 L 1.171875 -5.25 L -3.953125 -6.125 L -1.375 -7.828125 L 1.546875 -7.265625 L 2.15625 -10.15625 L 4.75 -11.875 L 3.546875 -6.8125 Z M 8.765625 -5.796875 "/></g></g></g><g fill="#f2efea" fill-opacity="1"><g transform="translate(240.811717, 257.501223)"><g/></g></g><g fill="#f2efea" fill-opacity="1"><g transform="translate(244.122958, 254.777618)"><g><path d="M 2.84375 -2.625 L 0.59375 -0.546875 L -4.359375 -5.90625 L -2.109375 -7.984375 Z M 2.84375 -2.625 "/></g></g></g><g fill="#f2efea" fill-opacity="1"><g transform="translate(248.925164, 250.379194)"><g><path d="M 4.109375 -4.671875 L 2.078125 -2.375 L -2.046875 -6 L -3.921875 -3.859375 L -5.28125 -5.046875 L 0.5 -11.640625 L 1.859375 -10.453125 L -0.015625 -8.296875 Z M 4.109375 -4.671875 "/></g></g></g></svg>