<?xml version="1.0" standalone="no"?>
<!DOCTYPE svg PUBLIC "-//W3C//DTD SVG 20010904//EN"
 "http://www.w3.org/TR/2001/REC-SVG-20010904/DTD/svg10.dtd">
<svg version="1.0" xmlns="http://www.w3.org/2000/svg"
 width="500.000000pt" height="500.000000pt" viewBox="0 0 500.000000 500.000000"
 preserveAspectRatio="xMidYMid meet">

<g transform="translate(0.000000,500.000000) scale(0.100000,-0.100000)"
fill="#000000" stroke="none">
<path d="M2500 4406 c0 -19 -4 -38 -10 -41 -5 -3 -10 -19 -10 -34 0 -42 -20
-90 -42 -102 -19 -10 -18 -11 8 -35 l26 -25 -7 -127 c-4 -70 -10 -156 -14
-192 l-6 -65 -75 -6 c-94 -8 -172 -24 -262 -55 -39 -13 -75 -21 -80 -18 -8 5
-118 218 -118 229 0 16 223 60 358 70 50 4 92 12 92 18 0 12 -149 2 -265 -18
-241 -42 -483 -149 -677 -301 -31 -24 -59 -44 -62 -44 -3 0 -6 12 -6 26 0 14
-5 34 -11 46 -13 23 -83 57 -120 58 -24 0 -19 -7 49 -74 l75 -73 -43 -39 c-27
-25 -50 -38 -64 -36 -16 3 -18 1 -8 -10 9 -12 3 -25 -34 -68 -142 -166 -257
-382 -310 -580 -10 -36 -18 -66 -19 -68 -1 -1 -16 3 -34 9 -23 8 -36 8 -43 1
-8 -8 1 -13 31 -18 39 -6 42 -9 37 -33 -16 -75 -26 -163 -26 -218 0 -35 -4
-63 -9 -63 -5 0 -19 11 -30 26 -19 24 -20 24 -30 6 -12 -22 -79 -52 -116 -52
-14 0 -25 -4 -25 -10 0 -5 10 -10 21 -10 42 0 101 -24 116 -47 l16 -24 14 21
c8 12 25 25 38 30 14 5 120 1 271 -10 137 -11 259 -20 272 -20 19 0 22 -5 22
-44 0 -50 21 -167 43 -239 l15 -47 -173 -87 c-96 -48 -176 -85 -179 -82 -14
13 -46 203 -52 302 -4 59 -11 107 -16 107 -21 0 2 -246 36 -375 13 -52 13 -55
-6 -61 -21 -6 -16 -19 8 -19 10 0 29 -35 53 -96 46 -117 105 -228 178 -332 51
-74 54 -80 38 -97 -9 -9 -28 -17 -42 -18 -35 0 -79 -49 -93 -104 -6 -24 -15
-51 -21 -61 -17 -30 -2 -32 30 -4 19 16 26 27 18 30 -8 3 -4 13 12 30 13 15
28 24 33 21 12 -8 59 36 52 48 -4 5 4 20 17 34 l22 24 101 -99 c125 -122 163
-154 170 -142 3 5 -16 26 -42 47 -26 22 -80 72 -119 113 -69 71 -72 76 -56 94
13 14 14 20 5 26 -8 5 -4 15 17 35 20 20 30 24 33 14 4 -9 11 -6 26 12 12 14
20 30 17 36 -4 14 42 60 52 51 3 -4 17 3 29 14 l23 22 42 -37 c55 -51 180
-131 260 -168 l66 -31 -35 -111 c-19 -61 -36 -113 -38 -115 -3 -3 -118 67
-171 105 -12 9 -24 11 -27 6 -3 -6 38 -39 92 -74 92 -58 98 -65 89 -86 -12
-26 -1 -44 13 -22 5 8 11 19 13 24 2 5 52 -11 113 -36 121 -51 232 -83 350
-102 l79 -12 3 -57 c3 -51 0 -60 -24 -82 -15 -14 -22 -25 -16 -25 20 0 46 -51
52 -99 4 -33 10 -47 23 -49 14 -3 17 4 17 48 0 43 5 56 29 80 l29 29 -23 15
c-27 17 -40 63 -30 105 l6 28 167 6 c97 3 198 12 242 22 245 54 497 176 671
326 l57 48 62 -64 c34 -36 64 -65 66 -65 11 0 2 49 -16 88 -13 30 -29 47 -49
55 l-29 11 75 85 c228 263 351 551 383 896 10 104 9 137 -4 124 -2 -2 -9 -56
-16 -119 -16 -162 -15 -160 -56 -153 -45 7 -45 -13 0 -21 l34 -7 -23 -88 c-64
-238 -184 -455 -360 -649 -32 -35 -61 -62 -65 -60 -11 4 -240 255 -240 263 0
4 10 20 21 37 l21 29 24 -22 c20 -18 24 -19 24 -6 0 9 -9 22 -21 30 -20 15
-20 15 10 68 25 46 81 179 81 194 0 3 -4 5 -9 5 -5 0 -19 -25 -30 -55 -38
-101 -122 -255 -139 -255 -7 0 -182 187 -291 312 l-33 38 30 34 c16 19 38 48
48 65 10 17 23 31 29 31 10 0 504 -155 683 -215 39 -13 72 -20 72 -17 0 13
-171 93 -182 86 -6 -4 -8 -3 -5 3 4 6 -104 67 -251 143 -141 73 -258 133 -260
135 -9 8 23 64 41 70 19 6 20 8 5 12 -18 5 -24 39 -10 59 4 6 80 16 182 23 96
6 205 15 243 18 l67 6 0 -34 c0 -38 -24 -176 -39 -226 -5 -18 -6 -35 -1 -38
11 -7 17 3 25 47 6 32 10 36 25 28 23 -12 60 -13 60 -1 0 5 -16 12 -36 16 -34
6 -36 8 -30 37 3 17 9 62 13 99 7 80 -13 72 211 88 153 11 190 6 199 -29 7
-25 15 -25 31 1 16 25 70 49 112 49 49 0 34 17 -21 24 -38 5 -59 15 -81 37
-34 33 -38 35 -38 14 0 -28 -38 -38 -141 -36 l-56 1 -12 115 c-14 128 -38 237
-76 347 -24 68 -24 74 -8 85 9 7 20 13 25 13 4 0 8 5 8 11 0 6 -7 8 -15 5 -8
-3 -22 -9 -29 -12 -11 -4 -27 19 -60 83 -70 141 -216 348 -229 326 -3 -5 12
-31 33 -57 60 -72 130 -182 177 -275 24 -47 42 -86 40 -87 -1 -1 -43 -16 -94
-32 l-91 -29 -12 26 c-27 59 -130 200 -198 270 -68 70 -71 75 -56 92 9 10 20
16 24 14 4 -2 15 4 25 15 10 11 22 17 26 14 5 -3 6 2 3 11 -7 16 21 55 40 55
16 1 60 40 52 47 -7 8 33 53 48 53 5 0 20 10 33 22 l23 22 30 -29 c16 -16 33
-25 37 -21 5 4 -9 23 -29 41 -34 32 -35 35 -19 49 10 9 22 16 28 16 6 0 16 7
23 15 11 14 14 13 27 -5 8 -11 18 -20 22 -20 9 0 44 120 37 127 -12 13 -119
-31 -153 -62 -21 -19 -41 -35 -44 -35 -3 0 -39 27 -80 60 -246 197 -600 330
-882 330 -114 0 -86 -16 40 -23 292 -16 593 -134 836 -328 56 -45 77 -68 77
-85 0 -16 -37 -56 -136 -146 -75 -68 -139 -122 -143 -121 -3 1 -37 23 -76 49
-72 48 -209 117 -257 129 -16 4 -28 10 -28 14 0 4 24 80 54 169 33 98 50 162
43 161 -7 0 -46 -68 -87 -150 -41 -83 -78 -152 -81 -154 -3 -2 -41 2 -85 10
-93 17 -218 20 -209 5 3 -5 33 -10 65 -10 50 0 207 -24 216 -33 1 -1 -26 -57
-61 -123 l-65 -121 -72 18 c-40 10 -90 21 -110 24 -35 5 -38 9 -38 38 0 18 -9
151 -20 297 -12 146 -21 303 -22 349 -1 79 1 86 24 106 24 21 24 22 7 33 -34
21 -51 80 -43 149 4 44 3 63 -5 63 -6 0 -11 -15 -11 -34z m43 -180 c3 -8 -1
-20 -9 -26 -8 -7 -14 -19 -14 -26 0 -8 -4 -14 -10 -14 -15 0 -12 67 3 73 20 9
25 8 30 -7z m-23 -183 c0 -13 -4 -23 -10 -23 -5 0 -10 17 -10 38 0 27 3 33 10
22 5 -8 10 -25 10 -37z m21 -335 c24 -306 24 -298 -1 -298 -15 0 -20 7 -20 25
0 14 -4 25 -10 25 -5 0 -10 18 -10 40 0 22 5 40 10 40 6 0 10 14 10 30 0 17
-4 30 -10 30 -5 0 -10 16 -10 35 0 19 5 35 10 35 6 0 10 16 10 35 0 19 -4 35
-10 35 -5 0 -10 16 -10 35 0 19 5 35 10 35 6 0 10 16 10 35 0 19 -4 35 -10 35
-5 0 -10 19 -10 42 0 32 3 39 12 30 7 -7 18 -103 29 -244z m-633 170 c35 -93
63 -198 56 -209 -3 -6 1 -16 9 -22 21 -17 53 -120 38 -125 -24 -8 -159 -101
-218 -150 l-62 -52 -175 157 c-96 87 -175 161 -175 166 -2 15 175 137 270 186
83 44 210 99 231 101 4 0 15 -24 26 -52z m528 -235 c-4 -65 -9 -146 -13 -179
l-6 -62 -41 -5 c-22 -4 -68 -15 -101 -26 -54 -18 -61 -19 -72 -5 -6 9 -46 83
-87 164 l-76 148 79 27 c98 32 200 53 270 54 l54 1 -7 -117z m539 21 c-8 -20
-15 -38 -15 -40 0 -2 -5 -4 -10 -4 -6 0 -1 18 10 40 25 50 35 52 15 4z m-900
-172 c62 -150 72 -192 46 -192 -9 0 -121 328 -121 353 0 19 8 3 75 -161z
m-404 -244 c-40 -40 -130 -175 -162 -240 -13 -27 -27 -48 -31 -48 -5 0 -104
31 -220 70 -183 60 -236 73 -217 56 2 -2 95 -49 207 -105 165 -82 202 -105
198 -119 -22 -69 -47 -187 -53 -244 -6 -68 -6 -68 -37 -69 -17 0 -134 -8 -261
-18 -126 -10 -234 -15 -239 -13 -12 7 0 181 19 272 37 178 126 394 220 535 79
117 155 205 171 198 11 -4 14 0 12 11 -2 9 15 34 37 55 l40 40 174 -174 175
-174 -33 -33z m1238 255 c-23 -54 -47 -113 -54 -130 -10 -24 -18 -31 -30 -27
-9 4 -15 12 -13 18 8 30 119 236 128 236 5 0 -9 -44 -31 -97z m243 16 c82 -41
188 -111 187 -124 0 -5 -57 -61 -126 -122 l-126 -113 -51 48 c-28 26 -68 58
-88 71 -21 12 -38 30 -38 38 0 9 19 73 41 144 l42 128 48 -20 c27 -10 77 -33
111 -50z m-1089 -124 l35 -105 -31 -22 c-18 -12 -57 -46 -87 -74 l-55 -52 -89
82 -89 83 69 57 c63 52 189 136 206 136 3 0 22 -47 41 -105z m501 -27 c6 -26
36 -456 36 -505 0 -25 -5 -33 -17 -34 -15 0 -14 -2 3 -9 18 -7 22 -19 27 -106
l7 -99 -52 -52 c-29 -29 -56 -53 -60 -53 -4 0 -8 11 -8 25 0 14 5 25 10 25 6
0 10 16 10 35 0 19 -4 35 -10 35 -5 0 -10 16 -10 35 0 19 5 35 10 35 6 0 10
16 10 36 0 21 -4 33 -10 29 -5 -3 -10 -1 -10 4 0 6 5 11 12 11 9 0 9 3 0 12
-15 15 -16 48 -2 48 6 0 10 16 10 36 0 21 -4 33 -10 29 -6 -4 -10 10 -10 34 0
23 5 41 10 41 6 0 10 16 10 36 0 21 -4 33 -10 29 -6 -4 -10 10 -10 34 0 23 5
41 10 41 6 0 10 14 10 30 0 17 -4 30 -10 30 -5 0 -10 18 -10 40 0 22 5 40 10
40 6 0 10 14 10 30 0 17 -4 30 -10 30 -5 0 -10 16 -10 35 0 32 2 35 30 35 23
0 31 -5 34 -22z m111 3 c28 -5 63 -15 79 -21 l28 -10 -82 -158 c-45 -86 -86
-161 -90 -165 -7 -8 -13 49 -26 266 l-7 108 24 -5 c13 -3 47 -10 74 -15z
m-260 -38 c-3 -27 -10 -108 -15 -182 -5 -74 -11 -136 -13 -137 -2 -2 -40 68
-86 156 -93 180 -94 160 14 191 33 10 70 18 83 18 21 1 22 -2 17 -46z m982 13
c-4 -10 -1 -13 7 -10 24 9 185 -188 238 -289 10 -22 18 -40 16 -42 -6 -5 -423
-135 -433 -135 -6 0 -27 27 -47 60 -20 33 -42 60 -48 60 -6 0 -8 -5 -4 -12 5
-7 21 -33 36 -57 15 -25 28 -50 28 -56 0 -6 -76 -35 -170 -64 -93 -30 -170
-57 -170 -61 0 -4 75 17 168 46 92 30 172 54 179 54 6 0 16 -13 21 -30 13 -36
29 -25 -194 -125 -90 -40 -166 -69 -169 -65 -6 10 15 20 224 105 79 33 140 60
135 62 -6 2 -86 -28 -179 -67 -92 -38 -173 -70 -179 -69 -6 0 -25 21 -42 47
-26 40 -28 50 -19 69 16 32 46 63 55 58 9 -5 39 26 54 57 6 13 21 28 34 34 31
15 62 45 57 54 -5 9 26 39 57 54 12 6 29 25 39 41 9 17 22 29 28 28 6 -2 11 3
11 10 0 7 10 17 22 22 13 6 27 20 33 31 17 34 35 53 63 67 15 6 31 22 38 34
15 32 45 63 59 63 7 0 20 9 30 20 21 24 29 26 22 6z m-573 -25 c3 -4 -36 -109
-87 -232 -51 -123 -97 -233 -101 -244 -12 -33 -26 3 -26 71 0 58 5 72 91 238
82 160 107 193 123 167z m-560 -288 c59 -141 104 -263 101 -271 -4 -11 -18 -3
-54 29 -49 44 -50 45 -121 262 -39 119 -68 222 -65 227 19 30 40 -8 139 -247z
m680 225 c18 -13 55 -42 81 -66 l49 -43 -25 -23 c-42 -40 -253 -231 -270 -244
-12 -9 4 51 49 193 36 113 70 205 74 205 5 0 24 -10 42 -22z m-1077 -199 c-28
-37 -87 -157 -87 -176 0 -7 -6 -13 -13 -13 -20 0 -241 70 -251 80 -10 10 42
115 97 193 l40 57 24 -21 c29 -28 44 -16 15 13 l-21 21 21 30 21 29 90 -90 90
-90 -26 -33z m519 -104 c-3 -9 -156 300 -156 314 0 3 36 -64 80 -149 44 -85
78 -159 76 -165z m-221 123 c32 -101 60 -190 63 -198 6 -15 -107 82 -223 193
l-60 57 69 65 c37 36 74 65 80 65 7 0 37 -78 71 -182z m213 -176 c-3 -13 -133
266 -144 308 -3 8 30 -55 71 -140 42 -84 74 -160 73 -168z m-78 120 c44 -101
80 -191 78 -200 -2 -9 -39 69 -82 173 -87 210 -92 222 -84 215 3 -3 43 -87 88
-188z m442 7 c-38 -96 -72 -183 -76 -194 -5 -11 -10 -15 -13 -8 -4 11 147 386
153 380 2 -2 -27 -82 -64 -178z m79 144 c-12 -20 -14 -14 -5 12 4 9 9 14 11
11 3 -2 0 -13 -6 -23z m-27 -158 c-48 -147 -74 -210 -74 -181 0 4 27 85 60
178 33 94 60 173 60 176 0 3 2 3 5 1 2 -3 -21 -81 -51 -174z m-39 -27 c-30
-86 -55 -161 -55 -167 0 -6 -4 -11 -10 -11 -5 0 -10 3 -10 8 0 13 123 332 127
329 2 -2 -22 -74 -52 -159z m-481 -317 c-43 -72 -4 -80 -411 88 -202 84 -370
154 -372 156 -1 2 0 8 3 13 3 6 62 -8 138 -33 119 -38 133 -45 130 -64 -4 -25
6 -27 22 -5 11 14 28 11 167 -34 211 -67 206 -66 194 -54 -5 5 -84 33 -175 62
-91 28 -168 55 -172 58 -3 4 10 42 29 84 l36 78 28 -21 c33 -23 39 -11 9 16
-23 21 -25 36 -8 53 10 10 53 -29 205 -180 192 -191 192 -192 177 -217z m1641
277 c31 -96 61 -249 70 -348 l7 -75 -89 7 c-48 3 -91 7 -94 7 -3 1 -9 34 -12
74 -8 90 -29 184 -63 278 -14 39 -24 72 -22 74 2 1 39 21 83 43 56 28 82 36
88 28 4 -6 18 -46 32 -88z m-2539 29 c59 -18 99 -37 97 -43 -2 -7 -39 3 -101
29 -143 58 -142 61 4 14z m2344 29 c0 -2 -7 -7 -16 -10 -8 -3 -12 -2 -9 4 6
10 25 14 25 6z m-60 -25 c-8 -5 -105 -46 -214 -91 -198 -81 -215 -85 -216 -45
0 6 93 40 208 77 198 63 258 79 222 59z m64 -123 c29 -90 56 -222 56 -280 l0
-39 -82 6 c-46 4 -155 12 -242 18 l-160 12 -12 70 c-7 39 -13 75 -13 80 -1 6
33 28 73 50 41 21 72 43 69 49 -3 5 -1 6 5 2 6 -4 69 22 139 58 70 35 131 61
134 58 4 -4 18 -42 33 -84z m-1829 -229 c-23 -5 -26 -7 -12 -12 40 -16 50 -17
61 -8 7 6 17 6 26 1 21 -13 1 -18 -92 -23 -61 -3 -78 -1 -78 10 0 17 -10 17
-24 -2 -8 -11 -53 -18 -188 -28 l-178 -13 0 32 c0 42 26 176 45 234 l15 46
228 -115 c203 -104 224 -116 197 -122z m-245 207 c0 -2 -7 -7 -16 -10 -8 -3
-12 -2 -9 4 6 10 25 14 25 6z m1700 -16 c13 -9 13 -10 0 -10 -11 0 -12 -2 -3
-8 9 -5 -2 -16 -33 -31 -26 -12 -48 -20 -51 -17 -2 2 5 7 18 11 14 5 18 10 10
15 -8 4 -1 12 19 20 23 9 28 15 18 21 -7 5 -8 9 -3 9 6 0 17 -5 25 -10z
m-1635 -12 c15 -6 21 -14 15 -18 -6 -4 74 -44 177 -89 103 -46 192 -87 197
-91 5 -5 -16 -7 -45 -6 -43 3 -81 17 -188 70 -73 37 -131 69 -129 72 3 2 71
-28 152 -67 81 -39 149 -69 152 -67 2 3 -75 43 -171 89 -97 46 -170 86 -164
88 7 2 1 10 -12 17 -30 17 -19 18 16 2z m1565 -8 c-8 -5 -19 -10 -25 -10 -5 0
-3 5 5 10 8 5 20 10 25 10 6 0 3 -5 -5 -10z m-635 -22 c-10 -31 -25 -47 -25
-26 0 24 11 48 22 48 5 0 6 -10 3 -22z m-667 -80 c111 -45 193 -84 183 -86
-16 -3 -360 143 -401 170 -26 16 5 5 218 -84z m1093 -19 c-90 -44 -171 -79
-180 -77 -15 3 313 157 334 156 6 0 -64 -36 -154 -79z m168 57 c-20 -17 -260
-136 -275 -135 -10 0 44 32 121 69 121 59 170 80 154 66z m-455 -26 c10 -7 15
-19 12 -26 -3 -8 -1 -13 5 -11 6 1 15 -8 20 -20 6 -16 5 -23 -4 -24 -7 0 -3
-4 8 -8 12 -5 -5 -7 -45 -6 -36 2 -83 4 -105 4 -39 1 -39 2 -15 14 13 7 30 22
36 35 28 56 56 70 88 42z m470 -6 c3 -9 9 -41 13 -71 l6 -56 -84 6 c-46 4
-103 7 -126 7 -24 0 -43 4 -43 10 0 8 203 118 221 119 4 1 10 -6 13 -15z
m-934 -59 c7 -8 20 -16 29 -17 9 0 -4 -4 -29 -7 -56 -8 -63 -5 -47 19 14 24
30 25 47 5z m273 -177 c21 -4 27 -2 23 8 -4 11 13 14 89 14 93 0 95 0 95 -24
0 -12 -5 -37 -11 -53 -9 -27 -16 -31 -61 -36 -41 -5 -56 -3 -78 13 -36 25 -48
26 -26 1 11 -12 14 -21 7 -26 -6 -3 -10 -21 -10 -38 l1 -32 7 28 6 28 35 -36
35 -36 -25 -19 c-25 -19 -63 -34 -56 -22 2 4 0 16 -5 27 -6 16 -8 14 -8 -12
-1 -28 -5 -33 -35 -38 -55 -11 -71 -4 -74 33 -2 18 1 32 7 32 6 0 11 16 11 35
0 19 -4 35 -10 35 -5 0 -10 16 -10 35 0 19 5 35 10 35 6 0 10 11 10 25 0 23 2
24 20 15 22 -12 26 -1 8 20 -11 12 -10 12 2 3 8 -6 28 -13 43 -15z m680 -12
c-1 -16 -6 -33 -10 -37 -5 -5 -72 -11 -150 -14 -78 -3 -148 -7 -155 -9 -7 -3
-46 -7 -86 -10 -67 -6 -73 -5 -68 11 3 10 8 35 12 56 l6 37 227 -2 226 -3 -2
-29z m512 14 c0 -15 -88 -26 -387 -45 l-108 -7 0 29 c0 16 3 33 7 37 4 3 115
5 247 4 206 -3 241 -5 241 -18z m505 16 c0 -2 -16 -14 -36 -25 -32 -19 -39
-20 -53 -8 -29 26 -51 27 -221 15 -93 -7 -172 -9 -176 -6 -21 22 23 27 246 27
132 1 240 -1 240 -3z m-3470 -13 c-8 -3 -23 -12 -32 -20 -15 -14 -20 -13 -44
6 l-27 21 59 -1 c33 0 52 -3 44 -6z m570 -14 c0 -19 -4 -20 -82 -14 -46 4
-155 13 -243 20 l-160 12 243 2 c238 1 242 1 242 -20z m370 -14 c0 -35 -1 -36
-32 -31 -18 3 -76 8 -128 11 -173 10 -200 15 -200 36 0 18 10 19 180 19 l180
0 0 -35z m405 -11 c9 -25 16 -47 14 -49 -2 -1 -80 3 -174 11 -93 7 -182 13
-197 14 -25 0 -28 4 -28 35 l0 35 184 0 183 0 18 -46z m264 -10 l-57 -57 -85
8 -85 7 -16 39 c-9 22 -16 44 -16 49 0 6 61 10 157 10 l158 0 -56 -56z m-805
-14 c70 -5 130 -10 131 -12 2 -2 6 -32 10 -68 l7 -65 -151 -75 c-83 -41 -153
-71 -157 -67 -12 12 -44 161 -51 235 l-6 72 44 -5 c24 -3 102 -9 173 -15z
m302 -20 c30 0 54 -3 54 -7 0 -8 -182 -104 -187 -99 -1 1 -5 28 -9 61 l-7 58
48 -6 c26 -4 72 -7 101 -7z m1336 -15 c-2 -14 -11 -25 -19 -25 -11 0 -13 -3
-5 -12 12 -15 4 -68 -11 -68 -20 0 -207 104 -199 112 7 7 68 12 183 16 55 2
56 1 51 -23z m-1120 -3 c36 -7 31 -10 -144 -81 -100 -41 -177 -76 -172 -78 5
-2 90 30 189 71 99 41 183 72 188 69 5 -3 6 -7 4 -9 -2 -3 -90 -37 -195 -78
l-190 -73 -11 24 c-6 13 -11 30 -11 38 0 9 46 38 108 69 111 57 146 64 234 48z
m959 -53 c115 -60 131 -75 111 -105 -5 -7 -71 16 -196 68 -105 43 -194 77
-199 75 -5 -1 78 -38 183 -82 105 -44 193 -83 196 -86 2 -4 -78 24 -178 63
-101 38 -196 75 -211 80 -54 20 11 44 127 47 41 1 66 -8 167 -60z m-861 41 c0
-5 -2 -10 -4 -10 -3 0 -8 5 -11 10 -3 6 -1 10 4 10 6 0 11 -4 11 -10z m530 6
c0 -3 -4 -8 -10 -11 -5 -3 -10 -1 -10 4 0 6 5 11 10 11 6 0 10 -2 10 -4z
m-400 -72 c0 -36 -8 -41 -43 -23 -32 17 -32 17 -8 43 30 32 51 23 51 -20z
m-173 19 c-15 -15 -368 -146 -375 -138 -2 1 52 24 120 50 68 27 155 61 193 76
84 33 84 33 62 12z m833 -80 c80 -30 149 -59 155 -64 5 -6 -33 5 -85 24 -52
19 -138 49 -190 67 -52 18 -104 42 -115 52 -19 18 -16 18 35 -2 30 -12 120
-46 200 -77z m-876 27 c-5 -5 -74 -30 -153 -55 -79 -26 -151 -49 -160 -52 -9
-4 -13 -3 -9 2 9 9 297 114 318 114 9 1 11 -2 4 -9z m216 -39 c0 -28 -183
-461 -195 -461 -34 0 -31 25 25 198 32 97 57 179 55 181 -8 7 -25 -11 -25 -27
0 -32 -99 -317 -110 -317 -13 0 -129 101 -155 134 -10 13 -13 21 -6 17 15 -10
51 21 51 42 0 21 30 52 50 52 20 0 54 35 46 48 -7 12 40 56 52 48 12 -7 56 40
48 52 -7 12 40 56 52 48 5 -3 17 3 27 14 16 18 19 18 51 3 19 -9 34 -24 34
-32z m648 -12 c81 -28 152 -56 157 -62 7 -6 7 -8 0 -5 -5 3 -83 29 -172 57
-90 28 -163 56 -163 62 0 6 7 9 15 5 9 -3 82 -29 163 -57z m-1229 -3 c-2 -2
-71 -31 -153 -65 -204 -85 -211 -66 -14 36 l153 80 9 -24 c4 -13 6 -26 5 -27z
m1268 -278 l332 -333 -76 -83 c-41 -46 -73 -86 -69 -89 6 -7 87 73 129 127
l27 35 125 -125 c69 -69 125 -127 124 -130 -1 -10 -117 -99 -202 -154 -229
-150 -468 -223 -754 -233 l-163 -6 0 24 c0 39 22 304 25 308 2 1 39 9 83 17
44 7 117 28 163 45 46 17 93 31 103 32 16 2 36 -29 100 -160 45 -89 86 -162
92 -162 5 -1 -14 72 -43 161 -72 223 -71 209 -26 234 66 37 163 115 157 125
-3 6 -24 -5 -47 -24 -23 -19 -68 -51 -99 -71 l-57 -36 -46 142 c-25 78 -45
146 -45 150 0 4 15 15 33 24 52 27 148 105 141 115 -3 5 -24 -6 -47 -25 -64
-51 -128 -89 -137 -79 -4 4 -33 89 -65 188 -31 99 -61 185 -67 190 -12 12 -13
15 60 -214 53 -168 55 -174 36 -188 -10 -7 -20 -10 -22 -6 -1 4 -47 114 -101
243 l-97 235 40 27 c23 14 46 27 51 27 6 1 160 -149 342 -331z m448 181 c138
-72 243 -128 235 -126 -24 8 -504 207 -508 212 -6 5 8 45 16 45 4 0 120 -59
257 -131z m-1401 99 c-85 -101 -188 -207 -195 -202 -13 8 -71 125 -65 131 4 4
262 91 275 92 2 1 -4 -9 -15 -21z m1054 -73 c9 -3 5 -17 -18 -49 -39 -57 -44
-60 -74 -41 -14 9 -27 15 -30 13 -2 -2 -40 36 -85 83 l-80 86 137 -43 c75 -24
143 -46 150 -49z m-552 13 c-4 -29 -13 -147 -21 -263 -9 -115 -19 -213 -24
-218 -5 -5 -19 -7 -32 -5 -26 3 -39 42 -20 61 14 14 14 64 1 72 -5 3 -10 19
-10 35 0 16 5 32 10 35 6 3 10 19 10 35 0 16 -4 32 -10 35 -5 3 -10 19 -10 36
0 16 5 29 10 29 6 0 10 15 10 34 0 19 -4 38 -10 41 -5 3 -10 19 -10 36 0 16 5
29 10 29 6 0 10 11 10 24 0 19 6 26 28 29 66 10 64 12 58 -45z m-846 22 c-8
-5 -19 -10 -25 -10 -5 0 -3 5 5 10 8 5 20 10 25 10 6 0 3 -5 -5 -10z m1520
-12 c10 -6 7 -7 -10 -2 -14 3 -32 11 -40 16 -10 6 -7 7 10 2 14 -3 32 -11 40
-16z m-1490 2 c-8 -5 -19 -10 -25 -10 -5 0 -3 5 5 10 8 5 20 10 25 10 6 0 3
-5 -5 -10z m509 -200 c-46 -104 -85 -187 -87 -186 -2 2 34 93 79 201 46 109
85 193 87 186 2 -7 -33 -97 -79 -201z m412 -4 c44 -104 78 -191 76 -192 -7 -8
-167 365 -166 387 0 15 3 18 6 9 3 -8 41 -100 84 -204z m-1001 194 c-13 -9
-13 -10 0 -10 13 0 13 -1 0 -10 -12 -8 -12 -10 -1 -10 8 0 12 -2 9 -5 -3 -3
-13 -2 -22 1 -14 5 -15 9 -4 15 10 7 10 9 -2 9 -13 0 -13 1 0 10 8 5 20 10 25
10 6 0 3 -5 -5 -10z m90 -10 c-8 -5 -22 -9 -30 -9 -10 0 -8 3 5 9 27 12 43 12
25 0z m1455 -15 c39 -17 21 -18 -25 0 -19 7 -28 14 -20 14 8 0 29 -6 45 -14z
m45 5 c8 -5 11 -10 5 -10 -5 0 -17 5 -25 10 -8 5 -10 10 -5 10 6 0 17 -5 25
-10z m-1476 -18 c4 -10 22 -45 41 -76 l35 -58 -155 -168 -154 -169 -38 42
c-21 23 -50 58 -64 77 -15 19 -30 32 -34 28 -7 -7 69 -112 99 -137 9 -7 16
-19 16 -25 -1 -11 -185 -218 -200 -224 -25 -10 -192 281 -243 425 l-26 72 182
60 c100 34 185 61 188 61 3 0 22 -33 43 -72 42 -83 72 -126 81 -116 4 3 -5 23
-18 45 -36 57 -79 144 -74 150 5 5 298 102 309 103 4 0 9 -8 12 -18z m1556 -2
c-8 -5 -19 -10 -25 -10 -5 0 -3 5 5 10 8 5 20 10 25 10 6 0 3 -5 -5 -10z
m-681 -194 c45 -99 79 -181 78 -183 -5 -5 -167 341 -167 356 0 23 4 15 89
-173z m-1246 154 c-12 -12 -155 -71 -160 -67 -7 7 151 86 160 80 5 -3 5 -9 0
-13z m866 -130 c-34 -71 -64 -129 -66 -127 -1 2 25 66 59 142 34 76 64 133 66
127 2 -6 -25 -70 -59 -142z m1 -59 c-74 -149 -102 -190 -46 -68 61 132 111
228 114 218 2 -5 -29 -73 -68 -150z m373 -13 c42 -87 74 -158 72 -158 -7 0
-155 295 -155 309 0 21 1 19 83 -151z m378 145 c13 -16 12 -17 -3 -4 -17 13
-22 21 -14 21 2 0 10 -8 17 -17z m-667 -225 c8 -124 13 -119 -86 -88 l-64 20
65 130 66 130 6 -43 c4 -23 9 -90 13 -149z m281 39 c37 -70 66 -130 64 -131
-8 -7 -111 -26 -141 -26 -30 0 -30 1 -25 43 4 23 9 91 13 150 3 60 10 105 14
100 5 -4 38 -66 75 -136z m-610 -28 c17 -12 34 -26 38 -29 7 -6 -106 -384
-119 -399 -2 -2 -32 10 -68 27 -120 56 -283 173 -270 193 3 5 -1 6 -9 3 -8 -3
-18 0 -22 6 -9 14 25 52 41 46 14 -5 60 41 51 51 -10 9 34 54 45 47 12 -8 59
36 52 48 -8 12 36 59 48 52 12 -8 59 36 52 48 -3 5 0 16 7 24 10 12 20 6 68
-40 31 -30 70 -65 86 -77z m161 -36 c-8 -15 -15 -25 -16 -21 0 12 23 58 27 54
3 -2 -2 -17 -11 -33z m-70 -27 c5 -14 -130 -354 -148 -371 -8 -7 -9 -5 -6 5 3
8 31 97 63 198 55 172 75 209 91 168z m753 -162 c42 -133 49 -166 32 -149 -12
13 -111 254 -111 271 0 14 22 25 32 15 3 -3 25 -65 47 -137z m-579 98 c36 -9
68 -21 71 -25 3 -5 9 -61 13 -125 3 -64 9 -144 13 -176 l6 -59 -109 6 c-86 4
-256 36 -270 50 -1 1 38 82 87 180 74 146 94 177 107 172 9 -4 46 -14 82 -23z
m498 -141 l72 -139 -87 -32 c-95 -35 -254 -72 -264 -61 -3 3 0 76 7 161 7 85
13 163 13 173 1 13 10 17 39 18 20 1 51 5 67 9 76 19 74 22 153 -129z m-275
112 c3 -6 -18 -329 -22 -350 -1 -2 -11 -3 -23 -3 -17 0 -19 3 -10 12 14 14 16
78 2 78 -5 0 -10 13 -10 29 0 17 5 33 10 36 6 3 10 19 10 35 0 16 -4 32 -10
35 -5 3 -10 19 -10 35 0 16 5 32 10 35 6 3 10 19 10 36 0 22 5 29 19 29 11 0
22 -3 24 -7z m426 -284 c22 -73 22 -75 -3 -24 -27 55 -30 65 -18 65 5 0 14
-18 21 -41z m-988 -50 c-5 -13 -10 -19 -10 -12 -1 15 10 45 15 40 3 -2 0 -15
-5 -28z m139 -9 c41 -12 125 -23 187 -27 l111 -6 6 -31 c3 -17 8 -88 12 -158
l7 -128 -29 0 c-39 1 -194 35 -274 62 -57 18 -208 83 -218 92 -6 7 103 216
113 216 5 0 44 -9 85 -20z m396 -82 c-3 -29 -6 -70 -6 -90 0 -29 -3 -36 -15
-32 -17 7 -21 59 -5 69 6 3 10 22 10 41 0 19 -4 34 -10 34 -5 0 -10 7 -10 15
0 9 9 15 21 15 20 0 21 -4 15 -52z m-16 -223 c0 -19 -4 -35 -10 -35 -5 0 -10
16 -10 35 0 19 5 35 10 35 6 0 10 -16 10 -35z m30 -221 c0 -2 -9 -18 -20 -36
-17 -28 -20 -30 -26 -13 -5 11 -3 20 4 23 7 2 12 12 12 23 0 12 5 16 15 13 8
-4 15 -8 15 -10z"/>
<path d="M1330 3473 c1 -13 51 -45 58 -38 4 4 -4 15 -17 26 -24 20 -41 25 -41
12z"/>
<path d="M1440 3381 c0 -12 50 -44 58 -36 4 3 -4 15 -18 25 -27 21 -40 25 -40
11z"/>
<path d="M1546 3302 c-7 -11 43 -56 52 -47 3 3 -6 17 -20 31 -15 16 -28 22
-32 16z"/>
<path d="M920 2822 c0 -12 58 -27 67 -18 9 9 0 15 -35 22 -20 4 -32 2 -32 -4z"/>
<path d="M1060 2791 c0 -10 61 -24 69 -16 8 9 -21 25 -46 25 -13 0 -23 -4 -23
-9z"/>
<path d="M1195 2762 c6 -5 23 -12 38 -16 21 -5 28 -3 25 6 -3 7 -20 14 -39 16
-21 2 -30 0 -24 -6z"/>
<path d="M1332 2739 c6 -19 68 -31 68 -13 0 8 -9 14 -19 14 -11 0 -27 3 -37 7
-12 4 -15 2 -12 -8z"/>
<path d="M1760 3119 c0 -14 43 -49 53 -42 10 6 -10 30 -35 44 -12 7 -18 6 -18
-2z"/>
<path d="M1976 2942 c-6 -10 42 -47 50 -40 2 3 -7 15 -20 27 -13 12 -27 18
-30 13z"/>
<path d="M2080 2851 c0 -11 39 -41 53 -41 13 0 -12 29 -35 41 -12 6 -18 6 -18
0z"/>
<path d="M2190 2762 c0 -10 33 -42 43 -42 14 0 5 16 -18 33 -14 10 -25 14 -25
9z"/>
<path d="M1466 2711 c-6 -9 26 -21 59 -21 25 0 8 16 -27 24 -15 3 -29 2 -32
-3z"/>
<path d="M1600 2682 c0 -12 58 -27 67 -18 9 9 0 15 -35 22 -20 4 -32 2 -32 -4z"/>
<path d="M1740 2653 c0 -11 60 -27 68 -18 8 8 -2 14 -36 21 -19 4 -32 2 -32
-3z"/>
<path d="M3310 2790 c-8 -5 -10 -10 -5 -10 6 0 17 5 25 10 8 5 11 10 5 10 -5
0 -17 -5 -25 -10z"/>
<path d="M2695 2450 c3 -5 21 -10 38 -9 27 0 29 2 12 9 -28 12 -57 12 -50 0z"/>
<path d="M2840 2420 c20 -13 53 -13 45 0 -3 6 -18 10 -33 10 -21 0 -24 -2 -12
-10z"/>
<path d="M3100 2372 c0 -12 58 -27 67 -18 9 9 2 13 -34 21 -20 4 -33 3 -33 -3z"/>
<path d="M800 3922 c0 -14 46 -53 53 -45 4 3 -3 17 -15 30 -22 23 -38 30 -38
15z"/>
<path d="M907 3833 c-2 -4 9 -19 25 -32 26 -21 30 -22 27 -6 -5 20 -45 50 -52
38z"/>
<path d="M1010 3740 c0 -13 49 -44 57 -37 3 4 -5 15 -18 26 -27 23 -39 26 -39
11z"/>
<path d="M1120 3652 c0 -13 35 -42 50 -42 9 0 5 9 -10 25 -24 25 -40 32 -40
17z"/>
<path d="M558 2932 c-27 -9 -49 -19 -50 -22 -3 -5 86 -90 94 -90 3 0 8 19 12
43 4 23 9 52 13 65 6 26 -3 27 -69 4z"/>
<path d="M650 2882 c0 -5 7 -13 16 -16 24 -9 54 -7 54 4 0 6 -9 10 -19 10 -11
0 -26 3 -35 6 -9 3 -16 2 -16 -4z"/>
<path d="M3370 2311 c0 -9 62 -22 70 -14 8 7 -24 23 -47 23 -13 0 -23 -4 -23
-9z"/>
<path d="M3510 2284 c0 -8 10 -14 25 -14 14 0 27 0 30 0 3 0 5 3 5 8 1 4 -13
10 -30 13 -22 5 -30 3 -30 -7z"/>
<path d="M3640 2262 c0 -5 7 -13 16 -16 24 -9 54 -7 54 4 0 6 -9 10 -19 10
-11 0 -26 3 -35 6 -9 3 -16 2 -16 -4z"/>
<path d="M3910 2201 c0 -5 14 -11 31 -15 39 -7 64 5 29 15 -36 10 -60 10 -60
0z"/>
<path d="M4190 2141 c0 -9 62 -22 70 -14 8 7 -24 23 -47 23 -13 0 -23 -4 -23
-9z"/>
<path d="M4324 2118 c-5 -8 3 -12 44 -21 14 -3 22 0 22 8 0 14 -58 26 -66 13z"/>
<path d="M4460 2092 c0 -5 7 -13 16 -16 24 -9 54 -7 54 4 0 6 -9 10 -19 10
-11 0 -26 3 -35 6 -9 3 -16 2 -16 -4z"/>
<path d="M3146 1962 c-3 -5 8 -18 24 -30 16 -12 31 -18 35 -13 3 5 -8 19 -24
30 -16 12 -32 17 -35 13z"/>
<path d="M3250 1871 c0 -5 14 -19 30 -31 35 -25 41 -8 8 21 -25 20 -38 24 -38
10z"/>
<path d="M3360 1782 c0 -14 46 -53 53 -45 4 3 -3 17 -15 30 -22 23 -38 30 -38
15z"/>
<path d="M3570 1601 c0 -12 50 -44 58 -36 4 3 -4 15 -18 25 -27 21 -40 25 -40
11z"/>
<path d="M3680 1510 c0 -13 49 -44 57 -37 3 4 -5 15 -18 26 -27 23 -39 26 -39
11z"/>
<path d="M3802 1403 c15 -15 31 -24 34 -20 10 10 -26 47 -45 47 -11 0 -8 -7
11 -27z"/>
<path d="M3912 1313 c15 -15 31 -24 34 -20 10 10 -26 47 -45 47 -11 0 -8 -7
11 -27z"/>
<path d="M4000 1243 c1 -13 51 -45 58 -38 4 4 -4 15 -17 26 -24 20 -41 25 -41
12z"/>
<path d="M4168 1158 c-15 -22 -16 -22 -36 -5 -12 11 -22 14 -26 8 -4 -5 2 -16
13 -23 19 -13 19 -14 1 -38 l-19 -25 67 -12 c36 -7 67 -11 69 -10 4 4 -37 110
-46 120 -4 4 -15 -2 -23 -15z"/>
</g>
</svg>
